G04*
G04 #@! TF.GenerationSoftware,Altium Limited,Altium Designer,23.0.1 (38)*
G04*
G04 Layer_Color=8388736*
%FSLAX25Y25*%
%MOIN*%
G70*
G04*
G04 #@! TF.SameCoordinates,F61D067F-344E-4115-8181-82DC4058F137*
G04*
G04*
G04 #@! TF.FilePolarity,Negative*
G04*
G01*
G75*
%ADD14R,0.02953X0.03543*%
%ADD19R,0.02362X0.01968*%
%ADD22R,0.02953X0.03543*%
%ADD29R,0.04721X0.02362*%
%ADD30R,0.04921X0.02362*%
%ADD31R,0.04921X0.01181*%
%ADD32R,0.02165X0.02362*%
%ADD33R,0.03543X0.03937*%
%ADD34R,0.01860X0.02203*%
%ADD35R,0.02029X0.01860*%
%ADD36R,0.02203X0.01860*%
%ADD38R,0.05339X0.04152*%
%ADD39R,0.02500X0.02410*%
%ADD40R,0.02410X0.02410*%
%ADD41R,0.01968X0.01575*%
%ADD42R,0.03543X0.02953*%
%ADD43R,0.02648X0.02624*%
%ADD44R,0.01968X0.02362*%
%ADD45R,0.02423X0.02254*%
%ADD46R,0.02517X0.02254*%
%ADD47R,0.10984X0.06000*%
%ADD48R,0.03000X0.03591*%
%ADD49R,0.03000X0.03591*%
%ADD50R,0.06378X0.08583*%
%ADD51R,0.01860X0.01843*%
%ADD53R,0.01968X0.01968*%
%ADD54R,0.02254X0.02230*%
%ADD55R,0.07480X0.04331*%
%ADD56R,0.03000X0.03985*%
%ADD57R,0.02375X0.03950*%
%ADD58R,0.03950X0.02375*%
%ADD59R,0.06509X0.06509*%
%ADD60R,0.03556X0.03556*%
%ADD61R,0.02562X0.01184*%
%ADD62R,0.02769X0.01981*%
%ADD63R,0.03556X0.06115*%
%ADD64R,0.13792X0.10249*%
%ADD65R,0.02405X0.01184*%
%ADD66R,0.01184X0.02562*%
%ADD67R,0.01975X0.08668*%
%ADD68R,0.01775X0.08468*%
%ADD69R,0.01184X0.06893*%
%ADD70R,0.02690X0.02375*%
%ADD71R,0.03123X0.02572*%
%ADD72C,0.01575*%
G04:AMPARAMS|DCode=73|XSize=68mil|YSize=98mil|CornerRadius=19mil|HoleSize=0mil|Usage=FLASHONLY|Rotation=90.000|XOffset=0mil|YOffset=0mil|HoleType=Round|Shape=RoundedRectangle|*
%AMROUNDEDRECTD73*
21,1,0.06800,0.06000,0,0,90.0*
21,1,0.03000,0.09800,0,0,90.0*
1,1,0.03800,0.03000,0.01500*
1,1,0.03800,0.03000,-0.01500*
1,1,0.03800,-0.03000,-0.01500*
1,1,0.03800,-0.03000,0.01500*
%
%ADD73ROUNDEDRECTD73*%
%ADD74C,0.10898*%
%ADD75R,0.06181X0.06181*%
%ADD76C,0.06181*%
%ADD77R,0.06194X0.06194*%
%ADD78C,0.06194*%
D14*
X29618Y8100D02*
D03*
X34343D02*
D03*
X87046Y82401D02*
D03*
X91771D02*
D03*
X141986Y27300D02*
D03*
X137261D02*
D03*
X80253Y75899D02*
D03*
X75529D02*
D03*
X123300Y79900D02*
D03*
X128024D02*
D03*
X123300Y29500D02*
D03*
X118576D02*
D03*
D19*
X40652Y17968D02*
D03*
Y14031D02*
D03*
X71700Y11776D02*
D03*
Y7839D02*
D03*
Y14925D02*
D03*
Y18862D02*
D03*
X44791Y17937D02*
D03*
Y14000D02*
D03*
D22*
X123300Y85500D02*
D03*
X129131D02*
D03*
X123300Y37100D02*
D03*
X117469D02*
D03*
D29*
X185031Y37402D02*
D03*
D30*
Y40551D02*
D03*
Y59449D02*
D03*
Y62598D02*
D03*
D31*
Y45079D02*
D03*
Y49016D02*
D03*
Y50984D02*
D03*
Y54921D02*
D03*
Y56890D02*
D03*
Y52953D02*
D03*
Y47047D02*
D03*
Y43110D02*
D03*
D32*
X59746Y81600D02*
D03*
X56400D02*
D03*
X49884D02*
D03*
X53230D02*
D03*
D33*
X91771Y88451D02*
D03*
X75629D02*
D03*
X91771Y94750D02*
D03*
X75629D02*
D03*
X91671Y63550D02*
D03*
X75529D02*
D03*
X91671Y69849D02*
D03*
X75529D02*
D03*
D34*
X137400Y58703D02*
D03*
Y62059D02*
D03*
D35*
X144333Y53900D02*
D03*
X147313D02*
D03*
D36*
X134422Y77800D02*
D03*
X137778D02*
D03*
Y69800D02*
D03*
X134422D02*
D03*
X150276Y77600D02*
D03*
X147313D02*
D03*
D38*
X168500Y84557D02*
D03*
Y78843D02*
D03*
X161100Y84557D02*
D03*
Y78843D02*
D03*
D39*
X151443Y82600D02*
D03*
X154715D02*
D03*
X151443Y87500D02*
D03*
X154715D02*
D03*
X162842Y60000D02*
D03*
X166114D02*
D03*
D40*
X75728Y22221D02*
D03*
X79000D02*
D03*
Y42621D02*
D03*
X75728D02*
D03*
D41*
X107876Y11776D02*
D03*
Y14925D02*
D03*
D42*
X111525Y11776D02*
D03*
Y16500D02*
D03*
D43*
X108300Y77920D02*
D03*
Y81880D02*
D03*
X103100D02*
D03*
Y77920D02*
D03*
D44*
X113300Y77400D02*
D03*
X117237D02*
D03*
X119363Y43600D02*
D03*
X123300D02*
D03*
X132431Y65900D02*
D03*
X136369D02*
D03*
X85334Y52000D02*
D03*
X89271D02*
D03*
X72649Y57400D02*
D03*
X76586D02*
D03*
D45*
X166087Y68900D02*
D03*
X162713D02*
D03*
D46*
X166040Y64300D02*
D03*
X162760D02*
D03*
D47*
X159100Y28451D02*
D03*
Y47549D02*
D03*
D48*
X141986Y34000D02*
D03*
X136155D02*
D03*
D49*
X141986Y41400D02*
D03*
X136261D02*
D03*
X141986Y47600D02*
D03*
X136261D02*
D03*
D50*
X151893Y15500D02*
D03*
X168507D02*
D03*
D51*
X175500Y53723D02*
D03*
Y56890D02*
D03*
Y41912D02*
D03*
Y45079D02*
D03*
D53*
X44195Y8700D02*
D03*
X40652D02*
D03*
X49260Y13991D02*
D03*
X52803D02*
D03*
D54*
X72200Y30838D02*
D03*
Y34405D02*
D03*
D55*
X79000Y27500D02*
D03*
Y37343D02*
D03*
D56*
X28512Y13700D02*
D03*
X34343D02*
D03*
D57*
X59550Y26772D02*
D03*
X28054D02*
D03*
X31203D02*
D03*
X34353D02*
D03*
X37502D02*
D03*
X40652D02*
D03*
X43802D02*
D03*
X46951D02*
D03*
X50101D02*
D03*
X53250D02*
D03*
X56400D02*
D03*
X59550Y73228D02*
D03*
X56400D02*
D03*
X53250D02*
D03*
X50101D02*
D03*
X46951D02*
D03*
X43802D02*
D03*
X40652D02*
D03*
X37502D02*
D03*
X34353D02*
D03*
X31203D02*
D03*
X28054D02*
D03*
D58*
X63093Y31102D02*
D03*
Y34252D02*
D03*
Y37402D02*
D03*
Y40551D02*
D03*
Y43701D02*
D03*
Y46850D02*
D03*
Y50000D02*
D03*
Y53150D02*
D03*
Y56299D02*
D03*
Y59449D02*
D03*
Y62598D02*
D03*
Y65748D02*
D03*
Y68898D02*
D03*
X24510D02*
D03*
Y65748D02*
D03*
Y62598D02*
D03*
Y59449D02*
D03*
Y56299D02*
D03*
Y53150D02*
D03*
Y50000D02*
D03*
Y46850D02*
D03*
Y43701D02*
D03*
Y40551D02*
D03*
Y37402D02*
D03*
Y34252D02*
D03*
Y31102D02*
D03*
D59*
X43802Y50000D02*
D03*
Y42224D02*
D03*
X51577D02*
D03*
Y50000D02*
D03*
Y57776D02*
D03*
X43802D02*
D03*
X36026D02*
D03*
Y50000D02*
D03*
Y42224D02*
D03*
D60*
X24313Y73425D02*
D03*
X63290D02*
D03*
Y26575D02*
D03*
X24313D02*
D03*
D61*
X145463Y62559D02*
D03*
Y64528D02*
D03*
Y66496D02*
D03*
Y68465D02*
D03*
D62*
X90044Y14925D02*
D03*
Y11776D02*
D03*
X95556D02*
D03*
Y14925D02*
D03*
D63*
X123300Y71524D02*
D03*
X118300D02*
D03*
X113300D02*
D03*
X108300D02*
D03*
Y49476D02*
D03*
X113300D02*
D03*
X118300D02*
D03*
X123300D02*
D03*
D64*
X115800Y60500D02*
D03*
D65*
X156565Y68465D02*
D03*
Y66496D02*
D03*
Y64528D02*
D03*
D66*
X147313Y71024D02*
D03*
X154400Y60000D02*
D03*
X147313D02*
D03*
D67*
X150148Y68071D02*
D03*
D68*
X154715D02*
D03*
D69*
X152431Y62165D02*
D03*
D70*
X132581Y73800D02*
D03*
X137778D02*
D03*
D71*
X80956Y52000D02*
D03*
X72649D02*
D03*
D72*
X189500Y37008D02*
D03*
Y62992D02*
D03*
D73*
X187295Y31850D02*
D03*
Y68150D02*
D03*
D74*
X205012Y31850D02*
D03*
Y68150D02*
D03*
D75*
X121300Y13392D02*
D03*
D76*
X131300D02*
D03*
D77*
X29400Y92500D02*
D03*
D78*
X39400D02*
D03*
X49400D02*
D03*
X59400D02*
D03*
M02*
