G04*
G04 #@! TF.GenerationSoftware,Altium Limited,Altium Designer,23.0.1 (38)*
G04*
G04 Layer_Color=16711935*
%FSLAX25Y25*%
%MOIN*%
G70*
G04*
G04 #@! TF.SameCoordinates,F61D067F-344E-4115-8181-82DC4058F137*
G04*
G04*
G04 #@! TF.FilePolarity,Positive*
G04*
G01*
G75*
%ADD13C,0.00787*%
%ADD80C,0.01500*%
D13*
X17894Y9400D02*
G03*
X17894Y9400I-6500J0D01*
G01*
Y90606D02*
G03*
X17894Y90606I-6500J0D01*
G01*
X212900D02*
G03*
X212900Y90606I-6500J0D01*
G01*
Y9400D02*
G03*
X212900Y9400I-6500J0D01*
G01*
X217000Y96000D02*
G03*
X213000Y100000I-4000J0D01*
G01*
Y0D02*
G03*
X217000Y4000I0J4000D01*
G01*
X4000Y100000D02*
G03*
X0Y96000I0J-4000D01*
G01*
Y4000D02*
G03*
X4000Y0I4000J0D01*
G01*
Y100000D02*
X213000Y100000D01*
X4000Y-0D02*
X213000Y0D01*
X217000Y4000D02*
Y96000D01*
X0Y77000D02*
Y96000D01*
Y4000D02*
Y23000D01*
X21000D01*
Y77000D01*
X0D02*
X21000D01*
D80*
X97852Y5551D02*
G03*
X101452Y9150I0J3600D01*
G01*
Y17550D02*
G03*
X97852Y21150I-3600J0D01*
G01*
X87748D02*
G03*
X84149Y17550I0J-3600D01*
G01*
Y9150D02*
G03*
X87748Y5551I3600J0D01*
G01*
X87751D02*
X97852D01*
X87751Y21150D02*
X97852D01*
M02*
