G04*
G04 #@! TF.GenerationSoftware,Altium Limited,Altium Designer,23.0.1 (38)*
G04*
G04 Layer_Physical_Order=4*
G04 Layer_Color=16711680*
%FSLAX25Y25*%
%MOIN*%
G70*
G04*
G04 #@! TF.SameCoordinates,F61D067F-344E-4115-8181-82DC4058F137*
G04*
G04*
G04 #@! TF.FilePolarity,Positive*
G04*
G01*
G75*
%ADD72C,0.01575*%
%ADD75R,0.06181X0.06181*%
%ADD76C,0.06181*%
%ADD80C,0.01500*%
%ADD82C,0.01900*%
G04:AMPARAMS|DCode=88|XSize=60mil|YSize=90mil|CornerRadius=15mil|HoleSize=0mil|Usage=FLASHONLY|Rotation=90.000|XOffset=0mil|YOffset=0mil|HoleType=Round|Shape=RoundedRectangle|*
%AMROUNDEDRECTD88*
21,1,0.06000,0.06000,0,0,90.0*
21,1,0.03000,0.09000,0,0,90.0*
1,1,0.03000,0.03000,0.01500*
1,1,0.03000,0.03000,-0.01500*
1,1,0.03000,-0.03000,-0.01500*
1,1,0.03000,-0.03000,0.01500*
%
%ADD88ROUNDEDRECTD88*%
%ADD89C,0.10098*%
%ADD90R,0.05394X0.05394*%
%ADD91C,0.05394*%
%ADD92C,0.02000*%
%ADD93C,0.02400*%
%ADD101C,0.03000*%
%ADD102C,0.01000*%
G36*
X214260Y98235D02*
X214935Y97559D01*
X215300Y96677D01*
X215300Y96200D01*
X215300Y96200D01*
X215300Y5900D01*
X215300Y5417D01*
X215112Y4471D01*
X214742Y3579D01*
X214206Y2776D01*
X213524Y2094D01*
X212721Y1557D01*
X211829Y1188D01*
X210883Y1000D01*
X210400Y1000D01*
X114100D01*
Y23200D01*
X101400Y35900D01*
X90100D01*
X88800Y37200D01*
Y52300D01*
X90100Y53600D01*
X96962D01*
X96337Y53341D01*
X95859Y52863D01*
X95600Y52238D01*
Y51562D01*
X95859Y50937D01*
X96337Y50459D01*
X96962Y50200D01*
X97638D01*
X98173Y50422D01*
X113888D01*
X121822Y42488D01*
Y16983D01*
X117709D01*
Y9802D01*
X124891D01*
Y16983D01*
X124778D01*
Y43100D01*
X124685Y43572D01*
X124666Y43666D01*
X124345Y44145D01*
X115545Y52945D01*
X115066Y53266D01*
X114500Y53378D01*
X98173D01*
X97638Y53600D01*
X97000D01*
X131800Y88400D01*
Y98600D01*
X134600D01*
X212900Y98600D01*
X213377Y98600D01*
X214260Y98235D01*
D02*
G37*
G36*
X130400Y98708D02*
Y88900D01*
X96100Y54600D01*
X89700D01*
X87700Y52600D01*
Y37000D01*
X89800Y34900D01*
X101100D01*
X113297Y22703D01*
X113400Y1000D01*
X64780Y911D01*
X4000Y911D01*
X4000Y911D01*
Y917D01*
X3202Y1022D01*
X2467Y1327D01*
X2209Y1522D01*
X2031Y1659D01*
X1630Y2086D01*
X1303Y2582D01*
X1065Y3127D01*
X996Y3404D01*
X917Y4000D01*
X911D01*
Y22089D01*
X21000D01*
X21349Y22158D01*
X21411Y22200D01*
X22000D01*
X21911Y71645D01*
Y77000D01*
X21902Y77049D01*
X21900Y77900D01*
X21056D01*
X21000Y77911D01*
X911D01*
Y96000D01*
X917D01*
X1022Y96798D01*
X1330Y97541D01*
X1820Y98180D01*
X2459Y98670D01*
X3202Y98978D01*
X4000Y99083D01*
Y99089D01*
X7227D01*
X130400Y98708D01*
D02*
G37*
%LPC*%
G36*
X206400Y98036D02*
X204951Y97893D01*
X203557Y97470D01*
X202272Y96784D01*
X201147Y95860D01*
X200223Y94734D01*
X199536Y93449D01*
X199113Y92056D01*
X198970Y90606D01*
X199113Y89157D01*
X199536Y87763D01*
X200223Y86479D01*
X201147Y85353D01*
X202272Y84429D01*
X203557Y83742D01*
X204951Y83320D01*
X206400Y83177D01*
X207849Y83320D01*
X209243Y83742D01*
X210528Y84429D01*
X211653Y85353D01*
X212577Y86479D01*
X213264Y87763D01*
X213687Y89157D01*
X213829Y90606D01*
X213687Y92056D01*
X213264Y93449D01*
X212577Y94734D01*
X211653Y95860D01*
X210528Y96784D01*
X209243Y97470D01*
X207849Y97893D01*
X206400Y98036D01*
D02*
G37*
G36*
X166502Y74707D02*
X165826D01*
X165201Y74448D01*
X164723Y73970D01*
X164464Y73345D01*
Y72668D01*
X164590Y72364D01*
Y70281D01*
X162284Y67975D01*
X141073D01*
X140538Y68196D01*
X139862D01*
X139237Y67937D01*
X138759Y67459D01*
X138500Y66834D01*
Y66158D01*
X138759Y65533D01*
X139237Y65055D01*
X139862Y64796D01*
X140538D01*
X141073Y65018D01*
X162896D01*
X163462Y65130D01*
X163942Y65451D01*
X167114Y68623D01*
X167434Y69103D01*
X167547Y69669D01*
Y71985D01*
X167605Y72044D01*
X167864Y72668D01*
Y73345D01*
X167605Y73970D01*
X167127Y74448D01*
X166502Y74707D01*
D02*
G37*
G36*
X205742Y73699D02*
X204281D01*
X202870Y73321D01*
X201605Y72590D01*
X200571Y71557D01*
X199841Y70292D01*
X199463Y68880D01*
Y67419D01*
X199841Y66008D01*
X200571Y64742D01*
X201605Y63709D01*
X202870Y62979D01*
X204281Y62600D01*
X205742D01*
X207154Y62979D01*
X208419Y63709D01*
X209452Y64742D01*
X210183Y66008D01*
X210561Y67419D01*
Y68880D01*
X210183Y70292D01*
X209452Y71557D01*
X208419Y72590D01*
X207154Y73321D01*
X205742Y73699D01*
D02*
G37*
G36*
X190295Y71689D02*
X184295D01*
X183515Y71534D01*
X182853Y71092D01*
X182411Y70430D01*
X182256Y69650D01*
Y66650D01*
X182411Y65869D01*
X182853Y65208D01*
X183515Y64766D01*
X184295Y64610D01*
X188184D01*
X187741Y64167D01*
X187425Y63405D01*
Y62579D01*
X187741Y61817D01*
X188325Y61233D01*
X189087Y60917D01*
X189913D01*
X190675Y61233D01*
X191259Y61817D01*
X191575Y62579D01*
Y63405D01*
X191259Y64167D01*
X190729Y64697D01*
X191076Y64766D01*
X191737Y65208D01*
X192179Y65869D01*
X192334Y66650D01*
Y69650D01*
X192179Y70430D01*
X191737Y71092D01*
X191076Y71534D01*
X190295Y71689D01*
D02*
G37*
G36*
X137738Y56000D02*
X137062D01*
X136437Y55741D01*
X135959Y55263D01*
X135700Y54638D01*
Y53962D01*
X135959Y53337D01*
X136437Y52859D01*
X137062Y52600D01*
X137738D01*
X138363Y52859D01*
X138685Y53180D01*
X158341D01*
X158359Y53137D01*
X158837Y52659D01*
X159462Y52400D01*
X160138D01*
X160763Y52659D01*
X161241Y53137D01*
X161500Y53762D01*
Y54438D01*
X161241Y55063D01*
X160763Y55541D01*
X160138Y55800D01*
X159462D01*
X158837Y55541D01*
X158515Y55220D01*
X138859D01*
X138841Y55263D01*
X138363Y55741D01*
X137738Y56000D01*
D02*
G37*
G36*
X189913Y39083D02*
X189087D01*
X188325Y38767D01*
X187741Y38183D01*
X187425Y37421D01*
Y36595D01*
X187741Y35833D01*
X188184Y35390D01*
X184295D01*
X183515Y35234D01*
X182853Y34792D01*
X182411Y34131D01*
X182256Y33350D01*
Y30350D01*
X182411Y29570D01*
X182853Y28909D01*
X183515Y28466D01*
X184295Y28311D01*
X190295D01*
X191076Y28466D01*
X191737Y28909D01*
X192179Y29570D01*
X192334Y30350D01*
Y33350D01*
X192179Y34131D01*
X191737Y34792D01*
X191076Y35234D01*
X190729Y35303D01*
X191259Y35833D01*
X191575Y36595D01*
Y37421D01*
X191259Y38183D01*
X190675Y38767D01*
X189913Y39083D01*
D02*
G37*
G36*
X205742Y37400D02*
X204281D01*
X202870Y37021D01*
X201605Y36291D01*
X200571Y35258D01*
X199841Y33992D01*
X199463Y32581D01*
Y31120D01*
X199841Y29708D01*
X200571Y28443D01*
X201605Y27410D01*
X202870Y26679D01*
X204281Y26301D01*
X205742D01*
X207154Y26679D01*
X208419Y27410D01*
X209452Y28443D01*
X210183Y29708D01*
X210561Y31120D01*
Y32581D01*
X210183Y33992D01*
X209452Y35258D01*
X208419Y36291D01*
X207154Y37021D01*
X205742Y37400D01*
D02*
G37*
G36*
X131773Y16983D02*
X130827D01*
X129914Y16738D01*
X129095Y16265D01*
X128427Y15597D01*
X127954Y14778D01*
X127709Y13865D01*
Y12919D01*
X127954Y12006D01*
X128427Y11187D01*
X129095Y10519D01*
X129914Y10046D01*
X130827Y9802D01*
X131773D01*
X132686Y10046D01*
X133505Y10519D01*
X134173Y11187D01*
X134646Y12006D01*
X134891Y12919D01*
Y13865D01*
X134646Y14778D01*
X134173Y15597D01*
X133505Y16265D01*
X132686Y16738D01*
X131773Y16983D01*
D02*
G37*
G36*
X206400Y16829D02*
X204951Y16687D01*
X203557Y16264D01*
X202272Y15577D01*
X201147Y14653D01*
X200223Y13528D01*
X199536Y12243D01*
X199113Y10849D01*
X198970Y9400D01*
X199113Y7951D01*
X199536Y6557D01*
X200223Y5272D01*
X201147Y4147D01*
X202272Y3223D01*
X203557Y2536D01*
X204951Y2113D01*
X206400Y1970D01*
X207849Y2113D01*
X209243Y2536D01*
X210528Y3223D01*
X211653Y4147D01*
X212577Y5272D01*
X213264Y6557D01*
X213687Y7951D01*
X213829Y9400D01*
X213687Y10849D01*
X213264Y12243D01*
X212577Y13528D01*
X211653Y14653D01*
X210528Y15577D01*
X209243Y16264D01*
X207849Y16687D01*
X206400Y16829D01*
D02*
G37*
G36*
X123498Y96500D02*
X122902D01*
X122350Y96272D01*
X121928Y95850D01*
X121700Y95298D01*
Y94702D01*
X121928Y94150D01*
X122350Y93728D01*
X122902Y93500D01*
X123498D01*
X124050Y93728D01*
X124472Y94150D01*
X124700Y94702D01*
Y95298D01*
X124472Y95850D01*
X124050Y96272D01*
X123498Y96500D01*
D02*
G37*
G36*
X102698D02*
X102102D01*
X101550Y96272D01*
X101128Y95850D01*
X100900Y95298D01*
Y94702D01*
X101128Y94150D01*
X101550Y93728D01*
X102102Y93500D01*
X102698D01*
X103250Y93728D01*
X103672Y94150D01*
X103900Y94702D01*
Y95298D01*
X103672Y95850D01*
X103250Y96272D01*
X102698Y96500D01*
D02*
G37*
G36*
X59821Y95697D02*
X58979D01*
X58166Y95479D01*
X57437Y95058D01*
X56842Y94463D01*
X56421Y93734D01*
X56203Y92921D01*
Y92079D01*
X56421Y91266D01*
X56842Y90537D01*
X57437Y89942D01*
X58166Y89521D01*
X58979Y89303D01*
X59821D01*
X60634Y89521D01*
X61363Y89942D01*
X61958Y90537D01*
X62379Y91266D01*
X62597Y92079D01*
Y92921D01*
X62379Y93734D01*
X61958Y94463D01*
X61363Y95058D01*
X60634Y95479D01*
X59821Y95697D01*
D02*
G37*
G36*
X49821D02*
X48979D01*
X48166Y95479D01*
X47437Y95058D01*
X46842Y94463D01*
X46421Y93734D01*
X46203Y92921D01*
Y92079D01*
X46421Y91266D01*
X46842Y90537D01*
X47437Y89942D01*
X48166Y89521D01*
X48979Y89303D01*
X49821D01*
X50634Y89521D01*
X51363Y89942D01*
X51958Y90537D01*
X52379Y91266D01*
X52597Y92079D01*
Y92921D01*
X52379Y93734D01*
X51958Y94463D01*
X51363Y95058D01*
X50634Y95479D01*
X49821Y95697D01*
D02*
G37*
G36*
X39821D02*
X38979D01*
X38166Y95479D01*
X37437Y95058D01*
X36842Y94463D01*
X36421Y93734D01*
X36203Y92921D01*
Y92079D01*
X36421Y91266D01*
X36842Y90537D01*
X37437Y89942D01*
X38166Y89521D01*
X38979Y89303D01*
X39821D01*
X40634Y89521D01*
X41363Y89942D01*
X41958Y90537D01*
X42379Y91266D01*
X42597Y92079D01*
Y92921D01*
X42379Y93734D01*
X41958Y94463D01*
X41363Y95058D01*
X40634Y95479D01*
X39821Y95697D01*
D02*
G37*
G36*
X103438Y89200D02*
X102762D01*
X102137Y88941D01*
X101659Y88463D01*
X101400Y87838D01*
Y87162D01*
X101659Y86537D01*
X102137Y86059D01*
X102762Y85800D01*
X103438D01*
X104063Y86059D01*
X104541Y86537D01*
X104800Y87162D01*
Y87838D01*
X104541Y88463D01*
X104063Y88941D01*
X103438Y89200D01*
D02*
G37*
G36*
X11394Y98036D02*
X9944Y97893D01*
X8551Y97470D01*
X7266Y96784D01*
X6140Y95860D01*
X5216Y94734D01*
X4530Y93449D01*
X4107Y92056D01*
X3964Y90606D01*
X4107Y89157D01*
X4530Y87763D01*
X5216Y86479D01*
X6140Y85353D01*
X7266Y84429D01*
X8551Y83742D01*
X9944Y83320D01*
X11394Y83177D01*
X12843Y83320D01*
X14237Y83742D01*
X15521Y84429D01*
X16647Y85353D01*
X17571Y86479D01*
X18258Y87763D01*
X18680Y89157D01*
X18823Y90606D01*
X18680Y92056D01*
X18258Y93449D01*
X17571Y94734D01*
X16647Y95860D01*
X15521Y96784D01*
X14237Y97470D01*
X12843Y97893D01*
X11394Y98036D01*
D02*
G37*
G36*
X75838Y84101D02*
X75162D01*
X74537Y83842D01*
X74059Y83364D01*
X73800Y82739D01*
Y82063D01*
X74059Y81438D01*
X74537Y80960D01*
X75162Y80701D01*
X75838D01*
X76463Y80960D01*
X76941Y81438D01*
X77200Y82063D01*
Y82739D01*
X76941Y83364D01*
X76463Y83842D01*
X75838Y84101D01*
D02*
G37*
G36*
X117538Y83600D02*
X116862D01*
X116237Y83341D01*
X115759Y82863D01*
X115500Y82238D01*
Y81562D01*
X115759Y80937D01*
X116237Y80459D01*
X116862Y80200D01*
X117538D01*
X118163Y80459D01*
X118641Y80937D01*
X118900Y81562D01*
Y82238D01*
X118641Y82863D01*
X118163Y83341D01*
X117538Y83600D01*
D02*
G37*
G36*
X66398Y83100D02*
X65802D01*
X65250Y82872D01*
X64828Y82450D01*
X64600Y81898D01*
Y81302D01*
X64828Y80750D01*
X65250Y80328D01*
X65802Y80100D01*
X66398D01*
X66950Y80328D01*
X67372Y80750D01*
X67600Y81302D01*
Y81898D01*
X67372Y82450D01*
X66950Y82872D01*
X66398Y83100D01*
D02*
G37*
G36*
X63598Y80600D02*
X63002D01*
X62450Y80372D01*
X62028Y79950D01*
X61800Y79398D01*
Y78802D01*
X62028Y78250D01*
X62450Y77828D01*
X63002Y77600D01*
X63598D01*
X64150Y77828D01*
X64572Y78250D01*
X64800Y78802D01*
Y79398D01*
X64572Y79950D01*
X64150Y80372D01*
X63598Y80600D01*
D02*
G37*
G36*
X24601Y80400D02*
X24005D01*
X23453Y80172D01*
X23031Y79750D01*
X22803Y79198D01*
Y78602D01*
X23031Y78050D01*
X23453Y77628D01*
X24005Y77400D01*
X24601D01*
X25153Y77628D01*
X25575Y78050D01*
X25803Y78602D01*
Y79198D01*
X25575Y79750D01*
X25153Y80172D01*
X24601Y80400D01*
D02*
G37*
G36*
X84898Y77400D02*
X84302D01*
X83750Y77172D01*
X83328Y76750D01*
X83100Y76198D01*
Y75602D01*
X83328Y75050D01*
X83750Y74628D01*
X84302Y74400D01*
X84898D01*
X85450Y74628D01*
X85872Y75050D01*
X86100Y75602D01*
Y76198D01*
X85872Y76750D01*
X85450Y77172D01*
X84898Y77400D01*
D02*
G37*
G36*
X28498Y70398D02*
X27902D01*
X27350Y70169D01*
X26928Y69747D01*
X26700Y69196D01*
Y68599D01*
X26928Y68048D01*
X27350Y67626D01*
X27902Y67398D01*
X28498D01*
X29050Y67626D01*
X29472Y68048D01*
X29700Y68599D01*
Y69196D01*
X29472Y69747D01*
X29050Y70169D01*
X28498Y70398D01*
D02*
G37*
G36*
Y67248D02*
X27902D01*
X27350Y67020D01*
X26928Y66598D01*
X26700Y66046D01*
Y65450D01*
X26928Y64898D01*
X27350Y64476D01*
X27902Y64248D01*
X28498D01*
X29050Y64476D01*
X29472Y64898D01*
X29700Y65450D01*
Y66046D01*
X29472Y66598D01*
X29050Y67020D01*
X28498Y67248D01*
D02*
G37*
G36*
X44090Y64200D02*
X43493D01*
X42942Y63972D01*
X42520Y63550D01*
X42291Y62998D01*
Y62402D01*
X42520Y61850D01*
X42942Y61428D01*
X43493Y61200D01*
X44090D01*
X44641Y61428D01*
X45063Y61850D01*
X45291Y62402D01*
Y62998D01*
X45063Y63550D01*
X44641Y63972D01*
X44090Y64200D01*
D02*
G37*
G36*
X28498Y64100D02*
X27902D01*
X27350Y63872D01*
X26928Y63450D01*
X26700Y62898D01*
Y62302D01*
X26928Y61750D01*
X27350Y61328D01*
X27902Y61100D01*
X28498D01*
X29050Y61328D01*
X29472Y61750D01*
X29700Y62302D01*
Y62898D01*
X29472Y63450D01*
X29050Y63872D01*
X28498Y64100D01*
D02*
G37*
G36*
Y60949D02*
X27902D01*
X27350Y60720D01*
X26928Y60299D01*
X26700Y59747D01*
Y59150D01*
X26928Y58599D01*
X27350Y58177D01*
X27902Y57949D01*
X28498D01*
X29050Y58177D01*
X29472Y58599D01*
X29700Y59150D01*
Y59747D01*
X29472Y60299D01*
X29050Y60720D01*
X28498Y60949D01*
D02*
G37*
G36*
X56598Y59276D02*
X56002D01*
X55450Y59047D01*
X55028Y58625D01*
X54800Y58074D01*
Y57477D01*
X55028Y56926D01*
X55450Y56504D01*
X56002Y56276D01*
X56598D01*
X57150Y56504D01*
X57572Y56926D01*
X57800Y57477D01*
Y58074D01*
X57572Y58625D01*
X57150Y59047D01*
X56598Y59276D01*
D02*
G37*
G36*
X31798Y59176D02*
X31202D01*
X30650Y58947D01*
X30228Y58525D01*
X30000Y57974D01*
Y57377D01*
X30228Y56826D01*
X30650Y56404D01*
X31202Y56176D01*
X31798D01*
X32350Y56404D01*
X32772Y56826D01*
X33000Y57377D01*
Y57974D01*
X32772Y58525D01*
X32350Y58947D01*
X31798Y59176D01*
D02*
G37*
G36*
X84298Y58847D02*
X83702D01*
X83150Y58619D01*
X82728Y58197D01*
X82500Y57646D01*
Y57049D01*
X82728Y56498D01*
X83150Y56076D01*
X83702Y55847D01*
X84298D01*
X84850Y56076D01*
X85272Y56498D01*
X85500Y57049D01*
Y57646D01*
X85272Y58197D01*
X84850Y58619D01*
X84298Y58847D01*
D02*
G37*
G36*
X91969Y58400D02*
X91373D01*
X90821Y58172D01*
X90399Y57750D01*
X90171Y57198D01*
Y56602D01*
X90399Y56050D01*
X90821Y55628D01*
X91373Y55400D01*
X91969D01*
X92520Y55628D01*
X92943Y56050D01*
X93171Y56602D01*
Y57198D01*
X92943Y57750D01*
X92520Y58172D01*
X91969Y58400D01*
D02*
G37*
G36*
X28498Y57799D02*
X27902D01*
X27350Y57571D01*
X26928Y57149D01*
X26700Y56598D01*
Y56001D01*
X26928Y55449D01*
X27350Y55028D01*
X27902Y54799D01*
X28498D01*
X29050Y55028D01*
X29472Y55449D01*
X29700Y56001D01*
Y56598D01*
X29472Y57149D01*
X29050Y57571D01*
X28498Y57799D01*
D02*
G37*
G36*
X48198Y55500D02*
X47602D01*
X47050Y55272D01*
X46628Y54850D01*
X46400Y54298D01*
Y53702D01*
X46628Y53150D01*
X47050Y52728D01*
X47602Y52500D01*
X48198D01*
X48750Y52728D01*
X49172Y53150D01*
X49400Y53702D01*
Y54298D01*
X49172Y54850D01*
X48750Y55272D01*
X48198Y55500D01*
D02*
G37*
G36*
X40298D02*
X39702D01*
X39150Y55272D01*
X38728Y54850D01*
X38500Y54298D01*
Y53702D01*
X38728Y53150D01*
X39150Y52728D01*
X39702Y52500D01*
X40298D01*
X40850Y52728D01*
X41272Y53150D01*
X41500Y53702D01*
Y54298D01*
X41272Y54850D01*
X40850Y55272D01*
X40298Y55500D01*
D02*
G37*
G36*
X28498Y54650D02*
X27902D01*
X27350Y54421D01*
X26928Y53999D01*
X26700Y53448D01*
Y52851D01*
X26928Y52300D01*
X27350Y51878D01*
X27902Y51650D01*
X28498D01*
X29050Y51878D01*
X29472Y52300D01*
X29700Y52851D01*
Y53448D01*
X29472Y53999D01*
X29050Y54421D01*
X28498Y54650D01*
D02*
G37*
G36*
X56598Y51500D02*
X56002D01*
X55450Y51272D01*
X55028Y50850D01*
X54800Y50298D01*
Y49702D01*
X55028Y49150D01*
X55450Y48728D01*
X56002Y48500D01*
X56598D01*
X57150Y48728D01*
X57572Y49150D01*
X57800Y49702D01*
Y50298D01*
X57572Y50850D01*
X57150Y51272D01*
X56598Y51500D01*
D02*
G37*
G36*
X28498D02*
X27902D01*
X27350Y51272D01*
X26928Y50850D01*
X26700Y50298D01*
Y49702D01*
X26928Y49150D01*
X27350Y48728D01*
X27902Y48500D01*
X28498D01*
X29050Y48728D01*
X29472Y49150D01*
X29700Y49702D01*
Y50298D01*
X29472Y50850D01*
X29050Y51272D01*
X28498Y51500D01*
D02*
G37*
G36*
X31798Y51400D02*
X31202D01*
X30650Y51172D01*
X30228Y50750D01*
X30000Y50198D01*
Y49602D01*
X30228Y49050D01*
X30650Y48628D01*
X31202Y48400D01*
X31798D01*
X32350Y48628D01*
X32772Y49050D01*
X33000Y49602D01*
Y50198D01*
X32772Y50750D01*
X32350Y51172D01*
X31798Y51400D01*
D02*
G37*
G36*
X28498Y48350D02*
X27902D01*
X27350Y48122D01*
X26928Y47700D01*
X26700Y47149D01*
Y46552D01*
X26928Y46001D01*
X27350Y45579D01*
X27902Y45350D01*
X28498D01*
X29050Y45579D01*
X29472Y46001D01*
X29700Y46552D01*
Y47149D01*
X29472Y47700D01*
X29050Y48122D01*
X28498Y48350D01*
D02*
G37*
G36*
X47998Y47600D02*
X47402D01*
X46850Y47372D01*
X46428Y46950D01*
X46200Y46398D01*
Y45802D01*
X46428Y45250D01*
X46850Y44828D01*
X47402Y44600D01*
X47998D01*
X48550Y44828D01*
X48972Y45250D01*
X49200Y45802D01*
Y46398D01*
X48972Y46950D01*
X48550Y47372D01*
X47998Y47600D01*
D02*
G37*
G36*
X40098D02*
X39502D01*
X38950Y47372D01*
X38528Y46950D01*
X38300Y46398D01*
Y45802D01*
X38528Y45250D01*
X38950Y44828D01*
X39502Y44600D01*
X40098D01*
X40650Y44828D01*
X41072Y45250D01*
X41300Y45802D01*
Y46398D01*
X41072Y46950D01*
X40650Y47372D01*
X40098Y47600D01*
D02*
G37*
G36*
X85298Y45700D02*
X84702D01*
X84150Y45472D01*
X83728Y45050D01*
X83500Y44498D01*
Y43902D01*
X83728Y43350D01*
X84150Y42928D01*
X84702Y42700D01*
X85298D01*
X85850Y42928D01*
X86272Y43350D01*
X86500Y43902D01*
Y44498D01*
X86272Y45050D01*
X85850Y45472D01*
X85298Y45700D01*
D02*
G37*
G36*
X28498Y45201D02*
X27902D01*
X27350Y44972D01*
X26928Y44550D01*
X26700Y43999D01*
Y43402D01*
X26928Y42851D01*
X27350Y42429D01*
X27902Y42201D01*
X28498D01*
X29050Y42429D01*
X29472Y42851D01*
X29700Y43402D01*
Y43999D01*
X29472Y44550D01*
X29050Y44972D01*
X28498Y45201D01*
D02*
G37*
G36*
X71598Y44200D02*
X71002D01*
X70450Y43972D01*
X70028Y43550D01*
X69800Y42998D01*
Y42402D01*
X70028Y41850D01*
X70450Y41428D01*
X71002Y41200D01*
X71598D01*
X72150Y41428D01*
X72572Y41850D01*
X72800Y42402D01*
Y42998D01*
X72572Y43550D01*
X72150Y43972D01*
X71598Y44200D01*
D02*
G37*
G36*
X56598Y43724D02*
X56002D01*
X55450Y43496D01*
X55028Y43074D01*
X54800Y42523D01*
Y41926D01*
X55028Y41375D01*
X55450Y40953D01*
X56002Y40724D01*
X56598D01*
X57150Y40953D01*
X57572Y41375D01*
X57800Y41926D01*
Y42523D01*
X57572Y43074D01*
X57150Y43496D01*
X56598Y43724D01*
D02*
G37*
G36*
X31798Y43624D02*
X31202D01*
X30650Y43396D01*
X30228Y42974D01*
X30000Y42423D01*
Y41826D01*
X30228Y41275D01*
X30650Y40853D01*
X31202Y40624D01*
X31798D01*
X32350Y40853D01*
X32772Y41275D01*
X33000Y41826D01*
Y42423D01*
X32772Y42974D01*
X32350Y43396D01*
X31798Y43624D01*
D02*
G37*
G36*
X28498Y42051D02*
X27902D01*
X27350Y41823D01*
X26928Y41401D01*
X26700Y40850D01*
Y40253D01*
X26928Y39702D01*
X27350Y39279D01*
X27902Y39051D01*
X28498D01*
X29050Y39279D01*
X29472Y39702D01*
X29700Y40253D01*
Y40850D01*
X29472Y41401D01*
X29050Y41823D01*
X28498Y42051D01*
D02*
G37*
G36*
X44090Y38970D02*
X43493D01*
X42942Y38742D01*
X42520Y38320D01*
X42291Y37768D01*
Y37172D01*
X42520Y36620D01*
X42942Y36198D01*
X43493Y35970D01*
X44090D01*
X44641Y36198D01*
X45063Y36620D01*
X45291Y37172D01*
Y37768D01*
X45063Y38320D01*
X44641Y38742D01*
X44090Y38970D01*
D02*
G37*
G36*
X28498Y38902D02*
X27902D01*
X27350Y38673D01*
X26928Y38251D01*
X26700Y37700D01*
Y37103D01*
X26928Y36552D01*
X27350Y36130D01*
X27902Y35902D01*
X28498D01*
X29050Y36130D01*
X29472Y36552D01*
X29700Y37103D01*
Y37700D01*
X29472Y38251D01*
X29050Y38673D01*
X28498Y38902D01*
D02*
G37*
G36*
Y35752D02*
X27902D01*
X27350Y35524D01*
X26928Y35102D01*
X26700Y34550D01*
Y33954D01*
X26928Y33402D01*
X27350Y32980D01*
X27902Y32752D01*
X28498D01*
X29050Y32980D01*
X29472Y33402D01*
X29700Y33954D01*
Y34550D01*
X29472Y35102D01*
X29050Y35524D01*
X28498Y35752D01*
D02*
G37*
G36*
Y32602D02*
X27902D01*
X27350Y32374D01*
X26928Y31952D01*
X26700Y31401D01*
Y30804D01*
X26928Y30253D01*
X27350Y29831D01*
X27902Y29602D01*
X28498D01*
X29050Y29831D01*
X29472Y30253D01*
X29700Y30804D01*
Y31401D01*
X29472Y31952D01*
X29050Y32374D01*
X28498Y32602D01*
D02*
G37*
G36*
X108198Y27200D02*
X107602D01*
X107050Y26972D01*
X106628Y26550D01*
X106400Y25998D01*
Y25402D01*
X106628Y24850D01*
X107050Y24428D01*
X107602Y24200D01*
X108198D01*
X108750Y24428D01*
X109172Y24850D01*
X109400Y25402D01*
Y25998D01*
X109172Y26550D01*
X108750Y26972D01*
X108198Y27200D01*
D02*
G37*
G36*
X98280Y22443D02*
X87320D01*
X87269Y22422D01*
X87214Y22433D01*
X86374Y22266D01*
X86327Y22235D01*
X86272D01*
X85480Y21907D01*
X85441Y21868D01*
X85387Y21857D01*
X84674Y21381D01*
X84643Y21335D01*
X84592Y21313D01*
X83986Y20707D01*
X83965Y20656D01*
X83918Y20625D01*
X83442Y19912D01*
X83431Y19858D01*
X83392Y19819D01*
X83064Y19027D01*
Y18971D01*
X83033Y18925D01*
X82866Y18085D01*
X82877Y18030D01*
X82856Y17979D01*
Y17550D01*
Y17401D01*
X82897Y17302D01*
Y17194D01*
X83011Y16918D01*
X83087Y16842D01*
X83129Y16742D01*
X83340Y16531D01*
X83440Y16489D01*
X83516Y16413D01*
X83792Y16299D01*
X83900D01*
X83999Y16258D01*
X84298D01*
X84397Y16299D01*
X84505D01*
X84781Y16413D01*
X84857Y16489D01*
X84957Y16531D01*
X85168Y16742D01*
X85210Y16842D01*
X85286Y16918D01*
X85400Y17194D01*
Y17302D01*
X85441Y17401D01*
Y17537D01*
X85452Y17763D01*
X85543Y18219D01*
X85716Y18637D01*
X85967Y19013D01*
X86286Y19332D01*
X86662Y19583D01*
X87080Y19756D01*
X87536Y19847D01*
X87762Y19858D01*
X97838D01*
X98064Y19847D01*
X98520Y19756D01*
X98938Y19583D01*
X99314Y19332D01*
X99633Y19013D01*
X99884Y18637D01*
X100057Y18219D01*
X100148Y17763D01*
X100159Y17537D01*
Y17401D01*
X100200Y17302D01*
Y17194D01*
X100314Y16918D01*
X100391Y16842D01*
X100432Y16742D01*
X100643Y16531D01*
X100743Y16489D01*
X100819Y16413D01*
X101095Y16299D01*
X101203D01*
X101302Y16258D01*
X101601D01*
X101700Y16299D01*
X101808D01*
X102084Y16413D01*
X102160Y16489D01*
X102260Y16531D01*
X102471Y16742D01*
X102513Y16842D01*
X102589Y16918D01*
X102703Y17194D01*
Y17302D01*
X102744Y17401D01*
Y17550D01*
Y17979D01*
X102723Y18030D01*
X102734Y18085D01*
X102567Y18925D01*
X102536Y18971D01*
Y19027D01*
X102208Y19819D01*
X102169Y19858D01*
X102158Y19912D01*
X101681Y20625D01*
X101635Y20656D01*
X101614Y20707D01*
X101008Y21313D01*
X100957Y21335D01*
X100926Y21381D01*
X100213Y21857D01*
X100159Y21868D01*
X100120Y21907D01*
X99328Y22235D01*
X99273D01*
X99226Y22266D01*
X98386Y22433D01*
X98331Y22422D01*
X98280Y22443D01*
D02*
G37*
G36*
X71598Y23721D02*
X71002D01*
X70450Y23493D01*
X70028Y23071D01*
X69800Y22520D01*
Y21923D01*
X70028Y21372D01*
X70450Y20950D01*
X71002Y20721D01*
X71598D01*
X72150Y20950D01*
X72572Y21372D01*
X72800Y21923D01*
Y22520D01*
X72572Y23071D01*
X72150Y23493D01*
X71598Y23721D01*
D02*
G37*
G36*
X92138Y79300D02*
X91462D01*
X90837Y79041D01*
X90359Y78563D01*
X90100Y77938D01*
Y77262D01*
X90359Y76637D01*
X90526Y76470D01*
Y71628D01*
X87272Y68375D01*
X78600D01*
X78112Y68278D01*
X77699Y68001D01*
X75099Y65401D01*
X74822Y64988D01*
X74726Y64500D01*
Y32528D01*
X65099Y22901D01*
X64823Y22488D01*
X64726Y22000D01*
Y20329D01*
X64551Y20750D01*
X64129Y21172D01*
X63578Y21400D01*
X62981D01*
X62430Y21172D01*
X62008Y20750D01*
X61779Y20198D01*
Y19602D01*
X62008Y19050D01*
X62430Y18628D01*
X62981Y18400D01*
X63578D01*
X64129Y18628D01*
X64551Y19050D01*
X64726Y19471D01*
Y15407D01*
X64593Y15274D01*
X60528D01*
X54901Y20901D01*
X54488Y21178D01*
X54000Y21274D01*
X51130D01*
X50963Y21441D01*
X50338Y21700D01*
X49662D01*
X49037Y21441D01*
X48559Y20963D01*
X48300Y20338D01*
Y19662D01*
X48559Y19037D01*
X49037Y18559D01*
X49662Y18300D01*
X50338D01*
X50963Y18559D01*
X51130Y18725D01*
X53472D01*
X59099Y13099D01*
X59512Y12822D01*
X60000Y12725D01*
X65121D01*
X65609Y12822D01*
X66022Y13099D01*
X66901Y13977D01*
X67177Y14391D01*
X67274Y14879D01*
Y21472D01*
X76901Y31099D01*
X77178Y31512D01*
X77275Y32000D01*
Y63972D01*
X79128Y65825D01*
X87800D01*
X88288Y65922D01*
X88701Y66199D01*
X92701Y70199D01*
X92977Y70612D01*
X93075Y71100D01*
Y76470D01*
X93241Y76637D01*
X93500Y77262D01*
Y77938D01*
X93241Y78563D01*
X92763Y79041D01*
X92138Y79300D01*
D02*
G37*
G36*
X111798Y23200D02*
X111202D01*
X110650Y22972D01*
X110228Y22550D01*
X110000Y21998D01*
Y21402D01*
X110228Y20850D01*
X110650Y20428D01*
X111202Y20200D01*
X111798D01*
X112350Y20428D01*
X112772Y20850D01*
X113000Y21402D01*
Y21998D01*
X112772Y22550D01*
X112350Y22972D01*
X111798Y23200D01*
D02*
G37*
G36*
X31498Y20500D02*
X30902D01*
X30350Y20272D01*
X29928Y19850D01*
X29700Y19298D01*
Y18702D01*
X29928Y18150D01*
X30350Y17728D01*
X30902Y17500D01*
X31498D01*
X32050Y17728D01*
X32472Y18150D01*
X32700Y18702D01*
Y19298D01*
X32472Y19850D01*
X32050Y20272D01*
X31498Y20500D01*
D02*
G37*
G36*
X28352Y20400D02*
X27755D01*
X27204Y20172D01*
X26782Y19750D01*
X26554Y19198D01*
Y18602D01*
X26782Y18050D01*
X27204Y17628D01*
X27755Y17400D01*
X28352D01*
X28903Y17628D01*
X29325Y18050D01*
X29554Y18602D01*
Y19198D01*
X29325Y19750D01*
X28903Y20172D01*
X28352Y20400D01*
D02*
G37*
G36*
X24598D02*
X24002D01*
X23450Y20172D01*
X23028Y19750D01*
X22800Y19198D01*
Y18602D01*
X23028Y18050D01*
X23450Y17628D01*
X24002Y17400D01*
X24598D01*
X25150Y17628D01*
X25572Y18050D01*
X25800Y18602D01*
Y19198D01*
X25572Y19750D01*
X25150Y20172D01*
X24598Y20400D01*
D02*
G37*
G36*
X80298Y20362D02*
X79702D01*
X79150Y20134D01*
X78728Y19712D01*
X78500Y19161D01*
Y18564D01*
X78728Y18013D01*
X79150Y17591D01*
X79702Y17362D01*
X80298D01*
X80850Y17591D01*
X81272Y18013D01*
X81500Y18564D01*
Y19161D01*
X81272Y19712D01*
X80850Y20134D01*
X80298Y20362D01*
D02*
G37*
G36*
X24638Y15200D02*
X24042D01*
X23490Y14972D01*
X23068Y14550D01*
X22840Y13998D01*
Y13402D01*
X23068Y12850D01*
X23490Y12428D01*
X24042Y12200D01*
X24638D01*
X25190Y12428D01*
X25612Y12850D01*
X25840Y13402D01*
Y13998D01*
X25612Y14550D01*
X25190Y14972D01*
X24638Y15200D01*
D02*
G37*
G36*
X101601Y10443D02*
X101302D01*
X101202Y10402D01*
X101095D01*
X100819Y10288D01*
X100743Y10211D01*
X100643Y10170D01*
X100432Y9959D01*
X100391Y9859D01*
X100314Y9783D01*
X100200Y9507D01*
Y9399D01*
X100159Y9300D01*
Y9164D01*
X100148Y8938D01*
X100057Y8482D01*
X99884Y8064D01*
X99633Y7688D01*
X99313Y7369D01*
X98938Y7118D01*
X98520Y6945D01*
X98064Y6854D01*
X97838Y6843D01*
X87762D01*
X87536Y6854D01*
X87080Y6945D01*
X86662Y7118D01*
X86286Y7369D01*
X85967Y7688D01*
X85716Y8064D01*
X85543Y8482D01*
X85452Y8938D01*
X85441Y9164D01*
Y9300D01*
X85400Y9399D01*
Y9507D01*
X85286Y9783D01*
X85210Y9859D01*
X85168Y9959D01*
X84957Y10170D01*
X84857Y10211D01*
X84781Y10288D01*
X84505Y10402D01*
X84397D01*
X84298Y10443D01*
X83999D01*
X83899Y10402D01*
X83792D01*
X83516Y10288D01*
X83440Y10211D01*
X83340Y10170D01*
X83129Y9959D01*
X83087Y9859D01*
X83011Y9783D01*
X82897Y9507D01*
Y9399D01*
X82856Y9300D01*
Y9150D01*
Y8722D01*
X82877Y8671D01*
X82866Y8616D01*
X83033Y7776D01*
X83064Y7730D01*
Y7674D01*
X83392Y6882D01*
X83431Y6843D01*
X83442Y6789D01*
X83918Y6076D01*
X83965Y6045D01*
X83986Y5994D01*
X84592Y5388D01*
X84643Y5367D01*
X84674Y5320D01*
X85387Y4844D01*
X85441Y4834D01*
X85480Y4794D01*
X86272Y4466D01*
X86327D01*
X86374Y4435D01*
X87214Y4268D01*
X87269Y4279D01*
X87320Y4258D01*
X98280D01*
X98331Y4279D01*
X98386Y4268D01*
X99226Y4435D01*
X99273Y4466D01*
X99328D01*
X100120Y4794D01*
X100159Y4834D01*
X100213Y4844D01*
X100926Y5320D01*
X100957Y5367D01*
X101008Y5388D01*
X101614Y5994D01*
X101635Y6045D01*
X101681Y6076D01*
X102158Y6789D01*
X102169Y6843D01*
X102208Y6882D01*
X102536Y7674D01*
Y7730D01*
X102567Y7776D01*
X102734Y8616D01*
X102723Y8671D01*
X102744Y8722D01*
Y9150D01*
Y9300D01*
X102703Y9399D01*
Y9507D01*
X102589Y9783D01*
X102513Y9859D01*
X102471Y9959D01*
X102260Y10170D01*
X102160Y10211D01*
X102084Y10288D01*
X101808Y10402D01*
X101700D01*
X101601Y10443D01*
D02*
G37*
G36*
X24698Y9500D02*
X24102D01*
X23550Y9272D01*
X23128Y8850D01*
X22900Y8298D01*
Y7702D01*
X23128Y7150D01*
X23550Y6728D01*
X24102Y6500D01*
X24698D01*
X25250Y6728D01*
X25672Y7150D01*
X25900Y7702D01*
Y8298D01*
X25672Y8850D01*
X25250Y9272D01*
X24698Y9500D01*
D02*
G37*
G36*
X53101Y5600D02*
X52505D01*
X51954Y5372D01*
X51531Y4950D01*
X51303Y4398D01*
Y3802D01*
X51531Y3250D01*
X51954Y2828D01*
X52505Y2600D01*
X53101D01*
X53653Y2828D01*
X54075Y3250D01*
X54303Y3802D01*
Y4398D01*
X54075Y4950D01*
X53653Y5372D01*
X53101Y5600D01*
D02*
G37*
G36*
X44494D02*
X43897D01*
X43346Y5372D01*
X42924Y4950D01*
X42695Y4398D01*
Y3802D01*
X42924Y3250D01*
X43346Y2828D01*
X43897Y2600D01*
X44494D01*
X45045Y2828D01*
X45467Y3250D01*
X45695Y3802D01*
Y4398D01*
X45467Y4950D01*
X45045Y5372D01*
X44494Y5600D01*
D02*
G37*
G36*
X30698D02*
X30102D01*
X29550Y5372D01*
X29128Y4950D01*
X28900Y4398D01*
Y3802D01*
X29128Y3250D01*
X29550Y2828D01*
X30102Y2600D01*
X30698D01*
X31250Y2828D01*
X31672Y3250D01*
X31900Y3802D01*
Y4398D01*
X31672Y4950D01*
X31250Y5372D01*
X30698Y5600D01*
D02*
G37*
G36*
X108298Y5500D02*
X107702D01*
X107150Y5272D01*
X106728Y4850D01*
X106500Y4298D01*
Y3702D01*
X106728Y3150D01*
X107150Y2728D01*
X107702Y2500D01*
X108298D01*
X108850Y2728D01*
X109272Y3150D01*
X109500Y3702D01*
Y4298D01*
X109272Y4850D01*
X108850Y5272D01*
X108298Y5500D01*
D02*
G37*
G36*
X80298D02*
X79702D01*
X79150Y5272D01*
X78728Y4850D01*
X78500Y4298D01*
Y3702D01*
X78728Y3150D01*
X79150Y2728D01*
X79702Y2500D01*
X80298D01*
X80850Y2728D01*
X81272Y3150D01*
X81500Y3702D01*
Y4298D01*
X81272Y4850D01*
X80850Y5272D01*
X80298Y5500D01*
D02*
G37*
G36*
X66698D02*
X66102D01*
X65550Y5272D01*
X65128Y4850D01*
X64900Y4298D01*
Y3702D01*
X65128Y3150D01*
X65550Y2728D01*
X66102Y2500D01*
X66698D01*
X67250Y2728D01*
X67672Y3150D01*
X67900Y3702D01*
Y4298D01*
X67672Y4850D01*
X67250Y5272D01*
X66698Y5500D01*
D02*
G37*
G36*
X11394Y16829D02*
X9944Y16687D01*
X8551Y16264D01*
X7266Y15577D01*
X6140Y14653D01*
X5216Y13528D01*
X4530Y12243D01*
X4107Y10849D01*
X3964Y9400D01*
X4107Y7951D01*
X4530Y6557D01*
X5216Y5272D01*
X6140Y4147D01*
X7266Y3223D01*
X8551Y2536D01*
X9944Y2113D01*
X11394Y1970D01*
X12843Y2113D01*
X14237Y2536D01*
X15521Y3223D01*
X16647Y4147D01*
X17571Y5272D01*
X18258Y6557D01*
X18680Y7951D01*
X18823Y9400D01*
X18680Y10849D01*
X18258Y12243D01*
X17571Y13528D01*
X16647Y14653D01*
X15521Y15577D01*
X14237Y16264D01*
X12843Y16687D01*
X11394Y16829D01*
D02*
G37*
%LPD*%
D72*
X189500Y37008D02*
D03*
Y62992D02*
D03*
D75*
X121300Y13392D02*
D03*
D76*
X131300D02*
D03*
D80*
X54000Y20000D02*
X60000Y14000D01*
X50000Y20000D02*
X54000D01*
X78600Y67100D02*
X87800D01*
X65121Y14000D02*
X66000Y14879D01*
X60000Y14000D02*
X65121D01*
X66000Y14879D02*
Y22000D01*
X76000Y32000D01*
Y64500D02*
X78600Y67100D01*
X76000Y32000D02*
Y64500D01*
X91800Y71100D02*
Y77600D01*
X87800Y67100D02*
X91800Y71100D01*
D82*
X123300Y16600D02*
Y43100D01*
X97300Y51900D02*
X114500D01*
X123300Y43100D01*
X140200Y66496D02*
X162896D01*
X166069Y69669D01*
Y72911D01*
X166164Y73007D01*
D88*
X187295Y31850D02*
D03*
Y68150D02*
D03*
D89*
X205012Y31850D02*
D03*
Y68150D02*
D03*
D90*
X29400Y92500D02*
D03*
D91*
X39400D02*
D03*
X49400D02*
D03*
X59400D02*
D03*
D92*
X85000Y44200D02*
D03*
X101800Y47700D02*
D03*
X92700Y40600D02*
D03*
X102400Y95000D02*
D03*
X130000Y56800D02*
D03*
X150000Y5000D02*
D03*
X175000Y95000D02*
D03*
X190000D02*
D03*
Y84400D02*
D03*
X135000Y95000D02*
D03*
X190000Y5000D02*
D03*
X155000Y95000D02*
D03*
X190000Y15300D02*
D03*
X80000Y4000D02*
D03*
X170000Y5000D02*
D03*
X66100Y81600D02*
D03*
X52803Y4100D02*
D03*
X44195D02*
D03*
X80000Y18862D02*
D03*
X84000Y57347D02*
D03*
X123200Y95000D02*
D03*
X108000Y4000D02*
D03*
X66400D02*
D03*
X30400Y4100D02*
D03*
X31500Y42124D02*
D03*
Y49900D02*
D03*
Y57676D02*
D03*
X43791Y37470D02*
D03*
X28200Y34252D02*
D03*
Y37402D02*
D03*
X43791Y62700D02*
D03*
X56300Y42224D02*
D03*
Y50000D02*
D03*
Y57776D02*
D03*
X47700Y46100D02*
D03*
X47900Y54000D02*
D03*
X39800Y46100D02*
D03*
X40000Y54000D02*
D03*
X80189Y57347D02*
D03*
X71300Y42700D02*
D03*
X91671Y56900D02*
D03*
X84600Y75900D02*
D03*
X109100Y37200D02*
D03*
X110600Y29500D02*
D03*
X111500Y21700D02*
D03*
X130500Y27300D02*
D03*
X63279Y19900D02*
D03*
X128024Y73862D02*
D03*
X129500Y69800D02*
D03*
Y65900D02*
D03*
X129600Y47600D02*
D03*
X108000Y8000D02*
D03*
X115650Y63000D02*
D03*
Y58000D02*
D03*
X119800D02*
D03*
X111500D02*
D03*
Y63000D02*
D03*
X119800Y62900D02*
D03*
X107900Y25700D02*
D03*
X76200Y18862D02*
D03*
X66500Y7839D02*
D03*
X34343Y4100D02*
D03*
X24400Y8000D02*
D03*
X24340Y13700D02*
D03*
X63300Y79100D02*
D03*
X71300Y22221D02*
D03*
X28200Y53150D02*
D03*
Y46850D02*
D03*
Y31102D02*
D03*
X24303Y78900D02*
D03*
X28200Y68898D02*
D03*
Y65748D02*
D03*
Y62600D02*
D03*
Y59449D02*
D03*
Y56299D02*
D03*
Y50000D02*
D03*
Y43701D02*
D03*
Y40551D02*
D03*
X24300Y18900D02*
D03*
X28054D02*
D03*
X31200Y19000D02*
D03*
D93*
X175200Y37500D02*
D03*
X123400Y90600D02*
D03*
X50000Y20000D02*
D03*
X103100Y87500D02*
D03*
X91800Y77600D02*
D03*
X75500Y82401D02*
D03*
X97300Y51900D02*
D03*
X159800Y54100D02*
D03*
X142000Y58100D02*
D03*
X137400Y54300D02*
D03*
X140200Y66496D02*
D03*
X166164Y73007D02*
D03*
X177700Y15500D02*
D03*
X117200Y81900D02*
D03*
X145800Y87500D02*
D03*
X175300Y84600D02*
D03*
X166000Y41900D02*
D03*
X175400Y49900D02*
D03*
X112700Y81900D02*
D03*
D101*
X80189Y36000D02*
Y59289D01*
X83100Y62200D02*
X93400D01*
X80189Y59289D02*
X83100Y62200D01*
X109300Y78100D02*
X112700Y81500D01*
X93400Y62200D02*
X109300Y78100D01*
X76200Y18862D02*
Y24200D01*
Y9596D02*
Y18862D01*
X112700Y81500D02*
Y81900D01*
X109100Y78300D02*
X112700Y81900D01*
X89600Y88200D02*
X99500Y78300D01*
X109100D01*
X112700Y88700D02*
X114600Y90600D01*
X112700Y81900D02*
Y88700D01*
X114600Y90600D02*
X123400D01*
X34200Y81600D02*
X57500D01*
X64100Y88200D02*
X89600D01*
X57500Y81600D02*
X64100Y88200D01*
X29400Y86400D02*
Y92500D01*
Y86400D02*
X34200Y81600D01*
X80189Y28189D02*
Y36000D01*
X76200Y24200D02*
X80189Y28189D01*
X34343Y4100D02*
Y9143D01*
X86189Y30000D02*
X98000D01*
X80189Y36000D02*
X86189Y30000D01*
X98000D02*
X108000Y20000D01*
Y8000D02*
Y20000D01*
X74443Y7839D02*
X76200Y9596D01*
X66500Y7839D02*
X74443D01*
X59961D02*
X66500D01*
X39100Y13900D02*
X53900D01*
X59961Y7839D01*
X34343Y9143D02*
X39100Y13900D01*
D102*
X159700Y54200D02*
X159800Y54100D01*
X137400Y54300D02*
X137500Y54200D01*
X159700D01*
M02*
