G04*
G04 #@! TF.GenerationSoftware,Altium Limited,Altium Designer,23.0.1 (38)*
G04*
G04 Layer_Color=65535*
%FSLAX25Y25*%
%MOIN*%
G70*
G04*
G04 #@! TF.SameCoordinates,F61D067F-344E-4115-8181-82DC4058F137*
G04*
G04*
G04 #@! TF.FilePolarity,Positive*
G04*
G01*
G75*
%ADD10C,0.00394*%
%ADD11C,0.00800*%
%ADD12C,0.00984*%
%ADD13C,0.00787*%
G36*
X21332Y82634D02*
Y82626D01*
Y82608D01*
Y82578D01*
X21329Y82536D01*
Y82487D01*
X21325Y82431D01*
X21321Y82367D01*
X21317Y82300D01*
X21310Y82229D01*
X21299Y82154D01*
X21276Y82000D01*
X21246Y81850D01*
X21224Y81779D01*
X21201Y81711D01*
Y81708D01*
X21194Y81696D01*
X21186Y81678D01*
X21175Y81655D01*
X21160Y81625D01*
X21141Y81591D01*
X21119Y81554D01*
X21092Y81512D01*
X21062Y81471D01*
X21029Y81426D01*
X20988Y81381D01*
X20946Y81332D01*
X20898Y81287D01*
X20845Y81243D01*
X20789Y81198D01*
X20725Y81156D01*
X20721Y81152D01*
X20710Y81149D01*
X20691Y81138D01*
X20665Y81122D01*
X20628Y81107D01*
X20586Y81089D01*
X20541Y81070D01*
X20485Y81051D01*
X20425Y81033D01*
X20358Y81014D01*
X20282Y80995D01*
X20204Y80980D01*
X20118Y80965D01*
X20028Y80954D01*
X19930Y80950D01*
X19829Y80946D01*
X19776D01*
X19739Y80950D01*
X19694Y80954D01*
X19641Y80958D01*
X19581Y80961D01*
X19518Y80969D01*
X19446Y80980D01*
X19375Y80991D01*
X19229Y81025D01*
X19154Y81044D01*
X19083Y81070D01*
X19011Y81096D01*
X18944Y81130D01*
X18940Y81134D01*
X18929Y81138D01*
X18910Y81149D01*
X18888Y81164D01*
X18861Y81182D01*
X18827Y81209D01*
X18794Y81235D01*
X18756Y81269D01*
X18715Y81302D01*
X18674Y81344D01*
X18632Y81389D01*
X18595Y81437D01*
X18557Y81490D01*
X18520Y81546D01*
X18486Y81606D01*
X18456Y81670D01*
Y81674D01*
X18449Y81685D01*
X18441Y81708D01*
X18434Y81734D01*
X18422Y81771D01*
X18411Y81813D01*
X18396Y81865D01*
X18385Y81921D01*
X18370Y81989D01*
X18355Y82060D01*
X18344Y82139D01*
X18332Y82225D01*
X18325Y82319D01*
X18317Y82416D01*
X18310Y82521D01*
Y82634D01*
Y84854D01*
X18820D01*
Y82634D01*
Y82630D01*
Y82611D01*
Y82585D01*
Y82551D01*
X18824Y82510D01*
Y82465D01*
X18827Y82412D01*
X18831Y82356D01*
X18843Y82232D01*
X18857Y82112D01*
X18869Y82052D01*
X18880Y81996D01*
X18895Y81944D01*
X18910Y81895D01*
Y81891D01*
X18914Y81884D01*
X18921Y81872D01*
X18929Y81858D01*
X18951Y81813D01*
X18985Y81760D01*
X19030Y81704D01*
X19083Y81644D01*
X19150Y81584D01*
X19229Y81531D01*
X19232D01*
X19240Y81528D01*
X19251Y81520D01*
X19270Y81512D01*
X19293Y81501D01*
X19319Y81490D01*
X19349Y81479D01*
X19383Y81467D01*
X19424Y81456D01*
X19465Y81445D01*
X19559Y81423D01*
X19668Y81407D01*
X19784Y81404D01*
X19836D01*
X19874Y81407D01*
X19922Y81411D01*
X19975Y81419D01*
X20031Y81426D01*
X20095Y81434D01*
X20226Y81464D01*
X20290Y81486D01*
X20358Y81509D01*
X20421Y81539D01*
X20481Y81573D01*
X20534Y81610D01*
X20583Y81655D01*
X20586Y81659D01*
X20594Y81666D01*
X20605Y81685D01*
X20620Y81708D01*
X20639Y81738D01*
X20658Y81775D01*
X20680Y81820D01*
X20703Y81872D01*
X20725Y81936D01*
X20748Y82007D01*
X20766Y82086D01*
X20785Y82176D01*
X20800Y82274D01*
X20811Y82383D01*
X20819Y82503D01*
X20822Y82634D01*
Y84854D01*
X21332D01*
Y82634D01*
D02*
G37*
G36*
X23972Y82360D02*
X24490D01*
Y81929D01*
X23972D01*
Y81010D01*
X23500D01*
Y81929D01*
X21831D01*
Y82360D01*
X23586Y84854D01*
X23972D01*
Y82360D01*
D02*
G37*
G36*
X199525Y20585D02*
X198425D01*
X197405Y24415D01*
X196390Y20585D01*
X195260D01*
X194045Y25710D01*
X195105D01*
X195875Y22185D01*
X196810Y25710D01*
X198040D01*
X198940Y22130D01*
X199725Y25710D01*
X200770D01*
X199525Y20585D01*
D02*
G37*
G36*
X208455Y25705D02*
X208535D01*
X208620Y25700D01*
X208710Y25695D01*
X208905Y25675D01*
X209105Y25650D01*
X209200Y25635D01*
X209290Y25615D01*
X209370Y25595D01*
X209445Y25570D01*
X209450D01*
X209460Y25565D01*
X209480Y25555D01*
X209505Y25545D01*
X209540Y25525D01*
X209575Y25505D01*
X209660Y25455D01*
X209755Y25390D01*
X209855Y25300D01*
X209955Y25200D01*
X210000Y25140D01*
X210045Y25075D01*
X210050Y25070D01*
X210055Y25060D01*
X210065Y25040D01*
X210080Y25015D01*
X210095Y24980D01*
X210115Y24940D01*
X210135Y24895D01*
X210160Y24845D01*
X210180Y24785D01*
X210200Y24725D01*
X210235Y24590D01*
X210260Y24435D01*
X210270Y24355D01*
Y24270D01*
Y24265D01*
Y24245D01*
Y24215D01*
X210265Y24175D01*
X210260Y24125D01*
X210250Y24070D01*
X210240Y24005D01*
X210230Y23935D01*
X210185Y23785D01*
X210160Y23705D01*
X210125Y23625D01*
X210090Y23545D01*
X210040Y23470D01*
X209990Y23395D01*
X209930Y23320D01*
X209925Y23315D01*
X209915Y23305D01*
X209895Y23285D01*
X209865Y23260D01*
X209830Y23230D01*
X209785Y23195D01*
X209735Y23160D01*
X209675Y23120D01*
X209610Y23080D01*
X209535Y23040D01*
X209450Y23000D01*
X209360Y22960D01*
X209260Y22925D01*
X209155Y22895D01*
X209040Y22865D01*
X208915Y22845D01*
X208920D01*
X208930Y22835D01*
X208945Y22825D01*
X208970Y22810D01*
X209000Y22795D01*
X209030Y22770D01*
X209110Y22720D01*
X209195Y22655D01*
X209290Y22580D01*
X209380Y22500D01*
X209465Y22415D01*
X209470Y22410D01*
X209475Y22405D01*
X209490Y22390D01*
X209505Y22370D01*
X209525Y22340D01*
X209555Y22310D01*
X209585Y22270D01*
X209620Y22225D01*
X209660Y22170D01*
X209705Y22110D01*
X209755Y22040D01*
X209805Y21965D01*
X209865Y21885D01*
X209925Y21790D01*
X209990Y21695D01*
X210055Y21585D01*
X210685Y20585D01*
X209445D01*
X208700Y21700D01*
X208695Y21705D01*
X208685Y21725D01*
X208660Y21755D01*
X208635Y21795D01*
X208605Y21845D01*
X208565Y21895D01*
X208480Y22015D01*
X208390Y22145D01*
X208300Y22270D01*
X208260Y22325D01*
X208220Y22375D01*
X208185Y22415D01*
X208155Y22450D01*
X208150Y22455D01*
X208130Y22475D01*
X208100Y22500D01*
X208060Y22535D01*
X208015Y22570D01*
X207965Y22605D01*
X207905Y22640D01*
X207845Y22665D01*
X207835Y22670D01*
X207815Y22675D01*
X207775Y22685D01*
X207720Y22695D01*
X207645Y22705D01*
X207555Y22715D01*
X207445Y22725D01*
X207115D01*
Y20585D01*
X206080D01*
Y25710D01*
X208390D01*
X208455Y25705D01*
D02*
G37*
G36*
X205100Y24845D02*
X202340D01*
Y23710D01*
X204910D01*
Y22845D01*
X202340D01*
Y21450D01*
X205200D01*
Y20585D01*
X201305D01*
Y25710D01*
X205100D01*
Y24845D01*
D02*
G37*
G36*
X186170Y25705D02*
X186265D01*
X186365Y25700D01*
X186570Y25690D01*
X186675Y25685D01*
X186775Y25675D01*
X186865Y25665D01*
X186950Y25655D01*
X187025Y25645D01*
X187085Y25630D01*
X187090D01*
X187105Y25625D01*
X187130Y25615D01*
X187160Y25605D01*
X187195Y25590D01*
X187240Y25575D01*
X187290Y25550D01*
X187340Y25525D01*
X187460Y25460D01*
X187520Y25415D01*
X187580Y25370D01*
X187645Y25320D01*
X187705Y25260D01*
X187765Y25200D01*
X187820Y25130D01*
X187825Y25125D01*
X187835Y25110D01*
X187850Y25090D01*
X187865Y25060D01*
X187890Y25020D01*
X187915Y24975D01*
X187940Y24920D01*
X187970Y24860D01*
X188000Y24790D01*
X188025Y24715D01*
X188050Y24635D01*
X188075Y24545D01*
X188090Y24450D01*
X188105Y24350D01*
X188115Y24245D01*
X188120Y24130D01*
Y24125D01*
Y24110D01*
Y24085D01*
X188115Y24050D01*
Y24010D01*
X188110Y23965D01*
X188105Y23910D01*
X188100Y23855D01*
X188075Y23730D01*
X188045Y23595D01*
X188005Y23465D01*
X187945Y23335D01*
Y23330D01*
X187935Y23320D01*
X187930Y23305D01*
X187915Y23280D01*
X187875Y23225D01*
X187825Y23150D01*
X187765Y23070D01*
X187690Y22985D01*
X187605Y22905D01*
X187510Y22830D01*
X187505D01*
X187500Y22820D01*
X187485Y22815D01*
X187465Y22800D01*
X187415Y22770D01*
X187345Y22735D01*
X187265Y22690D01*
X187175Y22655D01*
X187075Y22620D01*
X186975Y22590D01*
X186970D01*
X186960Y22585D01*
X186935D01*
X186905Y22580D01*
X186870Y22575D01*
X186820Y22570D01*
X186765Y22560D01*
X186705Y22555D01*
X186630Y22550D01*
X186550Y22540D01*
X186465Y22535D01*
X186370Y22530D01*
X186265Y22525D01*
X186150D01*
X186035Y22520D01*
X185235D01*
Y20585D01*
X184200D01*
Y25710D01*
X186085D01*
X186170Y25705D01*
D02*
G37*
G36*
X191315Y25795D02*
X191350D01*
X191425Y25790D01*
X191525Y25780D01*
X191635Y25765D01*
X191755Y25740D01*
X191890Y25710D01*
X192030Y25675D01*
X192180Y25630D01*
X192330Y25570D01*
X192480Y25505D01*
X192630Y25420D01*
X192775Y25330D01*
X192920Y25220D01*
X193050Y25095D01*
X193060Y25085D01*
X193080Y25060D01*
X193115Y25020D01*
X193155Y24965D01*
X193210Y24895D01*
X193265Y24805D01*
X193330Y24705D01*
X193395Y24585D01*
X193455Y24455D01*
X193520Y24310D01*
X193575Y24145D01*
X193630Y23975D01*
X193670Y23785D01*
X193705Y23585D01*
X193725Y23370D01*
X193735Y23140D01*
Y23135D01*
Y23125D01*
Y23110D01*
Y23085D01*
Y23055D01*
X193730Y23020D01*
Y22980D01*
X193725Y22935D01*
X193715Y22830D01*
X193700Y22710D01*
X193680Y22575D01*
X193650Y22435D01*
X193615Y22280D01*
X193570Y22120D01*
X193515Y21960D01*
X193450Y21800D01*
X193370Y21640D01*
X193280Y21485D01*
X193175Y21335D01*
X193055Y21200D01*
X193045Y21190D01*
X193025Y21170D01*
X192985Y21135D01*
X192930Y21090D01*
X192865Y21040D01*
X192780Y20980D01*
X192685Y20915D01*
X192575Y20850D01*
X192455Y20785D01*
X192320Y20720D01*
X192170Y20665D01*
X192010Y20610D01*
X191835Y20565D01*
X191650Y20530D01*
X191455Y20510D01*
X191250Y20500D01*
X191200D01*
X191175Y20505D01*
X191140D01*
X191060Y20510D01*
X190965Y20520D01*
X190855Y20535D01*
X190730Y20560D01*
X190595Y20585D01*
X190455Y20625D01*
X190305Y20670D01*
X190155Y20725D01*
X190005Y20795D01*
X189855Y20875D01*
X189705Y20965D01*
X189565Y21075D01*
X189435Y21195D01*
X189430Y21205D01*
X189405Y21225D01*
X189375Y21265D01*
X189330Y21325D01*
X189280Y21395D01*
X189220Y21480D01*
X189160Y21580D01*
X189100Y21695D01*
X189035Y21825D01*
X188975Y21970D01*
X188915Y22125D01*
X188865Y22300D01*
X188820Y22485D01*
X188790Y22680D01*
X188770Y22890D01*
X188760Y23115D01*
Y23125D01*
Y23150D01*
Y23190D01*
X188765Y23245D01*
Y23315D01*
X188770Y23390D01*
X188780Y23480D01*
X188790Y23575D01*
X188800Y23675D01*
X188815Y23780D01*
X188855Y24000D01*
X188915Y24220D01*
X188950Y24330D01*
X188990Y24430D01*
Y24435D01*
X189000Y24450D01*
X189010Y24470D01*
X189020Y24495D01*
X189040Y24530D01*
X189060Y24570D01*
X189085Y24615D01*
X189115Y24665D01*
X189185Y24770D01*
X189265Y24890D01*
X189360Y25010D01*
X189465Y25130D01*
X189470Y25135D01*
X189480Y25145D01*
X189495Y25160D01*
X189520Y25180D01*
X189545Y25210D01*
X189580Y25240D01*
X189665Y25305D01*
X189760Y25380D01*
X189875Y25460D01*
X190000Y25530D01*
X190130Y25595D01*
X190135D01*
X190150Y25605D01*
X190180Y25615D01*
X190215Y25625D01*
X190260Y25645D01*
X190315Y25660D01*
X190380Y25680D01*
X190450Y25700D01*
X190525Y25715D01*
X190610Y25735D01*
X190705Y25755D01*
X190800Y25770D01*
X190905Y25780D01*
X191010Y25790D01*
X191240Y25800D01*
X191290D01*
X191315Y25795D01*
D02*
G37*
G36*
X31587Y86060D02*
X31607D01*
X31628Y86058D01*
X31653Y86055D01*
X31680Y86053D01*
X31740Y86040D01*
X31802Y86025D01*
X31870Y86002D01*
X31938Y85972D01*
X31940D01*
X31945Y85967D01*
X31955Y85962D01*
X31967Y85955D01*
X31982Y85948D01*
X31997Y85935D01*
X32037Y85908D01*
X32083Y85873D01*
X32127Y85830D01*
X32170Y85780D01*
X32208Y85725D01*
Y85723D01*
X32212Y85717D01*
X32217Y85710D01*
X32223Y85698D01*
X32230Y85685D01*
X32237Y85668D01*
X32255Y85625D01*
X32272Y85577D01*
X32287Y85520D01*
X32298Y85460D01*
X32302Y85395D01*
Y85392D01*
Y85387D01*
Y85380D01*
X32300Y85368D01*
Y85352D01*
X32298Y85335D01*
X32293Y85295D01*
X32280Y85247D01*
X32265Y85198D01*
X32243Y85145D01*
X32212Y85093D01*
Y85090D01*
X32208Y85088D01*
X32203Y85080D01*
X32195Y85070D01*
X32175Y85045D01*
X32145Y85015D01*
X32107Y84980D01*
X32063Y84945D01*
X32010Y84910D01*
X31947Y84878D01*
X31950D01*
X31958Y84875D01*
X31970Y84873D01*
X31985Y84868D01*
X32005Y84860D01*
X32025Y84852D01*
X32078Y84830D01*
X32133Y84803D01*
X32193Y84763D01*
X32250Y84718D01*
X32275Y84690D01*
X32300Y84660D01*
X32302Y84658D01*
X32305Y84653D01*
X32313Y84642D01*
X32320Y84630D01*
X32330Y84615D01*
X32340Y84595D01*
X32353Y84572D01*
X32365Y84548D01*
X32375Y84518D01*
X32388Y84487D01*
X32397Y84452D01*
X32408Y84417D01*
X32423Y84338D01*
X32425Y84293D01*
X32427Y84247D01*
Y84245D01*
Y84232D01*
X32425Y84215D01*
Y84193D01*
X32420Y84162D01*
X32415Y84130D01*
X32408Y84092D01*
X32397Y84050D01*
X32385Y84008D01*
X32368Y83963D01*
X32348Y83915D01*
X32325Y83868D01*
X32295Y83820D01*
X32263Y83770D01*
X32225Y83725D01*
X32182Y83680D01*
X32180Y83678D01*
X32173Y83670D01*
X32157Y83657D01*
X32138Y83645D01*
X32115Y83625D01*
X32085Y83608D01*
X32052Y83585D01*
X32013Y83565D01*
X31970Y83543D01*
X31923Y83520D01*
X31872Y83503D01*
X31817Y83485D01*
X31760Y83470D01*
X31697Y83457D01*
X31633Y83450D01*
X31563Y83447D01*
X31547D01*
X31530Y83450D01*
X31508D01*
X31477Y83452D01*
X31445Y83457D01*
X31407Y83465D01*
X31365Y83473D01*
X31323Y83482D01*
X31277Y83498D01*
X31230Y83513D01*
X31185Y83533D01*
X31137Y83555D01*
X31090Y83583D01*
X31045Y83613D01*
X31003Y83648D01*
X31000Y83650D01*
X30992Y83657D01*
X30983Y83667D01*
X30968Y83685D01*
X30950Y83705D01*
X30930Y83728D01*
X30910Y83755D01*
X30887Y83788D01*
X30865Y83823D01*
X30843Y83863D01*
X30823Y83905D01*
X30803Y83952D01*
X30785Y84003D01*
X30770Y84055D01*
X30757Y84110D01*
X30750Y84170D01*
X31065Y84212D01*
Y84210D01*
X31067Y84200D01*
X31070Y84188D01*
X31075Y84167D01*
X31080Y84148D01*
X31087Y84120D01*
X31097Y84092D01*
X31108Y84062D01*
X31133Y84000D01*
X31165Y83935D01*
X31203Y83875D01*
X31225Y83850D01*
X31247Y83825D01*
X31250D01*
X31253Y83820D01*
X31260Y83815D01*
X31270Y83807D01*
X31282Y83798D01*
X31297Y83788D01*
X31335Y83767D01*
X31383Y83745D01*
X31438Y83725D01*
X31497Y83713D01*
X31530Y83710D01*
X31565Y83707D01*
X31587D01*
X31602Y83710D01*
X31622Y83713D01*
X31642Y83715D01*
X31668Y83720D01*
X31695Y83728D01*
X31755Y83745D01*
X31785Y83758D01*
X31817Y83772D01*
X31850Y83790D01*
X31880Y83810D01*
X31910Y83833D01*
X31940Y83860D01*
X31942Y83863D01*
X31947Y83868D01*
X31955Y83875D01*
X31965Y83887D01*
X31975Y83903D01*
X31988Y83920D01*
X32002Y83940D01*
X32017Y83965D01*
X32030Y83990D01*
X32045Y84020D01*
X32070Y84085D01*
X32078Y84120D01*
X32085Y84158D01*
X32090Y84197D01*
X32092Y84240D01*
Y84242D01*
Y84250D01*
Y84260D01*
X32090Y84277D01*
X32087Y84295D01*
X32085Y84317D01*
X32080Y84340D01*
X32075Y84368D01*
X32057Y84422D01*
X32048Y84452D01*
X32032Y84483D01*
X32015Y84513D01*
X31997Y84543D01*
X31975Y84570D01*
X31950Y84597D01*
X31947Y84600D01*
X31942Y84602D01*
X31935Y84610D01*
X31925Y84620D01*
X31910Y84630D01*
X31892Y84642D01*
X31875Y84655D01*
X31852Y84667D01*
X31828Y84680D01*
X31800Y84693D01*
X31738Y84715D01*
X31668Y84733D01*
X31630Y84735D01*
X31590Y84737D01*
X31575D01*
X31555Y84735D01*
X31530Y84733D01*
X31497Y84730D01*
X31460Y84725D01*
X31418Y84715D01*
X31370Y84705D01*
X31405Y84980D01*
X31410D01*
X31422Y84978D01*
X31440Y84975D01*
X31475D01*
X31490Y84978D01*
X31508D01*
X31528Y84980D01*
X31550Y84985D01*
X31575Y84987D01*
X31633Y85000D01*
X31692Y85020D01*
X31755Y85045D01*
X31817Y85080D01*
X31820Y85083D01*
X31825Y85085D01*
X31833Y85090D01*
X31842Y85100D01*
X31855Y85110D01*
X31870Y85125D01*
X31883Y85140D01*
X31900Y85160D01*
X31915Y85180D01*
X31927Y85205D01*
X31942Y85233D01*
X31955Y85260D01*
X31965Y85293D01*
X31973Y85328D01*
X31977Y85362D01*
X31980Y85403D01*
Y85405D01*
Y85410D01*
Y85420D01*
X31977Y85432D01*
Y85448D01*
X31975Y85465D01*
X31965Y85505D01*
X31953Y85550D01*
X31930Y85597D01*
X31903Y85645D01*
X31883Y85668D01*
X31863Y85690D01*
X31860Y85693D01*
X31857Y85695D01*
X31850Y85700D01*
X31842Y85707D01*
X31815Y85728D01*
X31780Y85747D01*
X31738Y85768D01*
X31685Y85787D01*
X31625Y85800D01*
X31595Y85805D01*
X31543D01*
X31530Y85803D01*
X31512D01*
X31495Y85800D01*
X31453Y85790D01*
X31403Y85777D01*
X31352Y85755D01*
X31300Y85728D01*
X31275Y85707D01*
X31253Y85688D01*
X31250Y85685D01*
X31247Y85682D01*
X31240Y85675D01*
X31233Y85665D01*
X31223Y85655D01*
X31212Y85640D01*
X31200Y85623D01*
X31187Y85602D01*
X31175Y85577D01*
X31160Y85553D01*
X31148Y85525D01*
X31135Y85492D01*
X31125Y85460D01*
X31113Y85422D01*
X31105Y85385D01*
X31097Y85343D01*
X30782Y85397D01*
Y85400D01*
X30785Y85413D01*
X30790Y85427D01*
X30795Y85450D01*
X30803Y85475D01*
X30812Y85508D01*
X30823Y85540D01*
X30838Y85577D01*
X30852Y85615D01*
X30872Y85655D01*
X30893Y85698D01*
X30918Y85738D01*
X30942Y85777D01*
X30972Y85817D01*
X31008Y85852D01*
X31043Y85887D01*
X31045Y85890D01*
X31053Y85895D01*
X31062Y85903D01*
X31080Y85915D01*
X31100Y85927D01*
X31122Y85943D01*
X31152Y85960D01*
X31183Y85975D01*
X31218Y85992D01*
X31258Y86007D01*
X31300Y86023D01*
X31345Y86035D01*
X31392Y86048D01*
X31442Y86055D01*
X31497Y86060D01*
X31552Y86063D01*
X31572D01*
X31587Y86060D01*
D02*
G37*
G36*
X27210D02*
X27230D01*
X27250Y86058D01*
X27275Y86055D01*
X27303Y86053D01*
X27362Y86040D01*
X27425Y86025D01*
X27492Y86002D01*
X27560Y85972D01*
X27562D01*
X27567Y85967D01*
X27577Y85962D01*
X27590Y85955D01*
X27605Y85948D01*
X27620Y85935D01*
X27660Y85908D01*
X27705Y85873D01*
X27750Y85830D01*
X27793Y85780D01*
X27830Y85725D01*
Y85723D01*
X27835Y85717D01*
X27840Y85710D01*
X27845Y85698D01*
X27852Y85685D01*
X27860Y85668D01*
X27878Y85625D01*
X27895Y85577D01*
X27910Y85520D01*
X27920Y85460D01*
X27925Y85395D01*
Y85392D01*
Y85387D01*
Y85380D01*
X27922Y85368D01*
Y85352D01*
X27920Y85335D01*
X27915Y85295D01*
X27902Y85247D01*
X27887Y85198D01*
X27865Y85145D01*
X27835Y85093D01*
Y85090D01*
X27830Y85088D01*
X27825Y85080D01*
X27817Y85070D01*
X27797Y85045D01*
X27768Y85015D01*
X27730Y84980D01*
X27685Y84945D01*
X27632Y84910D01*
X27570Y84878D01*
X27573D01*
X27580Y84875D01*
X27593Y84873D01*
X27608Y84868D01*
X27628Y84860D01*
X27648Y84852D01*
X27700Y84830D01*
X27755Y84803D01*
X27815Y84763D01*
X27872Y84718D01*
X27898Y84690D01*
X27922Y84660D01*
X27925Y84658D01*
X27928Y84653D01*
X27935Y84642D01*
X27942Y84630D01*
X27953Y84615D01*
X27962Y84595D01*
X27975Y84572D01*
X27988Y84548D01*
X27997Y84518D01*
X28010Y84487D01*
X28020Y84452D01*
X28030Y84417D01*
X28045Y84338D01*
X28047Y84293D01*
X28050Y84247D01*
Y84245D01*
Y84232D01*
X28047Y84215D01*
Y84193D01*
X28043Y84162D01*
X28038Y84130D01*
X28030Y84092D01*
X28020Y84050D01*
X28008Y84008D01*
X27990Y83963D01*
X27970Y83915D01*
X27948Y83868D01*
X27918Y83820D01*
X27885Y83770D01*
X27847Y83725D01*
X27805Y83680D01*
X27803Y83678D01*
X27795Y83670D01*
X27780Y83657D01*
X27760Y83645D01*
X27738Y83625D01*
X27707Y83608D01*
X27675Y83585D01*
X27635Y83565D01*
X27593Y83543D01*
X27545Y83520D01*
X27495Y83503D01*
X27440Y83485D01*
X27382Y83470D01*
X27320Y83457D01*
X27255Y83450D01*
X27185Y83447D01*
X27170D01*
X27152Y83450D01*
X27130D01*
X27100Y83452D01*
X27068Y83457D01*
X27030Y83465D01*
X26987Y83473D01*
X26945Y83482D01*
X26900Y83498D01*
X26853Y83513D01*
X26807Y83533D01*
X26760Y83555D01*
X26713Y83583D01*
X26667Y83613D01*
X26625Y83648D01*
X26623Y83650D01*
X26615Y83657D01*
X26605Y83667D01*
X26590Y83685D01*
X26572Y83705D01*
X26553Y83728D01*
X26533Y83755D01*
X26510Y83788D01*
X26487Y83823D01*
X26465Y83863D01*
X26445Y83905D01*
X26425Y83952D01*
X26408Y84003D01*
X26392Y84055D01*
X26380Y84110D01*
X26373Y84170D01*
X26687Y84212D01*
Y84210D01*
X26690Y84200D01*
X26693Y84188D01*
X26697Y84167D01*
X26702Y84148D01*
X26710Y84120D01*
X26720Y84092D01*
X26730Y84062D01*
X26755Y84000D01*
X26787Y83935D01*
X26825Y83875D01*
X26847Y83850D01*
X26870Y83825D01*
X26873D01*
X26875Y83820D01*
X26882Y83815D01*
X26893Y83807D01*
X26905Y83798D01*
X26920Y83788D01*
X26957Y83767D01*
X27005Y83745D01*
X27060Y83725D01*
X27120Y83713D01*
X27152Y83710D01*
X27187Y83707D01*
X27210D01*
X27225Y83710D01*
X27245Y83713D01*
X27265Y83715D01*
X27290Y83720D01*
X27318Y83728D01*
X27378Y83745D01*
X27408Y83758D01*
X27440Y83772D01*
X27472Y83790D01*
X27503Y83810D01*
X27533Y83833D01*
X27562Y83860D01*
X27565Y83863D01*
X27570Y83868D01*
X27577Y83875D01*
X27588Y83887D01*
X27597Y83903D01*
X27610Y83920D01*
X27625Y83940D01*
X27640Y83965D01*
X27652Y83990D01*
X27667Y84020D01*
X27692Y84085D01*
X27700Y84120D01*
X27707Y84158D01*
X27713Y84197D01*
X27715Y84240D01*
Y84242D01*
Y84250D01*
Y84260D01*
X27713Y84277D01*
X27710Y84295D01*
X27707Y84317D01*
X27703Y84340D01*
X27698Y84368D01*
X27680Y84422D01*
X27670Y84452D01*
X27655Y84483D01*
X27637Y84513D01*
X27620Y84543D01*
X27597Y84570D01*
X27573Y84597D01*
X27570Y84600D01*
X27565Y84602D01*
X27558Y84610D01*
X27547Y84620D01*
X27533Y84630D01*
X27515Y84642D01*
X27498Y84655D01*
X27475Y84667D01*
X27450Y84680D01*
X27422Y84693D01*
X27360Y84715D01*
X27290Y84733D01*
X27253Y84735D01*
X27213Y84737D01*
X27198D01*
X27178Y84735D01*
X27152Y84733D01*
X27120Y84730D01*
X27082Y84725D01*
X27040Y84715D01*
X26992Y84705D01*
X27027Y84980D01*
X27033D01*
X27045Y84978D01*
X27062Y84975D01*
X27097D01*
X27112Y84978D01*
X27130D01*
X27150Y84980D01*
X27172Y84985D01*
X27198Y84987D01*
X27255Y85000D01*
X27315Y85020D01*
X27378Y85045D01*
X27440Y85080D01*
X27442Y85083D01*
X27448Y85085D01*
X27455Y85090D01*
X27465Y85100D01*
X27477Y85110D01*
X27492Y85125D01*
X27505Y85140D01*
X27523Y85160D01*
X27538Y85180D01*
X27550Y85205D01*
X27565Y85233D01*
X27577Y85260D01*
X27588Y85293D01*
X27595Y85328D01*
X27600Y85362D01*
X27602Y85403D01*
Y85405D01*
Y85410D01*
Y85420D01*
X27600Y85432D01*
Y85448D01*
X27597Y85465D01*
X27588Y85505D01*
X27575Y85550D01*
X27553Y85597D01*
X27525Y85645D01*
X27505Y85668D01*
X27485Y85690D01*
X27483Y85693D01*
X27480Y85695D01*
X27472Y85700D01*
X27465Y85707D01*
X27437Y85728D01*
X27402Y85747D01*
X27360Y85768D01*
X27308Y85787D01*
X27248Y85800D01*
X27218Y85805D01*
X27165D01*
X27152Y85803D01*
X27135D01*
X27117Y85800D01*
X27075Y85790D01*
X27025Y85777D01*
X26975Y85755D01*
X26923Y85728D01*
X26897Y85707D01*
X26875Y85688D01*
X26873Y85685D01*
X26870Y85682D01*
X26862Y85675D01*
X26855Y85665D01*
X26845Y85655D01*
X26835Y85640D01*
X26823Y85623D01*
X26810Y85602D01*
X26798Y85577D01*
X26783Y85553D01*
X26770Y85525D01*
X26757Y85492D01*
X26748Y85460D01*
X26735Y85422D01*
X26728Y85385D01*
X26720Y85343D01*
X26405Y85397D01*
Y85400D01*
X26408Y85413D01*
X26412Y85427D01*
X26417Y85450D01*
X26425Y85475D01*
X26435Y85508D01*
X26445Y85540D01*
X26460Y85577D01*
X26475Y85615D01*
X26495Y85655D01*
X26515Y85698D01*
X26540Y85738D01*
X26565Y85777D01*
X26595Y85817D01*
X26630Y85852D01*
X26665Y85887D01*
X26667Y85890D01*
X26675Y85895D01*
X26685Y85903D01*
X26702Y85915D01*
X26722Y85927D01*
X26745Y85943D01*
X26775Y85960D01*
X26805Y85975D01*
X26840Y85992D01*
X26880Y86007D01*
X26923Y86023D01*
X26967Y86035D01*
X27015Y86048D01*
X27065Y86055D01*
X27120Y86060D01*
X27175Y86063D01*
X27195D01*
X27210Y86060D01*
D02*
G37*
G36*
X29570Y83490D02*
X29217D01*
X28227Y86053D01*
X28595D01*
X29260Y84190D01*
Y84188D01*
X29263Y84180D01*
X29267Y84167D01*
X29272Y84153D01*
X29280Y84132D01*
X29287Y84108D01*
X29298Y84083D01*
X29307Y84052D01*
X29327Y83987D01*
X29350Y83917D01*
X29373Y83845D01*
X29395Y83770D01*
Y83772D01*
X29397Y83780D01*
X29400Y83790D01*
X29405Y83805D01*
X29412Y83825D01*
X29417Y83847D01*
X29425Y83872D01*
X29435Y83903D01*
X29455Y83965D01*
X29478Y84035D01*
X29505Y84113D01*
X29533Y84190D01*
X30228Y86053D01*
X30573D01*
X29570Y83490D01*
D02*
G37*
G36*
X36942Y86060D02*
X36965D01*
X36995Y86058D01*
X37027Y86055D01*
X37062Y86050D01*
X37100Y86045D01*
X37140Y86040D01*
X37222Y86023D01*
X37310Y86000D01*
X37395Y85970D01*
X37398D01*
X37405Y85965D01*
X37418Y85960D01*
X37433Y85953D01*
X37450Y85945D01*
X37473Y85932D01*
X37523Y85905D01*
X37580Y85870D01*
X37637Y85827D01*
X37695Y85777D01*
X37747Y85720D01*
X37750Y85717D01*
X37753Y85712D01*
X37760Y85703D01*
X37770Y85690D01*
X37780Y85675D01*
X37793Y85655D01*
X37805Y85632D01*
X37820Y85607D01*
X37837Y85580D01*
X37852Y85548D01*
X37868Y85513D01*
X37885Y85475D01*
X37900Y85435D01*
X37915Y85392D01*
X37930Y85347D01*
X37942Y85300D01*
X37637Y85217D01*
Y85220D01*
X37635Y85225D01*
X37633Y85237D01*
X37628Y85250D01*
X37622Y85265D01*
X37615Y85285D01*
X37598Y85330D01*
X37578Y85378D01*
X37552Y85430D01*
X37525Y85480D01*
X37492Y85525D01*
Y85527D01*
X37488Y85530D01*
X37477Y85543D01*
X37457Y85565D01*
X37430Y85590D01*
X37395Y85618D01*
X37352Y85647D01*
X37305Y85677D01*
X37247Y85705D01*
X37245D01*
X37240Y85707D01*
X37233Y85712D01*
X37220Y85715D01*
X37205Y85720D01*
X37187Y85728D01*
X37168Y85733D01*
X37145Y85740D01*
X37093Y85750D01*
X37032Y85763D01*
X36965Y85770D01*
X36895Y85773D01*
X36855D01*
X36835Y85770D01*
X36812D01*
X36788Y85768D01*
X36757Y85763D01*
X36695Y85755D01*
X36628Y85742D01*
X36557Y85725D01*
X36492Y85700D01*
X36490D01*
X36485Y85698D01*
X36478Y85693D01*
X36465Y85688D01*
X36450Y85680D01*
X36435Y85672D01*
X36395Y85650D01*
X36353Y85623D01*
X36307Y85593D01*
X36263Y85555D01*
X36220Y85513D01*
X36215Y85508D01*
X36202Y85492D01*
X36185Y85470D01*
X36162Y85438D01*
X36135Y85400D01*
X36110Y85357D01*
X36083Y85310D01*
X36060Y85260D01*
Y85258D01*
X36055Y85250D01*
X36050Y85237D01*
X36045Y85217D01*
X36037Y85198D01*
X36030Y85170D01*
X36020Y85140D01*
X36013Y85107D01*
X36002Y85070D01*
X35993Y85030D01*
X35985Y84987D01*
X35978Y84943D01*
X35967Y84847D01*
X35963Y84745D01*
Y84740D01*
Y84730D01*
Y84712D01*
X35965Y84688D01*
Y84658D01*
X35970Y84625D01*
X35972Y84588D01*
X35978Y84545D01*
X35982Y84500D01*
X35993Y84455D01*
X36013Y84358D01*
X36042Y84263D01*
X36060Y84215D01*
X36080Y84170D01*
X36083Y84167D01*
X36085Y84160D01*
X36092Y84148D01*
X36103Y84132D01*
X36115Y84113D01*
X36130Y84092D01*
X36147Y84067D01*
X36167Y84040D01*
X36190Y84013D01*
X36215Y83985D01*
X36242Y83957D01*
X36275Y83928D01*
X36307Y83900D01*
X36342Y83875D01*
X36382Y83850D01*
X36423Y83828D01*
X36425D01*
X36432Y83823D01*
X36445Y83817D01*
X36463Y83810D01*
X36483Y83802D01*
X36507Y83793D01*
X36535Y83783D01*
X36568Y83772D01*
X36600Y83763D01*
X36637Y83753D01*
X36720Y83735D01*
X36808Y83723D01*
X36852Y83720D01*
X36900Y83718D01*
X36922D01*
X36937Y83720D01*
X36957D01*
X36980Y83723D01*
X37007Y83725D01*
X37038Y83728D01*
X37102Y83737D01*
X37175Y83753D01*
X37253Y83772D01*
X37330Y83800D01*
X37332D01*
X37340Y83805D01*
X37350Y83807D01*
X37365Y83815D01*
X37383Y83823D01*
X37402Y83833D01*
X37450Y83855D01*
X37500Y83882D01*
X37552Y83912D01*
X37605Y83947D01*
X37650Y83982D01*
Y84460D01*
X36898D01*
Y84763D01*
X37982D01*
Y83810D01*
X37980Y83807D01*
X37973Y83802D01*
X37958Y83790D01*
X37940Y83777D01*
X37918Y83760D01*
X37890Y83742D01*
X37857Y83723D01*
X37825Y83700D01*
X37788Y83675D01*
X37747Y83650D01*
X37660Y83602D01*
X37565Y83555D01*
X37465Y83513D01*
X37462D01*
X37453Y83508D01*
X37440Y83503D01*
X37420Y83498D01*
X37395Y83490D01*
X37367Y83480D01*
X37335Y83473D01*
X37297Y83463D01*
X37258Y83452D01*
X37215Y83445D01*
X37170Y83435D01*
X37122Y83428D01*
X37025Y83417D01*
X36920Y83412D01*
X36882D01*
X36858Y83415D01*
X36823Y83417D01*
X36785Y83420D01*
X36740Y83425D01*
X36693Y83433D01*
X36640Y83440D01*
X36588Y83452D01*
X36530Y83465D01*
X36470Y83480D01*
X36410Y83498D01*
X36350Y83520D01*
X36292Y83545D01*
X36233Y83573D01*
X36230Y83575D01*
X36220Y83580D01*
X36202Y83590D01*
X36182Y83602D01*
X36158Y83620D01*
X36127Y83640D01*
X36095Y83665D01*
X36060Y83693D01*
X36022Y83723D01*
X35985Y83758D01*
X35945Y83798D01*
X35908Y83837D01*
X35870Y83882D01*
X35833Y83933D01*
X35800Y83985D01*
X35767Y84040D01*
X35765Y84043D01*
X35760Y84055D01*
X35752Y84070D01*
X35743Y84095D01*
X35732Y84123D01*
X35717Y84158D01*
X35705Y84197D01*
X35690Y84240D01*
X35675Y84290D01*
X35662Y84342D01*
X35647Y84400D01*
X35638Y84460D01*
X35627Y84522D01*
X35620Y84588D01*
X35615Y84655D01*
X35612Y84725D01*
Y84730D01*
Y84742D01*
Y84763D01*
X35615Y84787D01*
X35618Y84822D01*
X35620Y84860D01*
X35625Y84905D01*
X35633Y84952D01*
X35640Y85005D01*
X35650Y85060D01*
X35662Y85118D01*
X35677Y85177D01*
X35695Y85237D01*
X35717Y85300D01*
X35740Y85360D01*
X35767Y85422D01*
X35770Y85427D01*
X35775Y85438D01*
X35785Y85453D01*
X35798Y85475D01*
X35813Y85502D01*
X35833Y85532D01*
X35855Y85567D01*
X35882Y85605D01*
X35912Y85642D01*
X35947Y85682D01*
X35982Y85723D01*
X36025Y85763D01*
X36068Y85803D01*
X36115Y85840D01*
X36165Y85873D01*
X36217Y85905D01*
X36220Y85908D01*
X36230Y85913D01*
X36248Y85920D01*
X36270Y85930D01*
X36298Y85943D01*
X36330Y85955D01*
X36370Y85970D01*
X36413Y85985D01*
X36460Y85997D01*
X36513Y86013D01*
X36568Y86025D01*
X36628Y86037D01*
X36690Y86048D01*
X36755Y86055D01*
X36825Y86060D01*
X36895Y86063D01*
X36922D01*
X36942Y86060D01*
D02*
G37*
G36*
X40500Y83455D02*
X40150D01*
X38805Y85465D01*
Y83455D01*
X38480D01*
Y86018D01*
X38827D01*
X40175Y84005D01*
Y86018D01*
X40500D01*
Y83455D01*
D02*
G37*
G36*
X42053Y86015D02*
X42085D01*
X42118Y86013D01*
X42193Y86007D01*
X42268Y86002D01*
X42340Y85992D01*
X42375Y85988D01*
X42405Y85980D01*
X42408D01*
X42415Y85978D01*
X42428Y85975D01*
X42443Y85970D01*
X42463Y85965D01*
X42483Y85957D01*
X42507Y85948D01*
X42535Y85938D01*
X42595Y85913D01*
X42658Y85880D01*
X42722Y85843D01*
X42783Y85795D01*
X42785Y85792D01*
X42792Y85787D01*
X42803Y85777D01*
X42815Y85765D01*
X42832Y85747D01*
X42853Y85728D01*
X42873Y85703D01*
X42897Y85677D01*
X42920Y85647D01*
X42945Y85612D01*
X42970Y85577D01*
X42995Y85540D01*
X43020Y85497D01*
X43042Y85453D01*
X43085Y85357D01*
Y85355D01*
X43090Y85345D01*
X43095Y85330D01*
X43100Y85310D01*
X43110Y85285D01*
X43117Y85255D01*
X43128Y85220D01*
X43137Y85182D01*
X43145Y85140D01*
X43155Y85093D01*
X43165Y85043D01*
X43172Y84990D01*
X43178Y84933D01*
X43183Y84875D01*
X43187Y84750D01*
Y84747D01*
Y84737D01*
Y84723D01*
Y84700D01*
X43185Y84675D01*
Y84645D01*
X43183Y84613D01*
X43180Y84575D01*
X43175Y84535D01*
X43170Y84495D01*
X43158Y84408D01*
X43140Y84317D01*
X43117Y84230D01*
Y84228D01*
X43115Y84220D01*
X43110Y84207D01*
X43105Y84193D01*
X43097Y84172D01*
X43090Y84150D01*
X43080Y84125D01*
X43070Y84100D01*
X43045Y84040D01*
X43015Y83978D01*
X42980Y83915D01*
X42943Y83858D01*
Y83855D01*
X42937Y83850D01*
X42933Y83842D01*
X42925Y83833D01*
X42902Y83807D01*
X42875Y83772D01*
X42840Y83735D01*
X42800Y83697D01*
X42757Y83660D01*
X42710Y83625D01*
X42707D01*
X42705Y83622D01*
X42698Y83618D01*
X42687Y83610D01*
X42675Y83605D01*
X42660Y83595D01*
X42625Y83578D01*
X42580Y83557D01*
X42527Y83535D01*
X42467Y83515D01*
X42402Y83498D01*
X42400D01*
X42395Y83495D01*
X42385Y83492D01*
X42370Y83490D01*
X42355Y83487D01*
X42335Y83485D01*
X42310Y83480D01*
X42285Y83477D01*
X42255Y83473D01*
X42225Y83468D01*
X42155Y83463D01*
X42077Y83457D01*
X41993Y83455D01*
X41067D01*
Y86018D01*
X42025D01*
X42053Y86015D01*
D02*
G37*
G36*
X61718Y83800D02*
X61413D01*
X60240Y85553D01*
Y83800D01*
X59957D01*
Y86035D01*
X60260D01*
X61435Y84280D01*
Y86035D01*
X61718D01*
Y83800D01*
D02*
G37*
G36*
X58564Y86032D02*
X58592D01*
X58621Y86030D01*
X58686Y86026D01*
X58751Y86021D01*
X58815Y86013D01*
X58845Y86008D01*
X58871Y86002D01*
X58873D01*
X58880Y86000D01*
X58891Y85997D01*
X58904Y85993D01*
X58921Y85989D01*
X58939Y85982D01*
X58961Y85974D01*
X58985Y85965D01*
X59037Y85943D01*
X59092Y85915D01*
X59148Y85882D01*
X59201Y85840D01*
X59203Y85838D01*
X59209Y85834D01*
X59218Y85825D01*
X59229Y85814D01*
X59244Y85799D01*
X59262Y85782D01*
X59279Y85760D01*
X59301Y85738D01*
X59320Y85712D01*
X59342Y85681D01*
X59364Y85651D01*
X59386Y85618D01*
X59408Y85581D01*
X59427Y85542D01*
X59464Y85459D01*
Y85457D01*
X59469Y85448D01*
X59473Y85435D01*
X59477Y85418D01*
X59486Y85396D01*
X59493Y85370D01*
X59501Y85339D01*
X59510Y85306D01*
X59517Y85269D01*
X59525Y85228D01*
X59534Y85184D01*
X59541Y85138D01*
X59545Y85088D01*
X59549Y85038D01*
X59554Y84929D01*
Y84927D01*
Y84918D01*
Y84905D01*
Y84886D01*
X59552Y84864D01*
Y84838D01*
X59549Y84809D01*
X59547Y84777D01*
X59543Y84742D01*
X59538Y84707D01*
X59527Y84631D01*
X59512Y84552D01*
X59493Y84476D01*
Y84474D01*
X59490Y84467D01*
X59486Y84456D01*
X59482Y84443D01*
X59475Y84426D01*
X59469Y84406D01*
X59460Y84384D01*
X59451Y84362D01*
X59429Y84310D01*
X59403Y84256D01*
X59373Y84201D01*
X59340Y84151D01*
Y84149D01*
X59336Y84144D01*
X59331Y84138D01*
X59325Y84129D01*
X59305Y84107D01*
X59281Y84077D01*
X59251Y84044D01*
X59216Y84012D01*
X59179Y83979D01*
X59137Y83948D01*
X59135D01*
X59133Y83946D01*
X59126Y83942D01*
X59118Y83935D01*
X59107Y83931D01*
X59094Y83922D01*
X59063Y83907D01*
X59024Y83889D01*
X58978Y83870D01*
X58926Y83852D01*
X58869Y83837D01*
X58867D01*
X58863Y83835D01*
X58854Y83833D01*
X58841Y83830D01*
X58828Y83828D01*
X58810Y83826D01*
X58789Y83822D01*
X58767Y83820D01*
X58741Y83815D01*
X58714Y83811D01*
X58653Y83807D01*
X58586Y83802D01*
X58512Y83800D01*
X57705D01*
Y86035D01*
X58540D01*
X58564Y86032D01*
D02*
G37*
G36*
X50495D02*
X50521D01*
X50575Y86030D01*
X50632Y86026D01*
X50687Y86019D01*
X50713Y86017D01*
X50734Y86013D01*
X50737D01*
X50741Y86010D01*
X50750D01*
X50763Y86006D01*
X50776Y86004D01*
X50793Y86000D01*
X50830Y85989D01*
X50874Y85976D01*
X50922Y85956D01*
X50968Y85934D01*
X51011Y85908D01*
X51013D01*
X51016Y85904D01*
X51029Y85895D01*
X51051Y85878D01*
X51074Y85854D01*
X51103Y85821D01*
X51133Y85786D01*
X51164Y85742D01*
X51190Y85692D01*
Y85690D01*
X51192Y85686D01*
X51197Y85679D01*
X51201Y85668D01*
X51205Y85655D01*
X51212Y85640D01*
X51218Y85623D01*
X51225Y85603D01*
X51238Y85557D01*
X51249Y85505D01*
X51258Y85448D01*
X51260Y85387D01*
Y85385D01*
Y85374D01*
X51258Y85359D01*
Y85339D01*
X51253Y85315D01*
X51251Y85287D01*
X51245Y85256D01*
X51238Y85221D01*
X51227Y85184D01*
X51216Y85145D01*
X51201Y85106D01*
X51183Y85064D01*
X51162Y85023D01*
X51138Y84984D01*
X51109Y84944D01*
X51077Y84905D01*
X51074Y84903D01*
X51068Y84896D01*
X51057Y84888D01*
X51042Y84875D01*
X51020Y84860D01*
X50994Y84844D01*
X50963Y84825D01*
X50926Y84807D01*
X50885Y84790D01*
X50837Y84772D01*
X50785Y84755D01*
X50723Y84740D01*
X50658Y84727D01*
X50586Y84718D01*
X50508Y84711D01*
X50423Y84709D01*
X49849D01*
Y83800D01*
X49553D01*
Y86035D01*
X50471D01*
X50495Y86032D01*
D02*
G37*
G36*
X48158D02*
X48186D01*
X48214Y86030D01*
X48280Y86026D01*
X48345Y86021D01*
X48408Y86013D01*
X48439Y86008D01*
X48465Y86002D01*
X48467D01*
X48474Y86000D01*
X48485Y85997D01*
X48498Y85993D01*
X48515Y85989D01*
X48533Y85982D01*
X48554Y85974D01*
X48578Y85965D01*
X48631Y85943D01*
X48685Y85915D01*
X48742Y85882D01*
X48794Y85840D01*
X48796Y85838D01*
X48803Y85834D01*
X48812Y85825D01*
X48823Y85814D01*
X48838Y85799D01*
X48855Y85782D01*
X48873Y85760D01*
X48895Y85738D01*
X48914Y85712D01*
X48936Y85681D01*
X48958Y85651D01*
X48979Y85618D01*
X49001Y85581D01*
X49021Y85542D01*
X49058Y85459D01*
Y85457D01*
X49062Y85448D01*
X49067Y85435D01*
X49071Y85418D01*
X49080Y85396D01*
X49086Y85370D01*
X49095Y85339D01*
X49104Y85306D01*
X49110Y85269D01*
X49119Y85228D01*
X49128Y85184D01*
X49134Y85138D01*
X49139Y85088D01*
X49143Y85038D01*
X49147Y84929D01*
Y84927D01*
Y84918D01*
Y84905D01*
Y84886D01*
X49145Y84864D01*
Y84838D01*
X49143Y84809D01*
X49141Y84777D01*
X49136Y84742D01*
X49132Y84707D01*
X49121Y84631D01*
X49106Y84552D01*
X49086Y84476D01*
Y84474D01*
X49084Y84467D01*
X49080Y84456D01*
X49075Y84443D01*
X49069Y84426D01*
X49062Y84406D01*
X49054Y84384D01*
X49045Y84362D01*
X49023Y84310D01*
X48997Y84256D01*
X48966Y84201D01*
X48934Y84151D01*
Y84149D01*
X48929Y84144D01*
X48925Y84138D01*
X48919Y84129D01*
X48899Y84107D01*
X48875Y84077D01*
X48844Y84044D01*
X48809Y84012D01*
X48772Y83979D01*
X48731Y83948D01*
X48729D01*
X48727Y83946D01*
X48720Y83942D01*
X48711Y83935D01*
X48700Y83931D01*
X48687Y83922D01*
X48657Y83907D01*
X48618Y83889D01*
X48572Y83870D01*
X48520Y83852D01*
X48463Y83837D01*
X48461D01*
X48456Y83835D01*
X48448Y83833D01*
X48434Y83830D01*
X48421Y83828D01*
X48404Y83826D01*
X48382Y83822D01*
X48360Y83820D01*
X48334Y83815D01*
X48308Y83811D01*
X48247Y83807D01*
X48180Y83802D01*
X48105Y83800D01*
X47299D01*
Y86035D01*
X48134D01*
X48158Y86032D01*
D02*
G37*
G36*
X134271Y6619D02*
X134301D01*
X134331Y6615D01*
X134369Y6611D01*
X134410Y6607D01*
X134500Y6589D01*
X134594Y6566D01*
X134695Y6532D01*
X134796Y6487D01*
X134800D01*
X134808Y6480D01*
X134822Y6472D01*
X134841Y6461D01*
X134864Y6450D01*
X134886Y6431D01*
X134946Y6390D01*
X135014Y6338D01*
X135081Y6274D01*
X135145Y6199D01*
X135201Y6116D01*
Y6112D01*
X135209Y6105D01*
X135216Y6094D01*
X135224Y6075D01*
X135235Y6056D01*
X135246Y6030D01*
X135273Y5966D01*
X135299Y5895D01*
X135321Y5809D01*
X135336Y5719D01*
X135344Y5621D01*
Y5618D01*
Y5610D01*
Y5599D01*
X135340Y5580D01*
Y5557D01*
X135336Y5531D01*
X135329Y5471D01*
X135310Y5400D01*
X135287Y5325D01*
X135254Y5246D01*
X135209Y5167D01*
Y5164D01*
X135201Y5160D01*
X135194Y5149D01*
X135182Y5134D01*
X135152Y5096D01*
X135108Y5051D01*
X135051Y4999D01*
X134984Y4946D01*
X134905Y4894D01*
X134811Y4845D01*
X134815D01*
X134826Y4841D01*
X134845Y4837D01*
X134868Y4830D01*
X134897Y4819D01*
X134927Y4808D01*
X135006Y4774D01*
X135089Y4733D01*
X135179Y4673D01*
X135265Y4605D01*
X135302Y4564D01*
X135340Y4519D01*
X135344Y4515D01*
X135347Y4507D01*
X135359Y4493D01*
X135370Y4474D01*
X135385Y4451D01*
X135400Y4421D01*
X135419Y4388D01*
X135438Y4350D01*
X135452Y4305D01*
X135471Y4260D01*
X135486Y4208D01*
X135501Y4155D01*
X135524Y4035D01*
X135528Y3968D01*
X135531Y3900D01*
Y3896D01*
Y3878D01*
X135528Y3851D01*
Y3818D01*
X135520Y3773D01*
X135512Y3724D01*
X135501Y3667D01*
X135486Y3604D01*
X135468Y3540D01*
X135441Y3472D01*
X135411Y3401D01*
X135378Y3330D01*
X135333Y3259D01*
X135284Y3184D01*
X135228Y3116D01*
X135164Y3049D01*
X135160Y3045D01*
X135149Y3034D01*
X135126Y3015D01*
X135096Y2996D01*
X135063Y2966D01*
X135018Y2940D01*
X134969Y2906D01*
X134909Y2876D01*
X134845Y2843D01*
X134774Y2809D01*
X134699Y2782D01*
X134616Y2756D01*
X134530Y2734D01*
X134436Y2715D01*
X134339Y2704D01*
X134234Y2700D01*
X134211D01*
X134185Y2704D01*
X134151D01*
X134106Y2708D01*
X134057Y2715D01*
X134001Y2726D01*
X133938Y2737D01*
X133874Y2753D01*
X133806Y2775D01*
X133735Y2798D01*
X133668Y2827D01*
X133596Y2861D01*
X133525Y2902D01*
X133458Y2947D01*
X133394Y3000D01*
X133390Y3004D01*
X133379Y3015D01*
X133364Y3030D01*
X133341Y3056D01*
X133315Y3086D01*
X133285Y3120D01*
X133255Y3161D01*
X133221Y3210D01*
X133187Y3263D01*
X133154Y3322D01*
X133124Y3386D01*
X133094Y3458D01*
X133068Y3532D01*
X133045Y3611D01*
X133026Y3694D01*
X133015Y3784D01*
X133487Y3847D01*
Y3844D01*
X133491Y3829D01*
X133495Y3810D01*
X133502Y3780D01*
X133510Y3750D01*
X133521Y3709D01*
X133536Y3667D01*
X133551Y3622D01*
X133589Y3529D01*
X133637Y3431D01*
X133694Y3341D01*
X133728Y3304D01*
X133761Y3266D01*
X133765D01*
X133769Y3259D01*
X133780Y3251D01*
X133795Y3240D01*
X133814Y3225D01*
X133836Y3210D01*
X133893Y3180D01*
X133964Y3146D01*
X134046Y3116D01*
X134136Y3097D01*
X134185Y3094D01*
X134238Y3090D01*
X134271D01*
X134294Y3094D01*
X134324Y3097D01*
X134354Y3101D01*
X134391Y3109D01*
X134432Y3120D01*
X134522Y3146D01*
X134567Y3165D01*
X134616Y3187D01*
X134665Y3214D01*
X134710Y3244D01*
X134755Y3277D01*
X134800Y3319D01*
X134804Y3322D01*
X134811Y3330D01*
X134822Y3341D01*
X134837Y3360D01*
X134853Y3382D01*
X134871Y3409D01*
X134894Y3439D01*
X134916Y3476D01*
X134935Y3514D01*
X134958Y3559D01*
X134995Y3656D01*
X135006Y3709D01*
X135018Y3765D01*
X135025Y3825D01*
X135029Y3889D01*
Y3892D01*
Y3904D01*
Y3919D01*
X135025Y3945D01*
X135021Y3971D01*
X135018Y4005D01*
X135010Y4039D01*
X135003Y4080D01*
X134976Y4163D01*
X134961Y4208D01*
X134939Y4253D01*
X134913Y4298D01*
X134886Y4343D01*
X134853Y4384D01*
X134815Y4425D01*
X134811Y4429D01*
X134804Y4433D01*
X134792Y4444D01*
X134777Y4459D01*
X134755Y4474D01*
X134729Y4493D01*
X134703Y4511D01*
X134669Y4530D01*
X134631Y4549D01*
X134590Y4567D01*
X134496Y4601D01*
X134391Y4628D01*
X134335Y4631D01*
X134275Y4635D01*
X134253D01*
X134222Y4631D01*
X134185Y4628D01*
X134136Y4624D01*
X134080Y4616D01*
X134016Y4601D01*
X133945Y4586D01*
X133997Y4999D01*
X134005D01*
X134024Y4995D01*
X134050Y4991D01*
X134102D01*
X134125Y4995D01*
X134151D01*
X134181Y4999D01*
X134215Y5006D01*
X134253Y5010D01*
X134339Y5029D01*
X134429Y5059D01*
X134522Y5096D01*
X134616Y5149D01*
X134620Y5153D01*
X134627Y5156D01*
X134639Y5164D01*
X134654Y5179D01*
X134672Y5194D01*
X134695Y5216D01*
X134714Y5239D01*
X134740Y5269D01*
X134763Y5299D01*
X134781Y5336D01*
X134804Y5378D01*
X134822Y5419D01*
X134837Y5468D01*
X134849Y5520D01*
X134856Y5573D01*
X134860Y5632D01*
Y5636D01*
Y5644D01*
Y5659D01*
X134856Y5677D01*
Y5700D01*
X134853Y5726D01*
X134837Y5786D01*
X134819Y5854D01*
X134785Y5925D01*
X134744Y5996D01*
X134714Y6030D01*
X134684Y6064D01*
X134680Y6067D01*
X134676Y6071D01*
X134665Y6079D01*
X134654Y6090D01*
X134613Y6120D01*
X134560Y6150D01*
X134496Y6180D01*
X134417Y6210D01*
X134327Y6229D01*
X134283Y6236D01*
X134204D01*
X134185Y6233D01*
X134159D01*
X134133Y6229D01*
X134069Y6214D01*
X133994Y6195D01*
X133919Y6161D01*
X133840Y6120D01*
X133802Y6090D01*
X133769Y6060D01*
X133765Y6056D01*
X133761Y6053D01*
X133750Y6041D01*
X133739Y6026D01*
X133724Y6011D01*
X133709Y5989D01*
X133690Y5962D01*
X133671Y5932D01*
X133652Y5895D01*
X133630Y5858D01*
X133611Y5816D01*
X133592Y5768D01*
X133578Y5719D01*
X133559Y5663D01*
X133547Y5606D01*
X133536Y5542D01*
X133064Y5625D01*
Y5629D01*
X133068Y5647D01*
X133075Y5670D01*
X133082Y5704D01*
X133094Y5741D01*
X133109Y5790D01*
X133124Y5839D01*
X133146Y5895D01*
X133169Y5951D01*
X133199Y6011D01*
X133229Y6075D01*
X133266Y6135D01*
X133304Y6195D01*
X133349Y6255D01*
X133401Y6307D01*
X133454Y6360D01*
X133458Y6364D01*
X133469Y6371D01*
X133484Y6382D01*
X133510Y6401D01*
X133540Y6420D01*
X133574Y6442D01*
X133619Y6469D01*
X133664Y6491D01*
X133716Y6517D01*
X133776Y6540D01*
X133840Y6562D01*
X133907Y6581D01*
X133979Y6600D01*
X134054Y6611D01*
X134136Y6619D01*
X134219Y6622D01*
X134249D01*
X134271Y6619D01*
D02*
G37*
G36*
X127705D02*
X127735D01*
X127765Y6615D01*
X127803Y6611D01*
X127844Y6607D01*
X127934Y6589D01*
X128027Y6566D01*
X128129Y6532D01*
X128230Y6487D01*
X128234D01*
X128241Y6480D01*
X128256Y6472D01*
X128275Y6461D01*
X128297Y6450D01*
X128320Y6431D01*
X128380Y6390D01*
X128447Y6338D01*
X128515Y6274D01*
X128579Y6199D01*
X128635Y6116D01*
Y6112D01*
X128642Y6105D01*
X128650Y6094D01*
X128657Y6075D01*
X128669Y6056D01*
X128680Y6030D01*
X128706Y5966D01*
X128733Y5895D01*
X128755Y5809D01*
X128770Y5719D01*
X128778Y5621D01*
Y5618D01*
Y5610D01*
Y5599D01*
X128774Y5580D01*
Y5557D01*
X128770Y5531D01*
X128762Y5471D01*
X128744Y5400D01*
X128721Y5325D01*
X128688Y5246D01*
X128642Y5167D01*
Y5164D01*
X128635Y5160D01*
X128628Y5149D01*
X128616Y5134D01*
X128586Y5096D01*
X128541Y5051D01*
X128485Y4999D01*
X128418Y4946D01*
X128339Y4894D01*
X128245Y4845D01*
X128249D01*
X128260Y4841D01*
X128279Y4837D01*
X128301Y4830D01*
X128331Y4819D01*
X128361Y4808D01*
X128440Y4774D01*
X128523Y4733D01*
X128612Y4673D01*
X128699Y4605D01*
X128736Y4564D01*
X128774Y4519D01*
X128778Y4515D01*
X128781Y4507D01*
X128793Y4493D01*
X128804Y4474D01*
X128819Y4451D01*
X128834Y4421D01*
X128852Y4388D01*
X128871Y4350D01*
X128886Y4305D01*
X128905Y4260D01*
X128920Y4208D01*
X128935Y4155D01*
X128957Y4035D01*
X128961Y3968D01*
X128965Y3900D01*
Y3896D01*
Y3878D01*
X128961Y3851D01*
Y3818D01*
X128954Y3773D01*
X128946Y3724D01*
X128935Y3667D01*
X128920Y3604D01*
X128901Y3540D01*
X128875Y3472D01*
X128845Y3401D01*
X128811Y3330D01*
X128766Y3259D01*
X128718Y3184D01*
X128661Y3116D01*
X128597Y3049D01*
X128594Y3045D01*
X128583Y3034D01*
X128560Y3015D01*
X128530Y2996D01*
X128496Y2966D01*
X128451Y2940D01*
X128402Y2906D01*
X128342Y2876D01*
X128279Y2843D01*
X128208Y2809D01*
X128132Y2782D01*
X128050Y2756D01*
X127964Y2734D01*
X127870Y2715D01*
X127772Y2704D01*
X127667Y2700D01*
X127645D01*
X127619Y2704D01*
X127585D01*
X127540Y2708D01*
X127491Y2715D01*
X127435Y2726D01*
X127371Y2737D01*
X127307Y2753D01*
X127240Y2775D01*
X127169Y2798D01*
X127101Y2827D01*
X127030Y2861D01*
X126959Y2902D01*
X126891Y2947D01*
X126828Y3000D01*
X126824Y3004D01*
X126813Y3015D01*
X126797Y3030D01*
X126775Y3056D01*
X126749Y3086D01*
X126719Y3120D01*
X126689Y3161D01*
X126655Y3210D01*
X126621Y3263D01*
X126587Y3322D01*
X126558Y3386D01*
X126528Y3458D01*
X126501Y3532D01*
X126479Y3611D01*
X126460Y3694D01*
X126449Y3784D01*
X126921Y3847D01*
Y3844D01*
X126925Y3829D01*
X126929Y3810D01*
X126936Y3780D01*
X126944Y3750D01*
X126955Y3709D01*
X126970Y3667D01*
X126985Y3622D01*
X127023Y3529D01*
X127071Y3431D01*
X127128Y3341D01*
X127161Y3304D01*
X127195Y3266D01*
X127199D01*
X127202Y3259D01*
X127214Y3251D01*
X127229Y3240D01*
X127248Y3225D01*
X127270Y3210D01*
X127326Y3180D01*
X127398Y3146D01*
X127480Y3116D01*
X127570Y3097D01*
X127619Y3094D01*
X127671Y3090D01*
X127705D01*
X127727Y3094D01*
X127758Y3097D01*
X127787Y3101D01*
X127825Y3109D01*
X127866Y3120D01*
X127956Y3146D01*
X128001Y3165D01*
X128050Y3187D01*
X128099Y3214D01*
X128144Y3244D01*
X128189Y3277D01*
X128234Y3319D01*
X128237Y3322D01*
X128245Y3330D01*
X128256Y3341D01*
X128271Y3360D01*
X128286Y3382D01*
X128305Y3409D01*
X128328Y3439D01*
X128350Y3476D01*
X128369Y3514D01*
X128391Y3559D01*
X128429Y3656D01*
X128440Y3709D01*
X128451Y3765D01*
X128459Y3825D01*
X128463Y3889D01*
Y3892D01*
Y3904D01*
Y3919D01*
X128459Y3945D01*
X128455Y3971D01*
X128451Y4005D01*
X128444Y4039D01*
X128436Y4080D01*
X128410Y4163D01*
X128395Y4208D01*
X128373Y4253D01*
X128346Y4298D01*
X128320Y4343D01*
X128286Y4384D01*
X128249Y4425D01*
X128245Y4429D01*
X128237Y4433D01*
X128226Y4444D01*
X128211Y4459D01*
X128189Y4474D01*
X128163Y4493D01*
X128136Y4511D01*
X128103Y4530D01*
X128065Y4549D01*
X128024Y4567D01*
X127930Y4601D01*
X127825Y4628D01*
X127769Y4631D01*
X127709Y4635D01*
X127686D01*
X127656Y4631D01*
X127619Y4628D01*
X127570Y4624D01*
X127514Y4616D01*
X127450Y4601D01*
X127379Y4586D01*
X127431Y4999D01*
X127439D01*
X127457Y4995D01*
X127484Y4991D01*
X127536D01*
X127559Y4995D01*
X127585D01*
X127615Y4999D01*
X127649Y5006D01*
X127686Y5010D01*
X127772Y5029D01*
X127863Y5059D01*
X127956Y5096D01*
X128050Y5149D01*
X128054Y5153D01*
X128061Y5156D01*
X128073Y5164D01*
X128087Y5179D01*
X128106Y5194D01*
X128129Y5216D01*
X128147Y5239D01*
X128174Y5269D01*
X128196Y5299D01*
X128215Y5336D01*
X128237Y5378D01*
X128256Y5419D01*
X128271Y5468D01*
X128282Y5520D01*
X128290Y5573D01*
X128294Y5632D01*
Y5636D01*
Y5644D01*
Y5659D01*
X128290Y5677D01*
Y5700D01*
X128286Y5726D01*
X128271Y5786D01*
X128252Y5854D01*
X128219Y5925D01*
X128177Y5996D01*
X128147Y6030D01*
X128118Y6064D01*
X128114Y6067D01*
X128110Y6071D01*
X128099Y6079D01*
X128087Y6090D01*
X128046Y6120D01*
X127994Y6150D01*
X127930Y6180D01*
X127851Y6210D01*
X127761Y6229D01*
X127716Y6236D01*
X127638D01*
X127619Y6233D01*
X127593D01*
X127566Y6229D01*
X127503Y6214D01*
X127427Y6195D01*
X127352Y6161D01*
X127274Y6120D01*
X127236Y6090D01*
X127202Y6060D01*
X127199Y6056D01*
X127195Y6053D01*
X127184Y6041D01*
X127173Y6026D01*
X127157Y6011D01*
X127143Y5989D01*
X127124Y5962D01*
X127105Y5932D01*
X127086Y5895D01*
X127064Y5858D01*
X127045Y5816D01*
X127026Y5768D01*
X127011Y5719D01*
X126992Y5663D01*
X126981Y5606D01*
X126970Y5542D01*
X126497Y5625D01*
Y5629D01*
X126501Y5647D01*
X126509Y5670D01*
X126516Y5704D01*
X126528Y5741D01*
X126542Y5790D01*
X126558Y5839D01*
X126580Y5895D01*
X126602Y5951D01*
X126632Y6011D01*
X126663Y6075D01*
X126700Y6135D01*
X126737Y6195D01*
X126783Y6255D01*
X126835Y6307D01*
X126888Y6360D01*
X126891Y6364D01*
X126902Y6371D01*
X126918Y6382D01*
X126944Y6401D01*
X126974Y6420D01*
X127007Y6442D01*
X127052Y6469D01*
X127097Y6491D01*
X127150Y6517D01*
X127210Y6540D01*
X127274Y6562D01*
X127341Y6581D01*
X127412Y6600D01*
X127488Y6611D01*
X127570Y6619D01*
X127653Y6622D01*
X127682D01*
X127705Y6619D01*
D02*
G37*
G36*
X126055Y3919D02*
X124604D01*
Y4395D01*
X126055D01*
Y3919D01*
D02*
G37*
G36*
X123996Y2764D02*
X123471D01*
X121454Y5779D01*
Y2764D01*
X120966D01*
Y6607D01*
X121487D01*
X123509Y3589D01*
Y6607D01*
X123996D01*
Y2764D01*
D02*
G37*
G36*
X131245D02*
X130716D01*
X129231Y6607D01*
X129782D01*
X130780Y3814D01*
Y3810D01*
X130784Y3799D01*
X130791Y3780D01*
X130799Y3757D01*
X130810Y3728D01*
X130821Y3690D01*
X130836Y3652D01*
X130851Y3607D01*
X130881Y3510D01*
X130915Y3405D01*
X130949Y3296D01*
X130982Y3184D01*
Y3187D01*
X130986Y3199D01*
X130990Y3214D01*
X130998Y3236D01*
X131009Y3266D01*
X131016Y3300D01*
X131027Y3337D01*
X131043Y3382D01*
X131072Y3476D01*
X131106Y3581D01*
X131148Y3698D01*
X131189Y3814D01*
X132231Y6607D01*
X132749D01*
X131245Y2764D01*
D02*
G37*
G36*
X120179Y6154D02*
X117910D01*
Y4980D01*
X120036D01*
Y4526D01*
X117910D01*
Y3218D01*
X120269D01*
Y2764D01*
X117400D01*
Y6607D01*
X120179D01*
Y6154D01*
D02*
G37*
G36*
X58099Y10626D02*
X58140D01*
X58185Y10622D01*
X58237Y10614D01*
X58297Y10603D01*
X58365Y10592D01*
X58433Y10573D01*
X58504Y10554D01*
X58579Y10528D01*
X58650Y10498D01*
X58725Y10464D01*
X58793Y10423D01*
X58860Y10374D01*
X58924Y10322D01*
X58928Y10318D01*
X58939Y10307D01*
X58954Y10292D01*
X58973Y10266D01*
X58999Y10236D01*
X59025Y10202D01*
X59055Y10161D01*
X59085Y10112D01*
X59115Y10059D01*
X59145Y9999D01*
X59171Y9939D01*
X59197Y9872D01*
X59216Y9801D01*
X59231Y9722D01*
X59242Y9643D01*
X59246Y9561D01*
Y9557D01*
Y9549D01*
Y9538D01*
Y9523D01*
X59242Y9501D01*
Y9478D01*
X59235Y9418D01*
X59224Y9351D01*
X59205Y9272D01*
X59183Y9189D01*
X59149Y9107D01*
Y9103D01*
X59145Y9096D01*
X59137Y9084D01*
X59130Y9069D01*
X59119Y9047D01*
X59108Y9024D01*
X59074Y8964D01*
X59032Y8897D01*
X58976Y8814D01*
X58912Y8728D01*
X58834Y8638D01*
X58830Y8634D01*
X58823Y8627D01*
X58811Y8612D01*
X58793Y8593D01*
X58766Y8567D01*
X58740Y8537D01*
X58702Y8503D01*
X58661Y8462D01*
X58616Y8417D01*
X58560Y8364D01*
X58504Y8308D01*
X58436Y8248D01*
X58365Y8184D01*
X58286Y8113D01*
X58200Y8042D01*
X58110Y7963D01*
X58106Y7959D01*
X58091Y7948D01*
X58069Y7929D01*
X58043Y7907D01*
X58009Y7877D01*
X57971Y7843D01*
X57881Y7768D01*
X57791Y7689D01*
X57701Y7611D01*
X57660Y7573D01*
X57622Y7536D01*
X57589Y7506D01*
X57563Y7479D01*
X57559Y7476D01*
X57544Y7457D01*
X57521Y7431D01*
X57491Y7401D01*
X57461Y7359D01*
X57428Y7318D01*
X57394Y7273D01*
X57364Y7224D01*
X59250D01*
Y6771D01*
X56711D01*
Y6774D01*
Y6778D01*
Y6801D01*
Y6831D01*
X56715Y6876D01*
X56722Y6924D01*
X56730Y6981D01*
X56745Y7037D01*
X56764Y7097D01*
Y7101D01*
X56767Y7108D01*
X56775Y7123D01*
X56783Y7142D01*
X56794Y7164D01*
X56805Y7191D01*
X56839Y7258D01*
X56884Y7337D01*
X56936Y7423D01*
X57000Y7513D01*
X57075Y7607D01*
X57079Y7611D01*
X57086Y7618D01*
X57098Y7633D01*
X57116Y7652D01*
X57139Y7674D01*
X57165Y7704D01*
X57195Y7738D01*
X57232Y7776D01*
X57274Y7813D01*
X57319Y7858D01*
X57371Y7907D01*
X57424Y7959D01*
X57484Y8012D01*
X57547Y8068D01*
X57619Y8128D01*
X57690Y8188D01*
X57697Y8196D01*
X57716Y8211D01*
X57750Y8237D01*
X57791Y8274D01*
X57844Y8316D01*
X57900Y8368D01*
X57964Y8424D01*
X58031Y8484D01*
X58174Y8616D01*
X58312Y8751D01*
X58376Y8818D01*
X58436Y8886D01*
X58492Y8946D01*
X58538Y9006D01*
X58541Y9009D01*
X58549Y9021D01*
X58560Y9036D01*
X58571Y9058D01*
X58590Y9084D01*
X58609Y9114D01*
X58627Y9152D01*
X58650Y9189D01*
X58691Y9276D01*
X58729Y9369D01*
X58740Y9422D01*
X58751Y9471D01*
X58759Y9523D01*
X58763Y9572D01*
Y9576D01*
Y9583D01*
Y9598D01*
X58759Y9621D01*
X58755Y9643D01*
X58751Y9669D01*
X58736Y9737D01*
X58714Y9812D01*
X58676Y9891D01*
X58654Y9928D01*
X58627Y9969D01*
X58597Y10007D01*
X58560Y10044D01*
X58556Y10048D01*
X58552Y10052D01*
X58538Y10063D01*
X58522Y10074D01*
X58504Y10089D01*
X58477Y10104D01*
X58451Y10123D01*
X58417Y10142D01*
X58384Y10161D01*
X58342Y10179D01*
X58253Y10209D01*
X58151Y10232D01*
X58095Y10236D01*
X58035Y10239D01*
X58001D01*
X57979Y10236D01*
X57949Y10232D01*
X57915Y10228D01*
X57877Y10221D01*
X57840Y10213D01*
X57750Y10191D01*
X57660Y10153D01*
X57615Y10131D01*
X57570Y10101D01*
X57529Y10071D01*
X57487Y10033D01*
X57484Y10029D01*
X57480Y10026D01*
X57469Y10011D01*
X57458Y9996D01*
X57442Y9977D01*
X57424Y9951D01*
X57405Y9921D01*
X57386Y9887D01*
X57367Y9849D01*
X57349Y9808D01*
X57334Y9759D01*
X57315Y9711D01*
X57304Y9658D01*
X57292Y9598D01*
X57289Y9538D01*
X57285Y9471D01*
X56801Y9519D01*
Y9527D01*
X56805Y9542D01*
X56809Y9572D01*
X56813Y9609D01*
X56824Y9654D01*
X56835Y9707D01*
X56850Y9763D01*
X56865Y9827D01*
X56888Y9891D01*
X56914Y9958D01*
X56944Y10026D01*
X56977Y10097D01*
X57019Y10164D01*
X57064Y10228D01*
X57116Y10288D01*
X57173Y10344D01*
X57176Y10348D01*
X57187Y10356D01*
X57206Y10371D01*
X57232Y10389D01*
X57266Y10412D01*
X57304Y10434D01*
X57353Y10461D01*
X57405Y10487D01*
X57465Y10513D01*
X57529Y10539D01*
X57600Y10562D01*
X57679Y10584D01*
X57761Y10603D01*
X57851Y10618D01*
X57945Y10626D01*
X58046Y10629D01*
X58073D01*
X58099Y10626D01*
D02*
G37*
G36*
X54562Y10611D02*
X54611D01*
X54660Y10607D01*
X54773Y10599D01*
X54885Y10592D01*
X54994Y10577D01*
X55046Y10569D01*
X55091Y10558D01*
X55095D01*
X55106Y10554D01*
X55125Y10551D01*
X55147Y10543D01*
X55177Y10536D01*
X55208Y10524D01*
X55245Y10509D01*
X55286Y10494D01*
X55376Y10457D01*
X55470Y10408D01*
X55568Y10352D01*
X55658Y10281D01*
X55661Y10277D01*
X55673Y10269D01*
X55687Y10254D01*
X55706Y10236D01*
X55733Y10209D01*
X55762Y10179D01*
X55792Y10142D01*
X55830Y10104D01*
X55864Y10059D01*
X55901Y10007D01*
X55939Y9954D01*
X55976Y9898D01*
X56014Y9834D01*
X56047Y9767D01*
X56111Y9624D01*
Y9621D01*
X56119Y9606D01*
X56126Y9583D01*
X56134Y9553D01*
X56149Y9516D01*
X56160Y9471D01*
X56175Y9418D01*
X56190Y9362D01*
X56201Y9298D01*
X56216Y9227D01*
X56231Y9152D01*
X56243Y9073D01*
X56250Y8987D01*
X56257Y8901D01*
X56265Y8713D01*
Y8709D01*
Y8694D01*
Y8672D01*
Y8638D01*
X56261Y8601D01*
Y8556D01*
X56257Y8507D01*
X56254Y8451D01*
X56246Y8391D01*
X56239Y8331D01*
X56220Y8199D01*
X56194Y8064D01*
X56160Y7933D01*
Y7929D01*
X56156Y7918D01*
X56149Y7899D01*
X56141Y7877D01*
X56130Y7847D01*
X56119Y7813D01*
X56104Y7776D01*
X56089Y7738D01*
X56051Y7648D01*
X56006Y7554D01*
X55954Y7461D01*
X55897Y7374D01*
Y7371D01*
X55890Y7363D01*
X55883Y7352D01*
X55871Y7337D01*
X55838Y7299D01*
X55796Y7247D01*
X55744Y7191D01*
X55684Y7134D01*
X55620Y7078D01*
X55549Y7026D01*
X55545D01*
X55541Y7022D01*
X55530Y7014D01*
X55515Y7003D01*
X55496Y6996D01*
X55474Y6981D01*
X55421Y6954D01*
X55354Y6924D01*
X55275Y6891D01*
X55185Y6861D01*
X55088Y6834D01*
X55084D01*
X55076Y6831D01*
X55061Y6827D01*
X55039Y6823D01*
X55016Y6819D01*
X54986Y6816D01*
X54949Y6808D01*
X54911Y6804D01*
X54866Y6797D01*
X54821Y6789D01*
X54716Y6782D01*
X54600Y6774D01*
X54473Y6771D01*
X53085D01*
Y10614D01*
X54521D01*
X54562Y10611D01*
D02*
G37*
G36*
X52294Y10161D02*
X50025D01*
Y8987D01*
X52151D01*
Y8533D01*
X50025D01*
Y7224D01*
X52384D01*
Y6771D01*
X49515D01*
Y10614D01*
X52294D01*
Y10161D01*
D02*
G37*
G36*
X47010Y7224D02*
X48900D01*
Y6771D01*
X46500D01*
Y10614D01*
X47010D01*
Y7224D01*
D02*
G37*
G36*
X67249Y12062D02*
X66776D01*
Y15066D01*
X66773D01*
X66769Y15058D01*
X66758Y15051D01*
X66746Y15040D01*
X66709Y15006D01*
X66656Y14965D01*
X66593Y14916D01*
X66514Y14860D01*
X66424Y14799D01*
X66326Y14739D01*
X66322D01*
X66315Y14732D01*
X66300Y14725D01*
X66281Y14713D01*
X66255Y14698D01*
X66229Y14683D01*
X66161Y14649D01*
X66086Y14612D01*
X66004Y14571D01*
X65917Y14533D01*
X65835Y14500D01*
Y14953D01*
X65839Y14957D01*
X65854Y14961D01*
X65873Y14972D01*
X65903Y14987D01*
X65936Y15006D01*
X65974Y15028D01*
X66019Y15051D01*
X66067Y15081D01*
X66176Y15145D01*
X66293Y15223D01*
X66409Y15310D01*
X66525Y15403D01*
X66529Y15407D01*
X66536Y15415D01*
X66555Y15429D01*
X66574Y15448D01*
X66596Y15474D01*
X66626Y15501D01*
X66656Y15534D01*
X66690Y15568D01*
X66758Y15647D01*
X66825Y15733D01*
X66889Y15827D01*
X66919Y15872D01*
X66941Y15921D01*
X67249D01*
Y12062D01*
D02*
G37*
G36*
X63262Y15902D02*
X63311D01*
X63360Y15898D01*
X63472Y15891D01*
X63585Y15883D01*
X63694Y15868D01*
X63746Y15861D01*
X63791Y15849D01*
X63795D01*
X63806Y15846D01*
X63825Y15842D01*
X63848Y15834D01*
X63877Y15827D01*
X63907Y15816D01*
X63945Y15801D01*
X63986Y15786D01*
X64076Y15748D01*
X64170Y15699D01*
X64267Y15643D01*
X64358Y15572D01*
X64361Y15568D01*
X64372Y15561D01*
X64388Y15546D01*
X64406Y15527D01*
X64433Y15501D01*
X64463Y15471D01*
X64492Y15433D01*
X64530Y15396D01*
X64564Y15351D01*
X64601Y15298D01*
X64639Y15246D01*
X64676Y15190D01*
X64714Y15126D01*
X64748Y15058D01*
X64811Y14916D01*
Y14912D01*
X64819Y14897D01*
X64826Y14875D01*
X64834Y14844D01*
X64849Y14807D01*
X64860Y14762D01*
X64875Y14709D01*
X64890Y14653D01*
X64901Y14590D01*
X64916Y14518D01*
X64931Y14443D01*
X64943Y14365D01*
X64950Y14278D01*
X64957Y14192D01*
X64965Y14005D01*
Y14001D01*
Y13986D01*
Y13963D01*
Y13929D01*
X64961Y13892D01*
Y13847D01*
X64957Y13798D01*
X64954Y13742D01*
X64946Y13682D01*
X64939Y13622D01*
X64920Y13491D01*
X64894Y13356D01*
X64860Y13225D01*
Y13221D01*
X64856Y13209D01*
X64849Y13191D01*
X64841Y13168D01*
X64830Y13138D01*
X64819Y13104D01*
X64804Y13067D01*
X64789Y13029D01*
X64751Y12939D01*
X64706Y12846D01*
X64654Y12752D01*
X64597Y12666D01*
Y12662D01*
X64590Y12654D01*
X64583Y12643D01*
X64571Y12628D01*
X64538Y12591D01*
X64496Y12538D01*
X64444Y12482D01*
X64384Y12426D01*
X64320Y12370D01*
X64249Y12317D01*
X64245D01*
X64241Y12313D01*
X64230Y12306D01*
X64215Y12295D01*
X64196Y12287D01*
X64174Y12272D01*
X64121Y12246D01*
X64054Y12216D01*
X63975Y12182D01*
X63885Y12152D01*
X63788Y12126D01*
X63784D01*
X63776Y12122D01*
X63761Y12118D01*
X63739Y12115D01*
X63716Y12111D01*
X63686Y12107D01*
X63649Y12100D01*
X63611Y12096D01*
X63566Y12088D01*
X63521Y12081D01*
X63416Y12073D01*
X63300Y12066D01*
X63173Y12062D01*
X61785D01*
Y15906D01*
X63221D01*
X63262Y15902D01*
D02*
G37*
G36*
X60994Y15452D02*
X58725D01*
Y14278D01*
X60851D01*
Y13825D01*
X58725D01*
Y12516D01*
X61084D01*
Y12062D01*
X58215D01*
Y15906D01*
X60994D01*
Y15452D01*
D02*
G37*
G36*
X55710Y12516D02*
X57600D01*
Y12062D01*
X55200D01*
Y15906D01*
X55710D01*
Y12516D01*
D02*
G37*
G36*
X100461Y69549D02*
X100499D01*
X100544Y69545D01*
X100593Y69541D01*
X100645Y69534D01*
X100701Y69526D01*
X100761Y69519D01*
X100889Y69492D01*
X101016Y69459D01*
X101144Y69414D01*
X101147D01*
X101159Y69406D01*
X101174Y69399D01*
X101196Y69387D01*
X101226Y69372D01*
X101256Y69357D01*
X101328Y69312D01*
X101410Y69252D01*
X101493Y69185D01*
X101575Y69102D01*
X101646Y69009D01*
X101650Y69005D01*
X101654Y68997D01*
X101661Y68982D01*
X101672Y68964D01*
X101688Y68937D01*
X101702Y68907D01*
X101717Y68874D01*
X101736Y68832D01*
X101755Y68791D01*
X101770Y68746D01*
X101800Y68641D01*
X101826Y68529D01*
X101834Y68469D01*
X101838Y68405D01*
X101350Y68367D01*
Y68371D01*
X101346Y68382D01*
Y68401D01*
X101339Y68427D01*
X101335Y68457D01*
X101324Y68491D01*
X101312Y68529D01*
X101301Y68570D01*
X101268Y68660D01*
X101219Y68750D01*
X101189Y68795D01*
X101159Y68836D01*
X101121Y68877D01*
X101080Y68915D01*
X101076Y68919D01*
X101069Y68922D01*
X101058Y68934D01*
X101039Y68945D01*
X101016Y68960D01*
X100986Y68975D01*
X100952Y68990D01*
X100911Y69009D01*
X100866Y69027D01*
X100818Y69042D01*
X100765Y69057D01*
X100705Y69072D01*
X100637Y69084D01*
X100570Y69095D01*
X100491Y69099D01*
X100412Y69102D01*
X100367D01*
X100338Y69099D01*
X100300D01*
X100255Y69095D01*
X100206Y69087D01*
X100157Y69080D01*
X100045Y69061D01*
X99936Y69031D01*
X99880Y69009D01*
X99831Y68986D01*
X99783Y68960D01*
X99741Y68930D01*
X99738D01*
X99734Y68922D01*
X99708Y68900D01*
X99674Y68862D01*
X99636Y68817D01*
X99599Y68757D01*
X99565Y68686D01*
X99539Y68611D01*
X99535Y68570D01*
X99531Y68525D01*
Y68521D01*
Y68517D01*
Y68506D01*
X99535Y68491D01*
X99539Y68450D01*
X99550Y68405D01*
X99569Y68349D01*
X99591Y68292D01*
X99629Y68236D01*
X99677Y68184D01*
X99681D01*
X99685Y68176D01*
X99696Y68169D01*
X99711Y68161D01*
X99730Y68150D01*
X99756Y68135D01*
X99790Y68116D01*
X99827Y68097D01*
X99876Y68079D01*
X99929Y68056D01*
X99993Y68034D01*
X100064Y68011D01*
X100143Y67985D01*
X100233Y67959D01*
X100334Y67932D01*
X100443Y67906D01*
X100450D01*
X100469Y67899D01*
X100503Y67891D01*
X100544Y67884D01*
X100593Y67872D01*
X100653Y67857D01*
X100716Y67842D01*
X100784Y67824D01*
X100926Y67786D01*
X101065Y67745D01*
X101133Y67722D01*
X101192Y67704D01*
X101249Y67681D01*
X101297Y67662D01*
X101301D01*
X101312Y67655D01*
X101331Y67647D01*
X101354Y67636D01*
X101380Y67621D01*
X101410Y67602D01*
X101485Y67557D01*
X101564Y67501D01*
X101646Y67434D01*
X101725Y67359D01*
X101759Y67317D01*
X101793Y67272D01*
X101796Y67269D01*
X101800Y67261D01*
X101807Y67250D01*
X101819Y67231D01*
X101830Y67209D01*
X101845Y67182D01*
X101860Y67149D01*
X101875Y67115D01*
X101901Y67036D01*
X101927Y66942D01*
X101946Y66837D01*
X101954Y66781D01*
Y66725D01*
Y66721D01*
Y66710D01*
Y66695D01*
X101950Y66672D01*
Y66646D01*
X101946Y66612D01*
X101939Y66579D01*
X101931Y66537D01*
X101912Y66447D01*
X101879Y66350D01*
X101838Y66249D01*
X101807Y66200D01*
X101778Y66147D01*
X101774Y66144D01*
X101770Y66136D01*
X101759Y66121D01*
X101744Y66102D01*
X101725Y66080D01*
X101706Y66054D01*
X101680Y66024D01*
X101650Y65994D01*
X101612Y65960D01*
X101575Y65926D01*
X101534Y65892D01*
X101489Y65855D01*
X101388Y65787D01*
X101271Y65727D01*
X101268D01*
X101256Y65720D01*
X101237Y65712D01*
X101215Y65705D01*
X101181Y65694D01*
X101147Y65679D01*
X101102Y65667D01*
X101058Y65652D01*
X101005Y65637D01*
X100949Y65626D01*
X100885Y65611D01*
X100821Y65600D01*
X100682Y65585D01*
X100532Y65577D01*
X100484D01*
X100446Y65581D01*
X100401D01*
X100349Y65585D01*
X100293Y65589D01*
X100229Y65596D01*
X100161Y65604D01*
X100090Y65615D01*
X99944Y65641D01*
X99797Y65679D01*
X99726Y65701D01*
X99659Y65727D01*
X99655Y65731D01*
X99644Y65735D01*
X99625Y65742D01*
X99603Y65757D01*
X99572Y65772D01*
X99535Y65791D01*
X99497Y65814D01*
X99456Y65844D01*
X99370Y65907D01*
X99276Y65986D01*
X99186Y66080D01*
X99104Y66185D01*
X99100Y66189D01*
X99096Y66200D01*
X99085Y66215D01*
X99074Y66237D01*
X99059Y66267D01*
X99040Y66301D01*
X99021Y66342D01*
X99002Y66387D01*
X98984Y66436D01*
X98965Y66489D01*
X98950Y66545D01*
X98931Y66609D01*
X98909Y66740D01*
X98901Y66807D01*
X98897Y66879D01*
X99378Y66920D01*
Y66916D01*
Y66909D01*
X99381Y66894D01*
X99385Y66871D01*
X99389Y66845D01*
X99396Y66819D01*
X99411Y66751D01*
X99430Y66676D01*
X99460Y66597D01*
X99494Y66519D01*
X99535Y66444D01*
Y66440D01*
X99542Y66436D01*
X99558Y66414D01*
X99588Y66380D01*
X99629Y66339D01*
X99681Y66290D01*
X99749Y66241D01*
X99827Y66189D01*
X99918Y66144D01*
X99921D01*
X99929Y66140D01*
X99944Y66132D01*
X99963Y66125D01*
X99989Y66117D01*
X100019Y66110D01*
X100052Y66099D01*
X100090Y66087D01*
X100131Y66076D01*
X100176Y66069D01*
X100277Y66050D01*
X100390Y66035D01*
X100510Y66031D01*
X100559D01*
X100585Y66035D01*
X100615D01*
X100682Y66042D01*
X100761Y66054D01*
X100847Y66069D01*
X100934Y66087D01*
X101020Y66117D01*
X101024D01*
X101031Y66121D01*
X101042Y66125D01*
X101058Y66132D01*
X101099Y66151D01*
X101147Y66181D01*
X101200Y66215D01*
X101256Y66252D01*
X101309Y66301D01*
X101354Y66354D01*
X101357Y66361D01*
X101373Y66380D01*
X101388Y66410D01*
X101410Y66451D01*
X101429Y66500D01*
X101447Y66556D01*
X101459Y66616D01*
X101462Y66684D01*
Y66687D01*
Y66691D01*
Y66714D01*
X101459Y66747D01*
X101451Y66792D01*
X101436Y66841D01*
X101418Y66894D01*
X101391Y66946D01*
X101357Y66999D01*
X101354Y67006D01*
X101339Y67021D01*
X101312Y67047D01*
X101275Y67077D01*
X101226Y67115D01*
X101166Y67152D01*
X101095Y67190D01*
X101009Y67224D01*
X101001Y67227D01*
X100990Y67231D01*
X100975Y67235D01*
X100956Y67242D01*
X100934Y67250D01*
X100904Y67261D01*
X100866Y67272D01*
X100825Y67284D01*
X100776Y67299D01*
X100720Y67314D01*
X100656Y67329D01*
X100585Y67347D01*
X100506Y67366D01*
X100420Y67389D01*
X100326Y67411D01*
X100319D01*
X100304Y67419D01*
X100277Y67422D01*
X100240Y67434D01*
X100199Y67445D01*
X100146Y67456D01*
X100094Y67471D01*
X100034Y67490D01*
X99914Y67527D01*
X99790Y67565D01*
X99730Y67587D01*
X99677Y67610D01*
X99629Y67629D01*
X99584Y67651D01*
X99580D01*
X99572Y67659D01*
X99558Y67666D01*
X99539Y67677D01*
X99516Y67692D01*
X99490Y67707D01*
X99430Y67752D01*
X99362Y67805D01*
X99295Y67865D01*
X99231Y67936D01*
X99175Y68011D01*
Y68015D01*
X99168Y68022D01*
X99164Y68034D01*
X99152Y68049D01*
X99145Y68067D01*
X99134Y68094D01*
X99107Y68150D01*
X99081Y68221D01*
X99063Y68304D01*
X99047Y68394D01*
X99040Y68491D01*
Y68495D01*
Y68502D01*
Y68521D01*
X99044Y68540D01*
Y68566D01*
X99047Y68596D01*
X99055Y68630D01*
X99063Y68667D01*
X99081Y68750D01*
X99111Y68844D01*
X99152Y68937D01*
X99175Y68986D01*
X99205Y69035D01*
X99209Y69039D01*
X99212Y69046D01*
X99224Y69061D01*
X99235Y69076D01*
X99254Y69099D01*
X99273Y69121D01*
X99329Y69177D01*
X99396Y69241D01*
X99479Y69305D01*
X99572Y69369D01*
X99685Y69421D01*
X99689D01*
X99700Y69429D01*
X99719Y69432D01*
X99741Y69444D01*
X99771Y69451D01*
X99805Y69462D01*
X99846Y69474D01*
X99891Y69489D01*
X99944Y69500D01*
X99996Y69511D01*
X100056Y69522D01*
X100116Y69534D01*
X100248Y69549D01*
X100390Y69552D01*
X100431D01*
X100461Y69549D01*
D02*
G37*
G36*
X105408Y69031D02*
X104136D01*
Y65641D01*
X103626D01*
Y69031D01*
X102359D01*
Y69485D01*
X105408D01*
Y69031D01*
D02*
G37*
G36*
X97030Y69481D02*
X97079D01*
X97135Y69477D01*
X97191Y69474D01*
X97319Y69459D01*
X97450Y69440D01*
X97574Y69414D01*
X97630Y69399D01*
X97682Y69380D01*
X97686D01*
X97694Y69376D01*
X97709Y69369D01*
X97728Y69361D01*
X97750Y69346D01*
X97776Y69331D01*
X97836Y69294D01*
X97904Y69245D01*
X97975Y69181D01*
X98046Y69102D01*
X98110Y69012D01*
X98114Y69009D01*
X98118Y69001D01*
X98125Y68986D01*
X98136Y68967D01*
X98147Y68941D01*
X98163Y68911D01*
X98177Y68881D01*
X98193Y68844D01*
X98219Y68757D01*
X98245Y68660D01*
X98264Y68551D01*
X98271Y68495D01*
Y68435D01*
Y68431D01*
Y68416D01*
Y68394D01*
X98268Y68367D01*
X98264Y68330D01*
X98256Y68292D01*
X98249Y68244D01*
X98238Y68195D01*
X98223Y68142D01*
X98207Y68086D01*
X98185Y68030D01*
X98159Y67970D01*
X98129Y67914D01*
X98091Y67854D01*
X98054Y67797D01*
X98005Y67745D01*
X98001Y67741D01*
X97994Y67734D01*
X97979Y67719D01*
X97956Y67700D01*
X97926Y67677D01*
X97892Y67651D01*
X97851Y67625D01*
X97803Y67595D01*
X97750Y67565D01*
X97690Y67535D01*
X97623Y67505D01*
X97548Y67475D01*
X97469Y67449D01*
X97382Y67426D01*
X97289Y67404D01*
X97188Y67389D01*
X97191D01*
X97195Y67385D01*
X97206Y67377D01*
X97221Y67374D01*
X97259Y67351D01*
X97304Y67329D01*
X97352Y67299D01*
X97401Y67269D01*
X97450Y67231D01*
X97495Y67197D01*
X97499Y67194D01*
X97506Y67190D01*
X97518Y67175D01*
X97532Y67160D01*
X97551Y67141D01*
X97574Y67115D01*
X97600Y67089D01*
X97630Y67055D01*
X97694Y66980D01*
X97765Y66894D01*
X97840Y66792D01*
X97915Y66684D01*
X98579Y65641D01*
X97945D01*
X97435Y66440D01*
X97431Y66444D01*
X97424Y66455D01*
X97413Y66474D01*
X97398Y66496D01*
X97379Y66526D01*
X97356Y66560D01*
X97307Y66635D01*
X97247Y66721D01*
X97188Y66807D01*
X97124Y66894D01*
X97097Y66931D01*
X97067Y66969D01*
Y66972D01*
X97060Y66976D01*
X97045Y66999D01*
X97015Y67032D01*
X96981Y67070D01*
X96940Y67111D01*
X96899Y67152D01*
X96854Y67194D01*
X96809Y67224D01*
X96805Y67227D01*
X96790Y67235D01*
X96767Y67250D01*
X96737Y67265D01*
X96704Y67284D01*
X96666Y67299D01*
X96625Y67317D01*
X96580Y67329D01*
X96576D01*
X96565Y67332D01*
X96543Y67336D01*
X96513Y67340D01*
X96475D01*
X96426Y67344D01*
X96366Y67347D01*
X95710D01*
Y65641D01*
X95200D01*
Y69485D01*
X96989D01*
X97030Y69481D01*
D02*
G37*
G36*
X101896Y89613D02*
X101371D01*
X99354Y92628D01*
Y89613D01*
X98866D01*
Y93457D01*
X99388D01*
X101409Y90438D01*
Y93457D01*
X101896D01*
Y89613D01*
D02*
G37*
G36*
X98079Y93003D02*
X95810D01*
Y91830D01*
X97936D01*
Y91376D01*
X95810D01*
Y90067D01*
X98169D01*
Y89613D01*
X95300D01*
Y93457D01*
X98079D01*
Y93003D01*
D02*
G37*
G36*
X102937Y15358D02*
X102968D01*
X102998Y15354D01*
X103035Y15350D01*
X103076Y15346D01*
X103166Y15327D01*
X103260Y15305D01*
X103361Y15271D01*
X103463Y15226D01*
X103466D01*
X103474Y15219D01*
X103489Y15211D01*
X103507Y15200D01*
X103530Y15189D01*
X103552Y15170D01*
X103612Y15129D01*
X103680Y15076D01*
X103747Y15012D01*
X103811Y14938D01*
X103867Y14855D01*
Y14851D01*
X103875Y14844D01*
X103883Y14832D01*
X103890Y14814D01*
X103901Y14795D01*
X103912Y14769D01*
X103939Y14705D01*
X103965Y14634D01*
X103988Y14548D01*
X104002Y14457D01*
X104010Y14360D01*
Y14356D01*
Y14349D01*
Y14337D01*
X104006Y14319D01*
Y14296D01*
X104002Y14270D01*
X103995Y14210D01*
X103976Y14139D01*
X103954Y14064D01*
X103920Y13985D01*
X103875Y13906D01*
Y13903D01*
X103867Y13899D01*
X103860Y13887D01*
X103849Y13872D01*
X103819Y13835D01*
X103774Y13790D01*
X103718Y13737D01*
X103650Y13685D01*
X103571Y13633D01*
X103478Y13584D01*
X103481D01*
X103492Y13580D01*
X103511Y13576D01*
X103534Y13569D01*
X103564Y13557D01*
X103594Y13546D01*
X103673Y13512D01*
X103755Y13471D01*
X103845Y13411D01*
X103931Y13344D01*
X103969Y13303D01*
X104006Y13258D01*
X104010Y13254D01*
X104014Y13246D01*
X104025Y13231D01*
X104036Y13213D01*
X104051Y13190D01*
X104066Y13160D01*
X104085Y13126D01*
X104104Y13089D01*
X104119Y13044D01*
X104138Y12999D01*
X104153Y12946D01*
X104167Y12894D01*
X104190Y12774D01*
X104194Y12706D01*
X104198Y12639D01*
Y12635D01*
Y12616D01*
X104194Y12590D01*
Y12556D01*
X104186Y12511D01*
X104179Y12462D01*
X104167Y12406D01*
X104153Y12342D01*
X104134Y12279D01*
X104107Y12211D01*
X104077Y12140D01*
X104044Y12069D01*
X103999Y11998D01*
X103950Y11923D01*
X103894Y11855D01*
X103830Y11788D01*
X103826Y11784D01*
X103815Y11772D01*
X103793Y11754D01*
X103762Y11735D01*
X103729Y11705D01*
X103684Y11679D01*
X103635Y11645D01*
X103575Y11615D01*
X103511Y11581D01*
X103440Y11547D01*
X103365Y11521D01*
X103282Y11495D01*
X103196Y11473D01*
X103103Y11454D01*
X103005Y11443D01*
X102900Y11439D01*
X102877D01*
X102851Y11443D01*
X102817D01*
X102772Y11446D01*
X102724Y11454D01*
X102667Y11465D01*
X102604Y11476D01*
X102540Y11491D01*
X102472Y11514D01*
X102401Y11536D01*
X102334Y11566D01*
X102262Y11600D01*
X102191Y11641D01*
X102124Y11686D01*
X102060Y11739D01*
X102056Y11743D01*
X102045Y11754D01*
X102030Y11769D01*
X102007Y11795D01*
X101981Y11825D01*
X101951Y11859D01*
X101921Y11900D01*
X101888Y11949D01*
X101854Y12001D01*
X101820Y12061D01*
X101790Y12125D01*
X101760Y12196D01*
X101734Y12271D01*
X101711Y12350D01*
X101692Y12432D01*
X101681Y12522D01*
X102154Y12586D01*
Y12583D01*
X102157Y12567D01*
X102161Y12549D01*
X102169Y12519D01*
X102176Y12489D01*
X102188Y12448D01*
X102202Y12406D01*
X102217Y12361D01*
X102255Y12268D01*
X102304Y12170D01*
X102360Y12080D01*
X102394Y12043D01*
X102427Y12005D01*
X102431D01*
X102435Y11998D01*
X102446Y11990D01*
X102461Y11979D01*
X102480Y11964D01*
X102503Y11949D01*
X102559Y11919D01*
X102630Y11885D01*
X102713Y11855D01*
X102803Y11836D01*
X102851Y11833D01*
X102904Y11829D01*
X102937D01*
X102960Y11833D01*
X102990Y11836D01*
X103020Y11840D01*
X103058Y11847D01*
X103099Y11859D01*
X103189Y11885D01*
X103234Y11904D01*
X103282Y11926D01*
X103331Y11953D01*
X103376Y11982D01*
X103421Y12016D01*
X103466Y12058D01*
X103470Y12061D01*
X103478Y12069D01*
X103489Y12080D01*
X103504Y12099D01*
X103519Y12121D01*
X103537Y12148D01*
X103560Y12178D01*
X103583Y12215D01*
X103601Y12252D01*
X103624Y12297D01*
X103661Y12395D01*
X103673Y12448D01*
X103684Y12504D01*
X103691Y12564D01*
X103695Y12628D01*
Y12631D01*
Y12642D01*
Y12657D01*
X103691Y12684D01*
X103688Y12710D01*
X103684Y12744D01*
X103676Y12777D01*
X103669Y12819D01*
X103642Y12901D01*
X103628Y12946D01*
X103605Y12991D01*
X103579Y13036D01*
X103552Y13081D01*
X103519Y13123D01*
X103481Y13164D01*
X103478Y13168D01*
X103470Y13171D01*
X103459Y13183D01*
X103444Y13197D01*
X103421Y13213D01*
X103395Y13231D01*
X103369Y13250D01*
X103335Y13269D01*
X103297Y13287D01*
X103256Y13306D01*
X103163Y13340D01*
X103058Y13366D01*
X103001Y13370D01*
X102941Y13374D01*
X102919D01*
X102889Y13370D01*
X102851Y13366D01*
X102803Y13363D01*
X102746Y13355D01*
X102682Y13340D01*
X102611Y13325D01*
X102664Y13737D01*
X102671D01*
X102690Y13734D01*
X102716Y13730D01*
X102769D01*
X102791Y13734D01*
X102817D01*
X102848Y13737D01*
X102881Y13745D01*
X102919Y13749D01*
X103005Y13768D01*
X103095Y13798D01*
X103189Y13835D01*
X103282Y13887D01*
X103286Y13891D01*
X103294Y13895D01*
X103305Y13903D01*
X103320Y13917D01*
X103339Y13932D01*
X103361Y13955D01*
X103380Y13977D01*
X103406Y14007D01*
X103429Y14038D01*
X103447Y14075D01*
X103470Y14116D01*
X103489Y14157D01*
X103504Y14206D01*
X103515Y14259D01*
X103523Y14311D01*
X103526Y14371D01*
Y14375D01*
Y14382D01*
Y14398D01*
X103523Y14416D01*
Y14439D01*
X103519Y14465D01*
X103504Y14525D01*
X103485Y14593D01*
X103451Y14664D01*
X103410Y14735D01*
X103380Y14769D01*
X103350Y14803D01*
X103346Y14806D01*
X103342Y14810D01*
X103331Y14818D01*
X103320Y14829D01*
X103279Y14859D01*
X103226Y14889D01*
X103163Y14919D01*
X103084Y14949D01*
X102994Y14967D01*
X102949Y14975D01*
X102870D01*
X102851Y14971D01*
X102825D01*
X102799Y14967D01*
X102735Y14953D01*
X102660Y14934D01*
X102585Y14900D01*
X102506Y14859D01*
X102469Y14829D01*
X102435Y14799D01*
X102431Y14795D01*
X102427Y14791D01*
X102416Y14780D01*
X102405Y14765D01*
X102390Y14750D01*
X102375Y14728D01*
X102356Y14701D01*
X102338Y14671D01*
X102319Y14634D01*
X102296Y14596D01*
X102278Y14555D01*
X102259Y14506D01*
X102244Y14457D01*
X102225Y14401D01*
X102214Y14345D01*
X102202Y14281D01*
X101730Y14364D01*
Y14367D01*
X101734Y14386D01*
X101741Y14409D01*
X101749Y14443D01*
X101760Y14480D01*
X101775Y14529D01*
X101790Y14578D01*
X101813Y14634D01*
X101835Y14690D01*
X101865Y14750D01*
X101895Y14814D01*
X101933Y14874D01*
X101970Y14934D01*
X102015Y14994D01*
X102067Y15046D01*
X102120Y15099D01*
X102124Y15102D01*
X102135Y15110D01*
X102150Y15121D01*
X102176Y15140D01*
X102206Y15159D01*
X102240Y15181D01*
X102285Y15207D01*
X102330Y15230D01*
X102383Y15256D01*
X102443Y15279D01*
X102506Y15301D01*
X102574Y15320D01*
X102645Y15339D01*
X102720Y15350D01*
X102803Y15358D01*
X102885Y15361D01*
X102915D01*
X102937Y15358D01*
D02*
G37*
G36*
X101025Y13126D02*
Y13119D01*
Y13100D01*
Y13070D01*
X101021Y13029D01*
Y12980D01*
X101017Y12924D01*
X101014Y12860D01*
X101010Y12792D01*
X101003Y12721D01*
X100991Y12646D01*
X100969Y12493D01*
X100939Y12342D01*
X100916Y12271D01*
X100894Y12204D01*
Y12200D01*
X100886Y12189D01*
X100879Y12170D01*
X100867Y12148D01*
X100853Y12117D01*
X100834Y12084D01*
X100811Y12046D01*
X100785Y12005D01*
X100755Y11964D01*
X100721Y11919D01*
X100680Y11874D01*
X100639Y11825D01*
X100590Y11780D01*
X100538Y11735D01*
X100481Y11690D01*
X100417Y11649D01*
X100414Y11645D01*
X100402Y11641D01*
X100384Y11630D01*
X100357Y11615D01*
X100320Y11600D01*
X100279Y11581D01*
X100234Y11563D01*
X100178Y11544D01*
X100118Y11525D01*
X100050Y11506D01*
X99975Y11488D01*
X99896Y11473D01*
X99810Y11457D01*
X99720Y11446D01*
X99622Y11443D01*
X99521Y11439D01*
X99469D01*
X99431Y11443D01*
X99386Y11446D01*
X99334Y11450D01*
X99274Y11454D01*
X99210Y11461D01*
X99139Y11473D01*
X99067Y11484D01*
X98921Y11518D01*
X98846Y11536D01*
X98775Y11563D01*
X98704Y11589D01*
X98636Y11622D01*
X98633Y11626D01*
X98621Y11630D01*
X98602Y11641D01*
X98580Y11656D01*
X98554Y11675D01*
X98520Y11701D01*
X98486Y11727D01*
X98449Y11761D01*
X98408Y11795D01*
X98366Y11836D01*
X98325Y11881D01*
X98287Y11930D01*
X98250Y11982D01*
X98212Y12039D01*
X98179Y12099D01*
X98149Y12162D01*
Y12166D01*
X98141Y12178D01*
X98134Y12200D01*
X98126Y12226D01*
X98115Y12264D01*
X98104Y12305D01*
X98089Y12358D01*
X98077Y12414D01*
X98062Y12481D01*
X98048Y12552D01*
X98036Y12631D01*
X98025Y12718D01*
X98018Y12811D01*
X98010Y12909D01*
X98002Y13014D01*
Y13126D01*
Y15346D01*
X98513D01*
Y13126D01*
Y13123D01*
Y13104D01*
Y13078D01*
Y13044D01*
X98516Y13002D01*
Y12957D01*
X98520Y12905D01*
X98524Y12849D01*
X98535Y12725D01*
X98550Y12605D01*
X98561Y12545D01*
X98572Y12489D01*
X98588Y12436D01*
X98602Y12387D01*
Y12384D01*
X98606Y12376D01*
X98614Y12365D01*
X98621Y12350D01*
X98644Y12305D01*
X98677Y12252D01*
X98722Y12196D01*
X98775Y12136D01*
X98843Y12076D01*
X98921Y12024D01*
X98925D01*
X98932Y12020D01*
X98944Y12013D01*
X98962Y12005D01*
X98985Y11994D01*
X99011Y11982D01*
X99041Y11971D01*
X99075Y11960D01*
X99116Y11949D01*
X99158Y11937D01*
X99251Y11915D01*
X99360Y11900D01*
X99476Y11896D01*
X99529D01*
X99566Y11900D01*
X99615Y11904D01*
X99668Y11911D01*
X99724Y11919D01*
X99787Y11926D01*
X99919Y11956D01*
X99983Y11979D01*
X100050Y12001D01*
X100114Y12031D01*
X100174Y12065D01*
X100226Y12103D01*
X100275Y12148D01*
X100279Y12151D01*
X100286Y12159D01*
X100297Y12178D01*
X100312Y12200D01*
X100331Y12230D01*
X100350Y12268D01*
X100373Y12313D01*
X100395Y12365D01*
X100417Y12429D01*
X100440Y12500D01*
X100459Y12579D01*
X100478Y12669D01*
X100493Y12766D01*
X100504Y12875D01*
X100511Y12995D01*
X100515Y13126D01*
Y15346D01*
X101025D01*
Y13126D01*
D02*
G37*
G36*
X143333Y4500D02*
Y4495D01*
Y4470D01*
Y4440D01*
Y4395D01*
X143327Y4340D01*
X143323Y4280D01*
X143317Y4210D01*
X143313Y4135D01*
X143292Y3975D01*
X143268Y3810D01*
X143228Y3650D01*
X143202Y3575D01*
X143173Y3505D01*
Y3500D01*
X143167Y3490D01*
X143157Y3470D01*
X143142Y3450D01*
X143128Y3420D01*
X143107Y3385D01*
X143052Y3305D01*
X142982Y3220D01*
X142897Y3130D01*
X142798Y3045D01*
X142677Y2970D01*
X142673D01*
X142663Y2960D01*
X142642Y2955D01*
X142617Y2940D01*
X142587Y2925D01*
X142548Y2910D01*
X142502Y2895D01*
X142453Y2880D01*
X142397Y2860D01*
X142338Y2845D01*
X142202Y2815D01*
X142052Y2795D01*
X141887Y2785D01*
X141858D01*
X141823Y2790D01*
X141778D01*
X141723Y2795D01*
X141657Y2805D01*
X141583Y2815D01*
X141507Y2835D01*
X141422Y2855D01*
X141338Y2880D01*
X141253Y2910D01*
X141167Y2950D01*
X141083Y2990D01*
X141003Y3045D01*
X140922Y3100D01*
X140852Y3170D01*
X140848Y3175D01*
X140838Y3190D01*
X140817Y3210D01*
X140797Y3240D01*
X140772Y3285D01*
X140743Y3330D01*
X140708Y3390D01*
X140677Y3460D01*
X140642Y3535D01*
X140612Y3620D01*
X140583Y3715D01*
X140558Y3820D01*
X140538Y3930D01*
X140523Y4050D01*
X140513Y4180D01*
Y4320D01*
X141122Y4405D01*
Y4400D01*
Y4380D01*
X141128Y4350D01*
Y4310D01*
X141132Y4265D01*
X141138Y4210D01*
X141147Y4150D01*
X141157Y4085D01*
X141182Y3955D01*
X141223Y3820D01*
X141247Y3760D01*
X141272Y3700D01*
X141303Y3650D01*
X141338Y3605D01*
X141348Y3595D01*
X141373Y3570D01*
X141418Y3535D01*
X141482Y3500D01*
X141558Y3460D01*
X141653Y3425D01*
X141762Y3400D01*
X141817Y3395D01*
X141883Y3390D01*
X141928D01*
X141972Y3395D01*
X142033Y3405D01*
X142103Y3420D01*
X142177Y3440D01*
X142253Y3465D01*
X142323Y3505D01*
X142332Y3510D01*
X142352Y3525D01*
X142383Y3550D01*
X142422Y3590D01*
X142467Y3635D01*
X142508Y3685D01*
X142548Y3750D01*
X142578Y3820D01*
X142582Y3830D01*
X142587Y3860D01*
X142597Y3880D01*
X142603Y3910D01*
X142607Y3940D01*
X142617Y3980D01*
X142622Y4020D01*
X142628Y4070D01*
X142638Y4120D01*
X142642Y4180D01*
X142648Y4240D01*
Y4310D01*
X142652Y4385D01*
Y4465D01*
Y7995D01*
X143333D01*
Y4500D01*
D02*
G37*
G36*
X145952Y8010D02*
X146008D01*
X146068Y8005D01*
X146137Y7995D01*
X146218Y7980D01*
X146308Y7965D01*
X146397Y7940D01*
X146493Y7915D01*
X146592Y7880D01*
X146687Y7840D01*
X146788Y7795D01*
X146878Y7740D01*
X146967Y7675D01*
X147053Y7605D01*
X147057Y7600D01*
X147073Y7585D01*
X147092Y7565D01*
X147117Y7530D01*
X147152Y7490D01*
X147187Y7445D01*
X147228Y7390D01*
X147267Y7325D01*
X147308Y7255D01*
X147347Y7175D01*
X147382Y7095D01*
X147417Y7005D01*
X147442Y6910D01*
X147462Y6805D01*
X147477Y6700D01*
X147483Y6590D01*
Y6585D01*
Y6575D01*
Y6560D01*
Y6540D01*
X147477Y6510D01*
Y6480D01*
X147468Y6400D01*
X147452Y6310D01*
X147427Y6205D01*
X147397Y6095D01*
X147353Y5985D01*
Y5980D01*
X147347Y5970D01*
X147337Y5955D01*
X147327Y5935D01*
X147312Y5905D01*
X147298Y5875D01*
X147253Y5795D01*
X147197Y5705D01*
X147123Y5595D01*
X147037Y5480D01*
X146932Y5360D01*
X146927Y5355D01*
X146917Y5345D01*
X146903Y5325D01*
X146878Y5300D01*
X146843Y5265D01*
X146808Y5225D01*
X146757Y5180D01*
X146703Y5125D01*
X146642Y5065D01*
X146567Y4995D01*
X146493Y4920D01*
X146403Y4840D01*
X146308Y4755D01*
X146203Y4660D01*
X146088Y4565D01*
X145967Y4460D01*
X145963Y4455D01*
X145942Y4440D01*
X145913Y4415D01*
X145878Y4385D01*
X145833Y4345D01*
X145782Y4300D01*
X145662Y4200D01*
X145543Y4095D01*
X145422Y3990D01*
X145368Y3940D01*
X145317Y3890D01*
X145273Y3850D01*
X145238Y3815D01*
X145232Y3810D01*
X145212Y3785D01*
X145183Y3750D01*
X145142Y3710D01*
X145103Y3655D01*
X145057Y3600D01*
X145012Y3540D01*
X144973Y3475D01*
X147487D01*
Y2870D01*
X144103D01*
Y2875D01*
Y2880D01*
Y2910D01*
Y2950D01*
X144107Y3010D01*
X144117Y3075D01*
X144128Y3150D01*
X144148Y3225D01*
X144173Y3305D01*
Y3310D01*
X144177Y3320D01*
X144187Y3340D01*
X144197Y3365D01*
X144212Y3395D01*
X144228Y3430D01*
X144272Y3520D01*
X144333Y3625D01*
X144403Y3740D01*
X144488Y3860D01*
X144588Y3985D01*
X144592Y3990D01*
X144603Y4000D01*
X144617Y4020D01*
X144642Y4045D01*
X144673Y4075D01*
X144708Y4115D01*
X144747Y4160D01*
X144798Y4210D01*
X144852Y4260D01*
X144913Y4320D01*
X144983Y4385D01*
X145053Y4455D01*
X145133Y4525D01*
X145218Y4600D01*
X145312Y4680D01*
X145407Y4760D01*
X145417Y4770D01*
X145442Y4790D01*
X145487Y4825D01*
X145543Y4875D01*
X145613Y4930D01*
X145687Y5000D01*
X145773Y5075D01*
X145862Y5155D01*
X146053Y5330D01*
X146238Y5510D01*
X146323Y5600D01*
X146403Y5690D01*
X146477Y5770D01*
X146537Y5850D01*
X146543Y5855D01*
X146553Y5870D01*
X146567Y5890D01*
X146582Y5920D01*
X146607Y5955D01*
X146633Y5995D01*
X146658Y6045D01*
X146687Y6095D01*
X146742Y6210D01*
X146792Y6335D01*
X146808Y6405D01*
X146823Y6470D01*
X146833Y6540D01*
X146837Y6605D01*
Y6610D01*
Y6620D01*
Y6640D01*
X146833Y6670D01*
X146827Y6700D01*
X146823Y6735D01*
X146802Y6825D01*
X146773Y6925D01*
X146722Y7030D01*
X146693Y7080D01*
X146658Y7135D01*
X146617Y7185D01*
X146567Y7235D01*
X146563Y7240D01*
X146557Y7245D01*
X146537Y7260D01*
X146518Y7275D01*
X146493Y7295D01*
X146458Y7315D01*
X146423Y7340D01*
X146378Y7365D01*
X146333Y7390D01*
X146277Y7415D01*
X146158Y7455D01*
X146022Y7485D01*
X145948Y7490D01*
X145868Y7495D01*
X145823D01*
X145792Y7490D01*
X145753Y7485D01*
X145707Y7480D01*
X145658Y7470D01*
X145607Y7460D01*
X145487Y7430D01*
X145368Y7380D01*
X145308Y7350D01*
X145247Y7310D01*
X145193Y7270D01*
X145138Y7220D01*
X145133Y7215D01*
X145127Y7210D01*
X145113Y7190D01*
X145097Y7170D01*
X145078Y7145D01*
X145053Y7110D01*
X145027Y7070D01*
X145002Y7025D01*
X144977Y6975D01*
X144952Y6920D01*
X144932Y6855D01*
X144907Y6790D01*
X144893Y6720D01*
X144878Y6640D01*
X144872Y6560D01*
X144868Y6470D01*
X144222Y6535D01*
Y6545D01*
X144228Y6565D01*
X144232Y6605D01*
X144237Y6655D01*
X144253Y6715D01*
X144267Y6785D01*
X144288Y6860D01*
X144307Y6945D01*
X144337Y7030D01*
X144372Y7120D01*
X144413Y7210D01*
X144457Y7305D01*
X144512Y7395D01*
X144572Y7480D01*
X144642Y7560D01*
X144718Y7635D01*
X144722Y7640D01*
X144738Y7650D01*
X144763Y7670D01*
X144798Y7695D01*
X144843Y7725D01*
X144893Y7755D01*
X144957Y7790D01*
X145027Y7825D01*
X145107Y7860D01*
X145193Y7895D01*
X145288Y7925D01*
X145393Y7955D01*
X145502Y7980D01*
X145623Y8000D01*
X145747Y8010D01*
X145882Y8015D01*
X145917D01*
X145952Y8010D01*
D02*
G37*
G36*
X184850Y74325D02*
Y74321D01*
Y74303D01*
Y74280D01*
Y74246D01*
X184846Y74205D01*
X184843Y74160D01*
X184839Y74107D01*
X184835Y74051D01*
X184820Y73931D01*
X184801Y73808D01*
X184771Y73687D01*
X184753Y73631D01*
X184730Y73579D01*
Y73575D01*
X184726Y73567D01*
X184719Y73553D01*
X184707Y73537D01*
X184696Y73515D01*
X184681Y73489D01*
X184640Y73429D01*
X184588Y73365D01*
X184524Y73298D01*
X184449Y73234D01*
X184359Y73177D01*
X184355D01*
X184347Y73170D01*
X184333Y73166D01*
X184314Y73155D01*
X184291Y73144D01*
X184261Y73132D01*
X184228Y73121D01*
X184190Y73110D01*
X184149Y73095D01*
X184104Y73084D01*
X184002Y73061D01*
X183890Y73046D01*
X183766Y73039D01*
X183744D01*
X183718Y73043D01*
X183684D01*
X183642Y73046D01*
X183594Y73054D01*
X183537Y73061D01*
X183481Y73076D01*
X183417Y73091D01*
X183354Y73110D01*
X183290Y73132D01*
X183226Y73163D01*
X183162Y73193D01*
X183103Y73234D01*
X183043Y73275D01*
X182990Y73327D01*
X182986Y73331D01*
X182979Y73343D01*
X182964Y73357D01*
X182949Y73380D01*
X182930Y73414D01*
X182907Y73448D01*
X182881Y73492D01*
X182859Y73545D01*
X182833Y73601D01*
X182810Y73665D01*
X182788Y73736D01*
X182769Y73815D01*
X182754Y73897D01*
X182743Y73988D01*
X182735Y74085D01*
Y74190D01*
X183193Y74254D01*
Y74250D01*
Y74235D01*
X183196Y74212D01*
Y74182D01*
X183200Y74149D01*
X183204Y74107D01*
X183211Y74063D01*
X183219Y74014D01*
X183238Y73916D01*
X183267Y73815D01*
X183286Y73770D01*
X183305Y73725D01*
X183327Y73687D01*
X183354Y73654D01*
X183361Y73646D01*
X183380Y73628D01*
X183414Y73601D01*
X183463Y73575D01*
X183519Y73545D01*
X183590Y73519D01*
X183672Y73500D01*
X183714Y73496D01*
X183763Y73492D01*
X183796D01*
X183830Y73496D01*
X183875Y73504D01*
X183928Y73515D01*
X183984Y73530D01*
X184040Y73549D01*
X184092Y73579D01*
X184100Y73583D01*
X184115Y73594D01*
X184137Y73612D01*
X184168Y73642D01*
X184201Y73676D01*
X184231Y73714D01*
X184261Y73763D01*
X184284Y73815D01*
X184288Y73822D01*
X184291Y73845D01*
X184299Y73860D01*
X184302Y73883D01*
X184306Y73905D01*
X184314Y73935D01*
X184318Y73965D01*
X184321Y74002D01*
X184329Y74040D01*
X184333Y74085D01*
X184336Y74130D01*
Y74182D01*
X184340Y74239D01*
Y74299D01*
Y76946D01*
X184850D01*
Y74325D01*
D02*
G37*
G36*
X187265Y73102D02*
X186793D01*
Y76106D01*
X186789D01*
X186785Y76099D01*
X186774Y76091D01*
X186762Y76080D01*
X186725Y76046D01*
X186672Y76005D01*
X186609Y75956D01*
X186530Y75900D01*
X186440Y75840D01*
X186343Y75780D01*
X186339D01*
X186331Y75773D01*
X186316Y75765D01*
X186298Y75754D01*
X186271Y75739D01*
X186245Y75724D01*
X186178Y75690D01*
X186102Y75652D01*
X186020Y75611D01*
X185934Y75574D01*
X185851Y75540D01*
Y75994D01*
X185855Y75998D01*
X185870Y76001D01*
X185889Y76012D01*
X185919Y76028D01*
X185952Y76046D01*
X185990Y76069D01*
X186035Y76091D01*
X186084Y76121D01*
X186193Y76185D01*
X186309Y76264D01*
X186425Y76350D01*
X186541Y76444D01*
X186545Y76447D01*
X186553Y76455D01*
X186571Y76470D01*
X186590Y76489D01*
X186612Y76515D01*
X186643Y76541D01*
X186672Y76575D01*
X186706Y76609D01*
X186774Y76688D01*
X186841Y76774D01*
X186905Y76868D01*
X186935Y76912D01*
X186958Y76961D01*
X187265D01*
Y73102D01*
D02*
G37*
G36*
X109446Y43126D02*
Y43119D01*
Y43100D01*
Y43070D01*
X109442Y43029D01*
Y42980D01*
X109438Y42924D01*
X109434Y42860D01*
X109431Y42792D01*
X109423Y42721D01*
X109412Y42646D01*
X109389Y42492D01*
X109359Y42342D01*
X109337Y42271D01*
X109314Y42204D01*
Y42200D01*
X109307Y42189D01*
X109299Y42170D01*
X109288Y42147D01*
X109273Y42118D01*
X109254Y42084D01*
X109232Y42046D01*
X109206Y42005D01*
X109176Y41964D01*
X109142Y41919D01*
X109101Y41874D01*
X109059Y41825D01*
X109011Y41780D01*
X108958Y41735D01*
X108902Y41690D01*
X108838Y41649D01*
X108834Y41645D01*
X108823Y41641D01*
X108804Y41630D01*
X108778Y41615D01*
X108741Y41600D01*
X108699Y41581D01*
X108654Y41563D01*
X108598Y41544D01*
X108538Y41525D01*
X108471Y41506D01*
X108396Y41488D01*
X108317Y41473D01*
X108231Y41458D01*
X108141Y41446D01*
X108043Y41442D01*
X107942Y41439D01*
X107889D01*
X107852Y41442D01*
X107807Y41446D01*
X107754Y41450D01*
X107694Y41454D01*
X107631Y41461D01*
X107559Y41473D01*
X107488Y41484D01*
X107342Y41517D01*
X107267Y41536D01*
X107196Y41563D01*
X107124Y41589D01*
X107057Y41622D01*
X107053Y41626D01*
X107042Y41630D01*
X107023Y41641D01*
X107001Y41656D01*
X106974Y41675D01*
X106941Y41701D01*
X106907Y41728D01*
X106869Y41761D01*
X106828Y41795D01*
X106787Y41836D01*
X106746Y41881D01*
X106708Y41930D01*
X106671Y41982D01*
X106633Y42039D01*
X106599Y42099D01*
X106569Y42162D01*
Y42166D01*
X106562Y42178D01*
X106554Y42200D01*
X106547Y42226D01*
X106536Y42264D01*
X106524Y42305D01*
X106509Y42358D01*
X106498Y42414D01*
X106483Y42481D01*
X106468Y42553D01*
X106457Y42631D01*
X106446Y42717D01*
X106438Y42811D01*
X106431Y42909D01*
X106423Y43014D01*
Y43126D01*
Y45346D01*
X106933D01*
Y43126D01*
Y43123D01*
Y43104D01*
Y43077D01*
Y43044D01*
X106937Y43003D01*
Y42957D01*
X106941Y42905D01*
X106944Y42849D01*
X106956Y42725D01*
X106971Y42605D01*
X106982Y42545D01*
X106993Y42489D01*
X107008Y42436D01*
X107023Y42388D01*
Y42384D01*
X107027Y42376D01*
X107034Y42365D01*
X107042Y42350D01*
X107064Y42305D01*
X107098Y42252D01*
X107143Y42196D01*
X107196Y42136D01*
X107263Y42076D01*
X107342Y42024D01*
X107346D01*
X107353Y42020D01*
X107364Y42013D01*
X107383Y42005D01*
X107406Y41994D01*
X107432Y41982D01*
X107462Y41971D01*
X107496Y41960D01*
X107537Y41949D01*
X107578Y41938D01*
X107672Y41915D01*
X107781Y41900D01*
X107897Y41896D01*
X107949D01*
X107987Y41900D01*
X108036Y41904D01*
X108088Y41911D01*
X108144Y41919D01*
X108208Y41926D01*
X108339Y41956D01*
X108403Y41979D01*
X108471Y42001D01*
X108534Y42031D01*
X108594Y42065D01*
X108647Y42103D01*
X108696Y42147D01*
X108699Y42151D01*
X108707Y42159D01*
X108718Y42178D01*
X108733Y42200D01*
X108752Y42230D01*
X108771Y42268D01*
X108793Y42312D01*
X108816Y42365D01*
X108838Y42429D01*
X108861Y42500D01*
X108879Y42579D01*
X108898Y42669D01*
X108913Y42766D01*
X108924Y42875D01*
X108932Y42995D01*
X108936Y43126D01*
Y45346D01*
X109446D01*
Y43126D01*
D02*
G37*
G36*
X111426Y45357D02*
X111467D01*
X111512Y45354D01*
X111564Y45346D01*
X111624Y45335D01*
X111692Y45324D01*
X111759Y45305D01*
X111831Y45286D01*
X111906Y45260D01*
X111977Y45230D01*
X112052Y45196D01*
X112119Y45155D01*
X112187Y45106D01*
X112251Y45054D01*
X112254Y45050D01*
X112266Y45039D01*
X112281Y45024D01*
X112299Y44998D01*
X112326Y44967D01*
X112352Y44934D01*
X112382Y44892D01*
X112412Y44844D01*
X112442Y44791D01*
X112472Y44731D01*
X112498Y44671D01*
X112524Y44604D01*
X112543Y44532D01*
X112558Y44454D01*
X112569Y44375D01*
X112573Y44293D01*
Y44289D01*
Y44281D01*
Y44270D01*
Y44255D01*
X112569Y44232D01*
Y44210D01*
X112562Y44150D01*
X112551Y44082D01*
X112532Y44004D01*
X112509Y43921D01*
X112476Y43839D01*
Y43835D01*
X112472Y43828D01*
X112464Y43816D01*
X112457Y43801D01*
X112446Y43779D01*
X112434Y43756D01*
X112401Y43696D01*
X112359Y43629D01*
X112303Y43546D01*
X112239Y43460D01*
X112161Y43370D01*
X112157Y43366D01*
X112149Y43359D01*
X112138Y43344D01*
X112119Y43325D01*
X112093Y43299D01*
X112067Y43269D01*
X112029Y43235D01*
X111988Y43194D01*
X111943Y43149D01*
X111887Y43096D01*
X111831Y43040D01*
X111763Y42980D01*
X111692Y42916D01*
X111613Y42845D01*
X111527Y42774D01*
X111437Y42695D01*
X111433Y42691D01*
X111418Y42680D01*
X111396Y42661D01*
X111369Y42639D01*
X111336Y42609D01*
X111298Y42575D01*
X111208Y42500D01*
X111118Y42421D01*
X111028Y42342D01*
X110987Y42305D01*
X110949Y42268D01*
X110916Y42237D01*
X110889Y42211D01*
X110886Y42208D01*
X110871Y42189D01*
X110848Y42162D01*
X110818Y42132D01*
X110788Y42091D01*
X110754Y42050D01*
X110721Y42005D01*
X110691Y41956D01*
X112577D01*
Y41502D01*
X110038D01*
Y41506D01*
Y41510D01*
Y41532D01*
Y41563D01*
X110042Y41607D01*
X110049Y41656D01*
X110057Y41712D01*
X110072Y41769D01*
X110091Y41829D01*
Y41833D01*
X110094Y41840D01*
X110102Y41855D01*
X110109Y41874D01*
X110121Y41896D01*
X110132Y41923D01*
X110166Y41990D01*
X110211Y42069D01*
X110263Y42155D01*
X110327Y42245D01*
X110402Y42339D01*
X110406Y42342D01*
X110413Y42350D01*
X110424Y42365D01*
X110443Y42384D01*
X110466Y42406D01*
X110492Y42436D01*
X110522Y42470D01*
X110559Y42507D01*
X110601Y42545D01*
X110646Y42590D01*
X110698Y42639D01*
X110751Y42691D01*
X110811Y42744D01*
X110874Y42800D01*
X110946Y42860D01*
X111017Y42920D01*
X111024Y42928D01*
X111043Y42943D01*
X111077Y42969D01*
X111118Y43006D01*
X111171Y43047D01*
X111227Y43100D01*
X111291Y43156D01*
X111358Y43216D01*
X111501Y43347D01*
X111639Y43483D01*
X111703Y43550D01*
X111763Y43617D01*
X111819Y43677D01*
X111864Y43738D01*
X111868Y43741D01*
X111876Y43753D01*
X111887Y43767D01*
X111898Y43790D01*
X111917Y43816D01*
X111936Y43846D01*
X111954Y43884D01*
X111977Y43921D01*
X112018Y44008D01*
X112056Y44101D01*
X112067Y44154D01*
X112078Y44203D01*
X112086Y44255D01*
X112089Y44304D01*
Y44308D01*
Y44315D01*
Y44330D01*
X112086Y44352D01*
X112082Y44375D01*
X112078Y44401D01*
X112063Y44469D01*
X112041Y44544D01*
X112003Y44622D01*
X111981Y44660D01*
X111954Y44701D01*
X111924Y44739D01*
X111887Y44776D01*
X111883Y44780D01*
X111879Y44784D01*
X111864Y44795D01*
X111849Y44806D01*
X111831Y44821D01*
X111804Y44836D01*
X111778Y44855D01*
X111744Y44874D01*
X111711Y44892D01*
X111669Y44911D01*
X111579Y44941D01*
X111478Y44964D01*
X111422Y44967D01*
X111362Y44971D01*
X111328D01*
X111306Y44967D01*
X111276Y44964D01*
X111242Y44960D01*
X111204Y44952D01*
X111167Y44945D01*
X111077Y44923D01*
X110987Y44885D01*
X110942Y44862D01*
X110897Y44833D01*
X110856Y44802D01*
X110814Y44765D01*
X110811Y44761D01*
X110807Y44758D01*
X110796Y44743D01*
X110784Y44728D01*
X110769Y44709D01*
X110751Y44682D01*
X110732Y44653D01*
X110713Y44619D01*
X110694Y44581D01*
X110676Y44540D01*
X110661Y44491D01*
X110642Y44442D01*
X110631Y44390D01*
X110619Y44330D01*
X110616Y44270D01*
X110612Y44203D01*
X110128Y44251D01*
Y44259D01*
X110132Y44274D01*
X110136Y44304D01*
X110139Y44341D01*
X110151Y44386D01*
X110162Y44439D01*
X110177Y44495D01*
X110192Y44559D01*
X110214Y44622D01*
X110241Y44690D01*
X110271Y44758D01*
X110304Y44829D01*
X110346Y44896D01*
X110391Y44960D01*
X110443Y45020D01*
X110499Y45076D01*
X110503Y45080D01*
X110514Y45088D01*
X110533Y45103D01*
X110559Y45121D01*
X110593Y45144D01*
X110631Y45166D01*
X110679Y45193D01*
X110732Y45219D01*
X110792Y45245D01*
X110856Y45271D01*
X110927Y45294D01*
X111006Y45316D01*
X111088Y45335D01*
X111178Y45350D01*
X111272Y45357D01*
X111373Y45361D01*
X111399D01*
X111426Y45357D01*
D02*
G37*
G36*
X154096Y54926D02*
Y54919D01*
Y54900D01*
Y54870D01*
X154093Y54829D01*
Y54780D01*
X154089Y54724D01*
X154085Y54660D01*
X154081Y54593D01*
X154074Y54521D01*
X154062Y54446D01*
X154040Y54293D01*
X154010Y54142D01*
X153988Y54071D01*
X153965Y54004D01*
Y54000D01*
X153957Y53989D01*
X153950Y53970D01*
X153939Y53948D01*
X153924Y53917D01*
X153905Y53884D01*
X153883Y53846D01*
X153856Y53805D01*
X153826Y53764D01*
X153793Y53719D01*
X153751Y53674D01*
X153710Y53625D01*
X153661Y53580D01*
X153609Y53535D01*
X153552Y53490D01*
X153489Y53449D01*
X153485Y53445D01*
X153474Y53441D01*
X153455Y53430D01*
X153429Y53415D01*
X153391Y53400D01*
X153350Y53381D01*
X153305Y53363D01*
X153249Y53344D01*
X153189Y53325D01*
X153121Y53306D01*
X153046Y53288D01*
X152968Y53272D01*
X152881Y53258D01*
X152791Y53246D01*
X152694Y53242D01*
X152593Y53239D01*
X152540D01*
X152503Y53242D01*
X152457Y53246D01*
X152405Y53250D01*
X152345Y53254D01*
X152281Y53261D01*
X152210Y53272D01*
X152139Y53284D01*
X151992Y53317D01*
X151918Y53336D01*
X151846Y53363D01*
X151775Y53389D01*
X151707Y53422D01*
X151704Y53426D01*
X151692Y53430D01*
X151674Y53441D01*
X151651Y53456D01*
X151625Y53475D01*
X151591Y53501D01*
X151558Y53527D01*
X151520Y53561D01*
X151479Y53595D01*
X151437Y53636D01*
X151396Y53681D01*
X151359Y53730D01*
X151321Y53782D01*
X151284Y53839D01*
X151250Y53899D01*
X151220Y53962D01*
Y53966D01*
X151213Y53978D01*
X151205Y54000D01*
X151198Y54026D01*
X151186Y54064D01*
X151175Y54105D01*
X151160Y54158D01*
X151149Y54214D01*
X151134Y54281D01*
X151119Y54352D01*
X151108Y54431D01*
X151096Y54518D01*
X151089Y54611D01*
X151081Y54709D01*
X151074Y54814D01*
Y54926D01*
Y57146D01*
X151584D01*
Y54926D01*
Y54922D01*
Y54904D01*
Y54878D01*
Y54844D01*
X151587Y54803D01*
Y54757D01*
X151591Y54705D01*
X151595Y54649D01*
X151606Y54525D01*
X151621Y54405D01*
X151632Y54345D01*
X151644Y54289D01*
X151659Y54236D01*
X151674Y54188D01*
Y54184D01*
X151678Y54176D01*
X151685Y54165D01*
X151692Y54150D01*
X151715Y54105D01*
X151749Y54053D01*
X151794Y53996D01*
X151846Y53936D01*
X151914Y53876D01*
X151992Y53824D01*
X151996D01*
X152004Y53820D01*
X152015Y53812D01*
X152034Y53805D01*
X152056Y53794D01*
X152083Y53782D01*
X152112Y53771D01*
X152146Y53760D01*
X152188Y53749D01*
X152229Y53737D01*
X152322Y53715D01*
X152431Y53700D01*
X152548Y53696D01*
X152600D01*
X152638Y53700D01*
X152686Y53704D01*
X152739Y53711D01*
X152795Y53719D01*
X152859Y53726D01*
X152990Y53756D01*
X153054Y53779D01*
X153121Y53801D01*
X153185Y53831D01*
X153245Y53865D01*
X153297Y53903D01*
X153346Y53948D01*
X153350Y53951D01*
X153358Y53959D01*
X153369Y53978D01*
X153384Y54000D01*
X153402Y54030D01*
X153421Y54067D01*
X153444Y54112D01*
X153466Y54165D01*
X153489Y54229D01*
X153511Y54300D01*
X153530Y54379D01*
X153549Y54469D01*
X153564Y54566D01*
X153575Y54675D01*
X153583Y54795D01*
X153586Y54926D01*
Y57146D01*
X154096D01*
Y54926D01*
D02*
G37*
G36*
X156526Y53303D02*
X156054D01*
Y56306D01*
X156050D01*
X156046Y56299D01*
X156035Y56291D01*
X156024Y56280D01*
X155986Y56246D01*
X155934Y56205D01*
X155870Y56156D01*
X155791Y56100D01*
X155701Y56040D01*
X155604Y55980D01*
X155600D01*
X155593Y55972D01*
X155578Y55965D01*
X155559Y55954D01*
X155533Y55939D01*
X155506Y55924D01*
X155439Y55890D01*
X155364Y55853D01*
X155281Y55811D01*
X155195Y55774D01*
X155113Y55740D01*
Y56194D01*
X155116Y56198D01*
X155131Y56201D01*
X155150Y56213D01*
X155180Y56227D01*
X155214Y56246D01*
X155251Y56269D01*
X155296Y56291D01*
X155345Y56321D01*
X155454Y56385D01*
X155570Y56464D01*
X155686Y56550D01*
X155803Y56644D01*
X155806Y56647D01*
X155814Y56655D01*
X155833Y56670D01*
X155851Y56689D01*
X155874Y56715D01*
X155904Y56741D01*
X155934Y56775D01*
X155967Y56809D01*
X156035Y56888D01*
X156103Y56974D01*
X156166Y57068D01*
X156196Y57112D01*
X156219Y57161D01*
X156526D01*
Y53303D01*
D02*
G37*
%LPC*%
G36*
X23500Y84096D02*
X22293Y82360D01*
X23500D01*
Y84096D01*
D02*
G37*
G36*
X208225Y24845D02*
X207115D01*
Y23545D01*
X208055D01*
X208125Y23550D01*
X208195D01*
X208275Y23555D01*
X208430Y23560D01*
X208510Y23565D01*
X208585Y23570D01*
X208650Y23575D01*
X208710Y23585D01*
X208765Y23595D01*
X208805Y23605D01*
X208815Y23610D01*
X208835Y23620D01*
X208870Y23635D01*
X208915Y23655D01*
X208960Y23685D01*
X209010Y23725D01*
X209055Y23770D01*
X209100Y23820D01*
X209105Y23825D01*
X209115Y23850D01*
X209135Y23880D01*
X209155Y23925D01*
X209170Y23980D01*
X209190Y24050D01*
X209200Y24125D01*
X209205Y24205D01*
Y24210D01*
Y24215D01*
Y24230D01*
Y24250D01*
X209200Y24295D01*
X209190Y24355D01*
X209170Y24420D01*
X209145Y24490D01*
X209110Y24560D01*
X209065Y24625D01*
X209060Y24630D01*
X209040Y24650D01*
X209010Y24680D01*
X208965Y24710D01*
X208910Y24745D01*
X208840Y24775D01*
X208765Y24805D01*
X208675Y24825D01*
X208660D01*
X208645Y24830D01*
X208600D01*
X208570Y24835D01*
X208490D01*
X208435Y24840D01*
X208305D01*
X208225Y24845D01*
D02*
G37*
G36*
X185925D02*
X185235D01*
Y23385D01*
X185895D01*
X185945Y23390D01*
X186060D01*
X186130Y23395D01*
X186265Y23405D01*
X186400Y23420D01*
X186465Y23430D01*
X186520Y23440D01*
X186570Y23450D01*
X186615Y23465D01*
X186625Y23470D01*
X186650Y23480D01*
X186685Y23500D01*
X186730Y23525D01*
X186785Y23560D01*
X186835Y23605D01*
X186890Y23655D01*
X186935Y23715D01*
X186940Y23725D01*
X186955Y23745D01*
X186975Y23780D01*
X186995Y23830D01*
X187015Y23890D01*
X187035Y23960D01*
X187050Y24035D01*
X187055Y24115D01*
Y24120D01*
Y24130D01*
Y24140D01*
Y24160D01*
X187045Y24215D01*
X187035Y24280D01*
X187015Y24350D01*
X186985Y24425D01*
X186945Y24505D01*
X186890Y24575D01*
X186885Y24585D01*
X186860Y24605D01*
X186825Y24635D01*
X186775Y24675D01*
X186715Y24715D01*
X186645Y24750D01*
X186565Y24780D01*
X186475Y24805D01*
X186465D01*
X186455Y24810D01*
X186440D01*
X186415Y24815D01*
X186385Y24820D01*
X186355D01*
X186315Y24825D01*
X186265Y24830D01*
X186210Y24835D01*
X186150D01*
X186085Y24840D01*
X186005D01*
X185925Y24845D01*
D02*
G37*
G36*
X191250Y24915D02*
X191220D01*
X191190Y24910D01*
X191145D01*
X191090Y24900D01*
X191025Y24890D01*
X190955Y24880D01*
X190880Y24860D01*
X190800Y24835D01*
X190715Y24810D01*
X190630Y24770D01*
X190545Y24730D01*
X190455Y24680D01*
X190375Y24620D01*
X190290Y24555D01*
X190215Y24475D01*
X190210Y24470D01*
X190200Y24455D01*
X190180Y24430D01*
X190155Y24395D01*
X190125Y24345D01*
X190090Y24290D01*
X190055Y24220D01*
X190020Y24145D01*
X189985Y24055D01*
X189950Y23960D01*
X189915Y23850D01*
X189885Y23730D01*
X189860Y23600D01*
X189840Y23460D01*
X189830Y23310D01*
X189825Y23150D01*
Y23140D01*
Y23110D01*
X189830Y23065D01*
Y23005D01*
X189835Y22935D01*
X189845Y22850D01*
X189860Y22760D01*
X189875Y22660D01*
X189895Y22555D01*
X189925Y22445D01*
X189955Y22335D01*
X189995Y22225D01*
X190040Y22120D01*
X190095Y22015D01*
X190155Y21920D01*
X190225Y21830D01*
X190230Y21825D01*
X190245Y21810D01*
X190265Y21790D01*
X190300Y21760D01*
X190340Y21725D01*
X190385Y21690D01*
X190440Y21650D01*
X190505Y21610D01*
X190575Y21565D01*
X190655Y21525D01*
X190740Y21490D01*
X190830Y21455D01*
X190925Y21425D01*
X191030Y21405D01*
X191135Y21390D01*
X191250Y21385D01*
X191280D01*
X191310Y21390D01*
X191355D01*
X191405Y21400D01*
X191465Y21410D01*
X191535Y21420D01*
X191610Y21440D01*
X191690Y21465D01*
X191770Y21495D01*
X191855Y21530D01*
X191940Y21575D01*
X192025Y21625D01*
X192110Y21685D01*
X192195Y21750D01*
X192270Y21830D01*
X192275Y21835D01*
X192285Y21850D01*
X192305Y21875D01*
X192335Y21915D01*
X192365Y21960D01*
X192395Y22020D01*
X192435Y22085D01*
X192470Y22165D01*
X192505Y22255D01*
X192545Y22350D01*
X192575Y22460D01*
X192610Y22580D01*
X192635Y22710D01*
X192655Y22850D01*
X192665Y23005D01*
X192670Y23165D01*
Y23170D01*
Y23175D01*
Y23205D01*
Y23250D01*
X192665Y23310D01*
X192660Y23385D01*
X192650Y23465D01*
X192635Y23560D01*
X192620Y23660D01*
X192600Y23765D01*
X192575Y23875D01*
X192545Y23980D01*
X192505Y24090D01*
X192460Y24195D01*
X192410Y24300D01*
X192350Y24395D01*
X192280Y24480D01*
X192275Y24485D01*
X192260Y24500D01*
X192240Y24520D01*
X192210Y24550D01*
X192170Y24580D01*
X192125Y24620D01*
X192070Y24655D01*
X192005Y24700D01*
X191935Y24740D01*
X191855Y24780D01*
X191775Y24815D01*
X191680Y24845D01*
X191585Y24875D01*
X191480Y24895D01*
X191365Y24910D01*
X191250Y24915D01*
D02*
G37*
G36*
X42000Y85715D02*
X41407D01*
Y83758D01*
X41995D01*
X42015Y83760D01*
X42040D01*
X42068Y83763D01*
X42097D01*
X42162Y83767D01*
X42228Y83777D01*
X42292Y83788D01*
X42322Y83795D01*
X42350Y83802D01*
X42353D01*
X42358Y83805D01*
X42365Y83807D01*
X42375Y83812D01*
X42400Y83823D01*
X42432Y83837D01*
X42470Y83858D01*
X42507Y83880D01*
X42545Y83908D01*
X42580Y83938D01*
X42582Y83940D01*
X42585Y83943D01*
X42592Y83950D01*
X42600Y83960D01*
X42610Y83973D01*
X42623Y83985D01*
X42650Y84022D01*
X42680Y84070D01*
X42713Y84125D01*
X42742Y84188D01*
X42770Y84260D01*
Y84263D01*
X42772Y84270D01*
X42777Y84280D01*
X42780Y84298D01*
X42785Y84317D01*
X42792Y84340D01*
X42797Y84368D01*
X42805Y84400D01*
X42810Y84433D01*
X42815Y84470D01*
X42823Y84513D01*
X42827Y84555D01*
X42832Y84602D01*
X42835Y84650D01*
X42838Y84755D01*
Y84760D01*
Y84772D01*
Y84793D01*
X42835Y84820D01*
X42832Y84855D01*
X42830Y84892D01*
X42827Y84935D01*
X42820Y84983D01*
X42815Y85030D01*
X42805Y85080D01*
X42783Y85182D01*
X42768Y85233D01*
X42750Y85282D01*
X42728Y85328D01*
X42705Y85370D01*
X42702Y85373D01*
X42700Y85380D01*
X42693Y85390D01*
X42682Y85405D01*
X42667Y85422D01*
X42652Y85443D01*
X42615Y85488D01*
X42568Y85537D01*
X42513Y85585D01*
X42450Y85628D01*
X42417Y85647D01*
X42382Y85663D01*
X42380D01*
X42375Y85665D01*
X42368Y85668D01*
X42358Y85670D01*
X42342Y85675D01*
X42325Y85680D01*
X42303Y85685D01*
X42278Y85690D01*
X42248Y85693D01*
X42217Y85698D01*
X42180Y85703D01*
X42140Y85707D01*
X42097Y85710D01*
X42050Y85712D01*
X42000Y85715D01*
D02*
G37*
G36*
X58518Y85771D02*
X58002D01*
Y84064D01*
X58514D01*
X58531Y84066D01*
X58553D01*
X58577Y84068D01*
X58603D01*
X58660Y84073D01*
X58716Y84081D01*
X58773Y84090D01*
X58799Y84096D01*
X58823Y84103D01*
X58825D01*
X58830Y84105D01*
X58836Y84107D01*
X58845Y84112D01*
X58867Y84121D01*
X58895Y84133D01*
X58928Y84151D01*
X58961Y84171D01*
X58993Y84195D01*
X59024Y84221D01*
X59026Y84223D01*
X59028Y84225D01*
X59035Y84232D01*
X59041Y84240D01*
X59050Y84251D01*
X59061Y84262D01*
X59085Y84295D01*
X59111Y84336D01*
X59139Y84384D01*
X59166Y84439D01*
X59190Y84502D01*
Y84504D01*
X59192Y84511D01*
X59196Y84519D01*
X59198Y84535D01*
X59203Y84552D01*
X59209Y84572D01*
X59214Y84596D01*
X59220Y84624D01*
X59224Y84652D01*
X59229Y84685D01*
X59235Y84722D01*
X59240Y84759D01*
X59244Y84801D01*
X59246Y84842D01*
X59248Y84934D01*
Y84938D01*
Y84949D01*
Y84966D01*
X59246Y84990D01*
X59244Y85021D01*
X59242Y85053D01*
X59240Y85091D01*
X59233Y85132D01*
X59229Y85173D01*
X59220Y85217D01*
X59201Y85306D01*
X59187Y85350D01*
X59172Y85394D01*
X59153Y85433D01*
X59133Y85470D01*
X59131Y85472D01*
X59128Y85479D01*
X59122Y85487D01*
X59113Y85500D01*
X59100Y85516D01*
X59087Y85533D01*
X59054Y85572D01*
X59013Y85616D01*
X58965Y85657D01*
X58911Y85694D01*
X58882Y85712D01*
X58852Y85725D01*
X58850D01*
X58845Y85727D01*
X58839Y85729D01*
X58830Y85732D01*
X58817Y85736D01*
X58802Y85740D01*
X58782Y85745D01*
X58760Y85749D01*
X58734Y85751D01*
X58708Y85755D01*
X58675Y85760D01*
X58640Y85764D01*
X58603Y85766D01*
X58562Y85769D01*
X58518Y85771D01*
D02*
G37*
G36*
X50490D02*
X49849D01*
Y84973D01*
X50453D01*
X50473Y84975D01*
X50497D01*
X50523Y84979D01*
X50554Y84982D01*
X50584Y84986D01*
X50652Y84999D01*
X50719Y85016D01*
X50750Y85030D01*
X50780Y85043D01*
X50809Y85060D01*
X50832Y85078D01*
X50835Y85080D01*
X50837Y85082D01*
X50843Y85088D01*
X50852Y85097D01*
X50861Y85108D01*
X50872Y85121D01*
X50883Y85136D01*
X50894Y85156D01*
X50905Y85176D01*
X50915Y85197D01*
X50926Y85224D01*
X50935Y85250D01*
X50950Y85311D01*
X50952Y85343D01*
X50955Y85378D01*
Y85381D01*
Y85385D01*
Y85391D01*
Y85402D01*
X50952Y85413D01*
X50950Y85429D01*
X50946Y85461D01*
X50937Y85498D01*
X50924Y85537D01*
X50907Y85579D01*
X50883Y85618D01*
Y85620D01*
X50880Y85623D01*
X50870Y85633D01*
X50854Y85651D01*
X50832Y85673D01*
X50806Y85694D01*
X50774Y85716D01*
X50737Y85734D01*
X50695Y85749D01*
X50691D01*
X50680Y85753D01*
X50671D01*
X50660Y85755D01*
X50647Y85758D01*
X50634Y85760D01*
X50615Y85762D01*
X50595Y85764D01*
X50573Y85766D01*
X50549D01*
X50521Y85769D01*
X50490Y85771D01*
D02*
G37*
G36*
X48112D02*
X47595D01*
Y84064D01*
X48107D01*
X48125Y84066D01*
X48147D01*
X48171Y84068D01*
X48197D01*
X48254Y84073D01*
X48310Y84081D01*
X48367Y84090D01*
X48393Y84096D01*
X48417Y84103D01*
X48419D01*
X48424Y84105D01*
X48430Y84107D01*
X48439Y84112D01*
X48461Y84121D01*
X48489Y84133D01*
X48522Y84151D01*
X48554Y84171D01*
X48587Y84195D01*
X48618Y84221D01*
X48620Y84223D01*
X48622Y84225D01*
X48629Y84232D01*
X48635Y84240D01*
X48644Y84251D01*
X48655Y84262D01*
X48679Y84295D01*
X48705Y84336D01*
X48733Y84384D01*
X48759Y84439D01*
X48783Y84502D01*
Y84504D01*
X48785Y84511D01*
X48790Y84519D01*
X48792Y84535D01*
X48796Y84552D01*
X48803Y84572D01*
X48807Y84596D01*
X48814Y84624D01*
X48818Y84652D01*
X48823Y84685D01*
X48829Y84722D01*
X48834Y84759D01*
X48838Y84801D01*
X48840Y84842D01*
X48842Y84934D01*
Y84938D01*
Y84949D01*
Y84966D01*
X48840Y84990D01*
X48838Y85021D01*
X48836Y85053D01*
X48834Y85091D01*
X48827Y85132D01*
X48823Y85173D01*
X48814Y85217D01*
X48794Y85306D01*
X48781Y85350D01*
X48766Y85394D01*
X48746Y85433D01*
X48727Y85470D01*
X48724Y85472D01*
X48722Y85479D01*
X48716Y85487D01*
X48707Y85500D01*
X48694Y85516D01*
X48681Y85533D01*
X48648Y85572D01*
X48607Y85616D01*
X48559Y85657D01*
X48504Y85694D01*
X48476Y85712D01*
X48445Y85725D01*
X48443D01*
X48439Y85727D01*
X48432Y85729D01*
X48424Y85732D01*
X48411Y85736D01*
X48395Y85740D01*
X48376Y85745D01*
X48354Y85749D01*
X48328Y85751D01*
X48302Y85755D01*
X48269Y85760D01*
X48234Y85764D01*
X48197Y85766D01*
X48156Y85769D01*
X48112Y85771D01*
D02*
G37*
G36*
X54484Y10161D02*
X53595D01*
Y7224D01*
X54476D01*
X54506Y7228D01*
X54544D01*
X54585Y7232D01*
X54630D01*
X54728Y7239D01*
X54825Y7254D01*
X54922Y7269D01*
X54967Y7281D01*
X55009Y7292D01*
X55013D01*
X55020Y7296D01*
X55031Y7299D01*
X55046Y7307D01*
X55084Y7322D01*
X55133Y7344D01*
X55189Y7374D01*
X55245Y7408D01*
X55301Y7449D01*
X55354Y7494D01*
X55357Y7498D01*
X55361Y7502D01*
X55373Y7513D01*
X55384Y7528D01*
X55399Y7547D01*
X55418Y7566D01*
X55459Y7622D01*
X55504Y7693D01*
X55553Y7776D01*
X55598Y7869D01*
X55639Y7978D01*
Y7982D01*
X55642Y7993D01*
X55650Y8008D01*
X55654Y8034D01*
X55661Y8064D01*
X55673Y8098D01*
X55680Y8139D01*
X55691Y8188D01*
X55699Y8237D01*
X55706Y8293D01*
X55717Y8357D01*
X55725Y8421D01*
X55733Y8492D01*
X55736Y8563D01*
X55740Y8721D01*
Y8728D01*
Y8747D01*
Y8777D01*
X55736Y8818D01*
X55733Y8871D01*
X55729Y8927D01*
X55725Y8991D01*
X55714Y9062D01*
X55706Y9133D01*
X55691Y9208D01*
X55658Y9362D01*
X55635Y9437D01*
X55609Y9512D01*
X55575Y9579D01*
X55541Y9643D01*
X55537Y9647D01*
X55534Y9658D01*
X55523Y9673D01*
X55507Y9696D01*
X55485Y9722D01*
X55462Y9752D01*
X55406Y9819D01*
X55335Y9894D01*
X55252Y9966D01*
X55159Y10029D01*
X55110Y10059D01*
X55058Y10082D01*
X55054D01*
X55046Y10086D01*
X55035Y10089D01*
X55020Y10093D01*
X54997Y10101D01*
X54971Y10108D01*
X54937Y10116D01*
X54900Y10123D01*
X54855Y10127D01*
X54810Y10134D01*
X54754Y10142D01*
X54694Y10149D01*
X54630Y10153D01*
X54559Y10157D01*
X54484Y10161D01*
D02*
G37*
G36*
X63184Y15452D02*
X62295D01*
Y12516D01*
X63176D01*
X63206Y12519D01*
X63244D01*
X63285Y12523D01*
X63330D01*
X63428Y12531D01*
X63525Y12546D01*
X63622Y12561D01*
X63668Y12572D01*
X63709Y12583D01*
X63713D01*
X63720Y12587D01*
X63731Y12591D01*
X63746Y12598D01*
X63784Y12613D01*
X63832Y12636D01*
X63889Y12666D01*
X63945Y12699D01*
X64001Y12741D01*
X64054Y12786D01*
X64057Y12789D01*
X64061Y12793D01*
X64073Y12804D01*
X64084Y12820D01*
X64099Y12838D01*
X64117Y12857D01*
X64159Y12913D01*
X64204Y12984D01*
X64253Y13067D01*
X64297Y13161D01*
X64339Y13270D01*
Y13273D01*
X64342Y13284D01*
X64350Y13299D01*
X64354Y13326D01*
X64361Y13356D01*
X64372Y13389D01*
X64380Y13431D01*
X64391Y13479D01*
X64399Y13528D01*
X64406Y13585D01*
X64417Y13648D01*
X64425Y13712D01*
X64433Y13783D01*
X64436Y13855D01*
X64440Y14012D01*
Y14019D01*
Y14038D01*
Y14068D01*
X64436Y14109D01*
X64433Y14162D01*
X64429Y14218D01*
X64425Y14282D01*
X64414Y14353D01*
X64406Y14424D01*
X64391Y14500D01*
X64358Y14653D01*
X64335Y14728D01*
X64309Y14803D01*
X64275Y14871D01*
X64241Y14934D01*
X64237Y14938D01*
X64234Y14950D01*
X64223Y14965D01*
X64208Y14987D01*
X64185Y15013D01*
X64162Y15043D01*
X64106Y15111D01*
X64035Y15186D01*
X63952Y15257D01*
X63859Y15321D01*
X63810Y15351D01*
X63757Y15373D01*
X63754D01*
X63746Y15377D01*
X63735Y15381D01*
X63720Y15384D01*
X63697Y15392D01*
X63671Y15400D01*
X63638Y15407D01*
X63600Y15415D01*
X63555Y15418D01*
X63510Y15426D01*
X63454Y15433D01*
X63394Y15441D01*
X63330Y15445D01*
X63259Y15448D01*
X63184Y15452D01*
D02*
G37*
G36*
X97004Y69061D02*
X95710D01*
Y67786D01*
X96858D01*
X96887Y67790D01*
X96921D01*
X96959Y67794D01*
X97000D01*
X97086Y67805D01*
X97176Y67816D01*
X97266Y67835D01*
X97345Y67857D01*
X97349D01*
X97352Y67861D01*
X97379Y67872D01*
X97413Y67887D01*
X97454Y67914D01*
X97502Y67944D01*
X97551Y67985D01*
X97600Y68030D01*
X97641Y68086D01*
Y68090D01*
X97645Y68094D01*
X97656Y68116D01*
X97675Y68146D01*
X97694Y68191D01*
X97712Y68244D01*
X97731Y68300D01*
X97742Y68367D01*
X97746Y68435D01*
Y68439D01*
Y68446D01*
Y68461D01*
X97742Y68480D01*
X97739Y68502D01*
X97735Y68532D01*
X97720Y68592D01*
X97698Y68664D01*
X97664Y68739D01*
X97641Y68780D01*
X97615Y68814D01*
X97581Y68851D01*
X97548Y68885D01*
X97544Y68889D01*
X97540Y68892D01*
X97525Y68900D01*
X97510Y68911D01*
X97487Y68926D01*
X97461Y68941D01*
X97431Y68956D01*
X97394Y68975D01*
X97352Y68990D01*
X97307Y69005D01*
X97259Y69020D01*
X97202Y69035D01*
X97139Y69046D01*
X97075Y69054D01*
X97004Y69061D01*
D02*
G37*
%LPD*%
D10*
X28054Y20653D02*
G03*
X28054Y20260I0J-197D01*
G01*
D02*
G03*
X28054Y20653I0J197D01*
G01*
D11*
X87194Y14925D02*
G03*
X87194Y14925I-94J0D01*
G01*
X123394Y75900D02*
G03*
X123394Y75900I-94J0D01*
G01*
X142374Y68465D02*
G03*
X142374Y68465I-94J0D01*
G01*
D12*
X71889Y94750D02*
G03*
X71889Y94750I-492J0D01*
G01*
X96395Y63550D02*
G03*
X96395Y63550I-492J0D01*
G01*
D13*
X22235Y92500D02*
G03*
X22235Y92500I-394J0D01*
G01*
X22269Y22713D02*
X66849D01*
Y77287D01*
X22269D02*
X66849D01*
X137284Y8195D02*
Y18589D01*
X115316D02*
X137284D01*
X115316Y8195D02*
Y18589D01*
Y8195D02*
X137284D01*
X78877Y86089D02*
X88523D01*
X78877Y97113D02*
X88523D01*
X78777Y61187D02*
X88423D01*
X78777Y72211D02*
X88423D01*
X166068Y48697D02*
X169797D01*
X148403D02*
X152131D01*
X148403Y27303D02*
Y48697D01*
X166068Y27303D02*
X169797D01*
X148403D02*
X152131D01*
X169797D02*
Y48697D01*
X151145Y23276D02*
X169255D01*
Y7724D02*
Y9732D01*
Y21268D02*
Y23276D01*
X151145Y7724D02*
X169255D01*
X151145D02*
Y9732D01*
Y21268D02*
Y23276D01*
X46143Y81600D02*
X47325D01*
X46734Y81010D02*
Y82191D01*
X62305Y81600D02*
X63486D01*
X62896Y81010D02*
Y82191D01*
X75850Y31142D02*
Y33701D01*
X82150Y31142D02*
Y33701D01*
X64400Y87500D02*
Y97500D01*
X24400Y87500D02*
Y97500D01*
Y87500D02*
X64400D01*
X24400Y97500D02*
X64400D01*
M02*
