G04*
G04 #@! TF.GenerationSoftware,Altium Limited,Altium Designer,23.0.1 (38)*
G04*
G04 Layer_Color=0*
%FSLAX25Y25*%
%MOIN*%
G70*
G04*
G04 #@! TF.SameCoordinates,F61D067F-344E-4115-8181-82DC4058F137*
G04*
G04*
G04 #@! TF.FilePolarity,Positive*
G04*
G01*
G75*
%ADD10C,0.00394*%
D10*
X31980Y6132D02*
Y10069D01*
X30012Y8100D02*
X33949D01*
X38684Y16000D02*
X42621D01*
X40652Y14031D02*
Y17968D01*
X124247Y85500D02*
X128184D01*
X126215Y83531D02*
Y87468D01*
X83700Y89632D02*
Y93569D01*
X81731Y91601D02*
X85668D01*
X87440Y82401D02*
X91377D01*
X89409Y80432D02*
Y84369D01*
X81631Y66699D02*
X85568D01*
X83600Y64731D02*
Y68668D01*
X135432Y60381D02*
X139368D01*
X137400Y58412D02*
Y62349D01*
X145823Y51932D02*
Y55869D01*
X143854Y53900D02*
X147792D01*
X145823Y51932D02*
Y55869D01*
X143854Y53900D02*
X147792D01*
X166532Y81700D02*
X170468D01*
X168500Y79732D02*
Y83669D01*
X159132Y81700D02*
X163068D01*
X161100Y79732D02*
Y83669D01*
X153079Y80632D02*
Y84569D01*
X151110Y82600D02*
X155048D01*
X153079Y85532D02*
Y89468D01*
X151110Y87500D02*
X155048D01*
X75923Y75899D02*
X79860D01*
X77891Y73931D02*
Y77868D01*
X75396Y22221D02*
X79333D01*
X77364Y20253D02*
Y24190D01*
X107876Y11382D02*
Y15319D01*
X105907Y13351D02*
X109844D01*
X111525Y12169D02*
Y16106D01*
X109557Y14138D02*
X113494D01*
X124331Y13392D02*
X128269D01*
X126300Y11424D02*
Y15361D01*
X71700Y7839D02*
Y11776D01*
X69731Y9807D02*
X73668D01*
X71700Y14925D02*
Y18862D01*
X69731Y16894D02*
X73668D01*
X123694Y79900D02*
X127631D01*
X125662Y77931D02*
Y81868D01*
X108300Y77931D02*
Y81868D01*
X106332Y79900D02*
X110268D01*
X115269Y75432D02*
Y79369D01*
X113300Y77400D02*
X117237D01*
X118969Y29500D02*
X122906D01*
X120938Y27531D02*
Y31468D01*
X119363Y43600D02*
X123300D01*
X121332Y41631D02*
Y45568D01*
X118416Y37100D02*
X122353D01*
X120385Y35131D02*
Y39068D01*
X103100Y77931D02*
Y81868D01*
X101131Y79900D02*
X105069D01*
X134132Y69800D02*
X138068D01*
X136100Y67831D02*
Y71768D01*
X134132Y77800D02*
X138068D01*
X136100Y75832D02*
Y79769D01*
X146826Y77600D02*
X150763D01*
X148795Y75631D02*
Y79568D01*
X162432Y68900D02*
X166368D01*
X164400Y66931D02*
Y70868D01*
X132431Y65900D02*
X136369D01*
X134400Y63932D02*
Y67869D01*
X162432Y64300D02*
X166368D01*
X164400Y62331D02*
Y66268D01*
X162510Y60000D02*
X166447D01*
X164478Y58031D02*
Y61968D01*
X157132Y38000D02*
X161068D01*
X159100Y36031D02*
Y39968D01*
X137102Y34000D02*
X141039D01*
X139070Y32032D02*
Y35969D01*
X137155Y41400D02*
X141092D01*
X139124Y39432D02*
Y43369D01*
X137655Y27300D02*
X141592D01*
X139624Y25332D02*
Y29269D01*
X137155Y47600D02*
X141092D01*
X139124Y45632D02*
Y49569D01*
X158231Y15500D02*
X162169D01*
X160200Y13532D02*
Y17469D01*
X175500Y53338D02*
Y57275D01*
X173531Y55307D02*
X177469D01*
X175500Y41527D02*
Y45464D01*
X173531Y43496D02*
X177469D01*
X40455Y8700D02*
X44392D01*
X42424Y6731D02*
Y10668D01*
X85334Y52000D02*
X89271D01*
X87302Y50032D02*
Y53969D01*
X72649Y57400D02*
X76586D01*
X74617Y55431D02*
Y59368D01*
X49588Y81600D02*
X53525D01*
X51557Y79632D02*
Y83569D01*
X56104Y81600D02*
X60041D01*
X58073Y79632D02*
Y83569D01*
X70231Y32621D02*
X74168D01*
X72200Y30653D02*
Y34590D01*
X77031Y32421D02*
X80968D01*
X79000Y30453D02*
Y34390D01*
X31427Y11732D02*
Y15668D01*
X29459Y13700D02*
X33396D01*
X77364Y40653D02*
Y44590D01*
X75396Y42621D02*
X79333D01*
X42823Y15969D02*
X46760D01*
X44791Y14000D02*
Y17937D01*
X51032Y12023D02*
Y15960D01*
X49063Y13991D02*
X53000D01*
M02*
