G04*
G04 #@! TF.GenerationSoftware,Altium Limited,Altium Designer,23.0.1 (38)*
G04*
G04 Layer_Physical_Order=2*
G04 Layer_Color=32768*
%FSLAX25Y25*%
%MOIN*%
G70*
G04*
G04 #@! TF.SameCoordinates,F61D067F-344E-4115-8181-82DC4058F137*
G04*
G04*
G04 #@! TF.FilePolarity,Negative*
G04*
G01*
G75*
%ADD94C,0.04000*%
%ADD95C,0.07150*%
%ADD96O,0.10000X0.07000*%
%ADD97C,0.10732*%
%ADD98C,0.08016*%
G04:AMPARAMS|DCode=99|XSize=100.157mil|YSize=100.157mil|CornerRadius=0mil|HoleSize=0mil|Usage=FLASHONLY|Rotation=0.000|XOffset=0mil|YOffset=0mil|HoleType=Round|Shape=Relief|Width=20mil|Gap=10mil|Entries=4|*
%AMTHD99*
7,0,0,0.10016,0.08016,0.02000,45*
%
%ADD99THD99*%
%ADD100C,0.05000*%
G36*
X208296Y96856D02*
X209479Y96367D01*
X210543Y95655D01*
X211449Y94750D01*
X212160Y93685D01*
X212650Y92502D01*
X212900Y91246D01*
Y90606D01*
Y89966D01*
X212650Y88710D01*
X212160Y87527D01*
X211449Y86463D01*
X210543Y85557D01*
X209479Y84846D01*
X208296Y84356D01*
X207040Y84106D01*
X205760D01*
X204504Y84356D01*
X203321Y84846D01*
X202256Y85557D01*
X201351Y86463D01*
X200640Y87527D01*
X200150Y88710D01*
X199900Y89966D01*
Y90606D01*
Y91246D01*
X200150Y92502D01*
X200640Y93685D01*
X201351Y94750D01*
X202256Y95655D01*
X203321Y96367D01*
X204504Y96856D01*
X205760Y97106D01*
X207040D01*
X208296Y96856D01*
D02*
G37*
G36*
X13290D02*
X14473Y96367D01*
X15537Y95655D01*
X16443Y94750D01*
X17154Y93685D01*
X17644Y92502D01*
X17894Y91246D01*
Y90606D01*
Y89966D01*
X17644Y88710D01*
X17154Y87527D01*
X16443Y86463D01*
X15537Y85557D01*
X14473Y84846D01*
X13290Y84356D01*
X12034Y84106D01*
X10753D01*
X9498Y84356D01*
X8315Y84846D01*
X7250Y85557D01*
X6345Y86463D01*
X5633Y87527D01*
X5144Y88710D01*
X4894Y89966D01*
Y90606D01*
Y91246D01*
X5144Y92502D01*
X5633Y93685D01*
X6345Y94750D01*
X7250Y95655D01*
X8315Y96367D01*
X9498Y96856D01*
X10753Y97106D01*
X12034D01*
X13290Y96856D01*
D02*
G37*
G36*
X99121Y21735D02*
X99913Y21407D01*
X100625Y20931D01*
X101232Y20324D01*
X101708Y19612D01*
X102036Y18820D01*
X102203Y17979D01*
Y17550D01*
Y17401D01*
X102089Y17125D01*
X101877Y16913D01*
X101601Y16799D01*
X101302D01*
X101026Y16913D01*
X100814Y17125D01*
X100700Y17401D01*
Y17550D01*
X100686Y17830D01*
X100577Y18377D01*
X100364Y18893D01*
X100053Y19358D01*
X99659Y19752D01*
X99194Y20063D01*
X98678Y20276D01*
X98131Y20385D01*
X97852Y20399D01*
X87748D01*
X87469Y20385D01*
X86922Y20276D01*
X86406Y20063D01*
X85941Y19752D01*
X85547Y19358D01*
X85236Y18893D01*
X85023Y18377D01*
X84914Y17830D01*
X84900Y17550D01*
Y17401D01*
X84786Y17125D01*
X84574Y16913D01*
X84298Y16799D01*
X83999D01*
X83723Y16913D01*
X83511Y17125D01*
X83397Y17401D01*
Y17550D01*
Y17979D01*
X83564Y18820D01*
X83892Y19612D01*
X84368Y20324D01*
X84975Y20931D01*
X85687Y21407D01*
X86479Y21735D01*
X87320Y21902D01*
X98280D01*
X99121Y21735D01*
D02*
G37*
G36*
X101877Y9788D02*
X102089Y9576D01*
X102203Y9300D01*
Y9150D01*
Y8722D01*
X102036Y7881D01*
X101708Y7089D01*
X101232Y6377D01*
X100625Y5771D01*
X99913Y5294D01*
X99121Y4966D01*
X98280Y4799D01*
X87320D01*
X86479Y4966D01*
X85687Y5294D01*
X84975Y5771D01*
X84368Y6377D01*
X83892Y7089D01*
X83564Y7881D01*
X83397Y8722D01*
Y9150D01*
Y9300D01*
X83511Y9576D01*
X83723Y9788D01*
X83999Y9902D01*
X84298D01*
X84574Y9788D01*
X84786Y9576D01*
X84900Y9300D01*
Y9150D01*
X84914Y8871D01*
X85023Y8324D01*
X85236Y7808D01*
X85547Y7343D01*
X85941Y6949D01*
X86406Y6638D01*
X86922Y6425D01*
X87469Y6316D01*
X87748Y6302D01*
X97852D01*
X98131Y6316D01*
X98678Y6425D01*
X99194Y6638D01*
X99659Y6949D01*
X100053Y7343D01*
X100364Y7808D01*
X100577Y8324D01*
X100686Y8871D01*
X100700Y9150D01*
Y9300D01*
X100814Y9576D01*
X101026Y9788D01*
X101302Y9902D01*
X101601D01*
X101877Y9788D01*
D02*
G37*
G36*
X208296Y15650D02*
X209479Y15160D01*
X210543Y14449D01*
X211449Y13544D01*
X212160Y12479D01*
X212650Y11296D01*
X212900Y10040D01*
Y9400D01*
Y8760D01*
X212650Y7504D01*
X212160Y6321D01*
X211449Y5257D01*
X210543Y4351D01*
X209479Y3640D01*
X208296Y3150D01*
X207040Y2900D01*
X205760D01*
X204504Y3150D01*
X203321Y3640D01*
X202256Y4351D01*
X201351Y5257D01*
X200640Y6321D01*
X200150Y7504D01*
X199900Y8760D01*
Y9400D01*
Y10040D01*
X200150Y11296D01*
X200640Y12479D01*
X201351Y13544D01*
X202256Y14449D01*
X203321Y15160D01*
X204504Y15650D01*
X205760Y15900D01*
X207040D01*
X208296Y15650D01*
D02*
G37*
G36*
X13290D02*
X14473Y15160D01*
X15537Y14449D01*
X16443Y13544D01*
X17154Y12479D01*
X17644Y11296D01*
X17894Y10040D01*
Y9400D01*
Y8760D01*
X17644Y7504D01*
X17154Y6321D01*
X16443Y5257D01*
X15537Y4351D01*
X14473Y3640D01*
X13290Y3150D01*
X12034Y2900D01*
X10753D01*
X9498Y3150D01*
X8315Y3640D01*
X7250Y4351D01*
X6345Y5257D01*
X5633Y6321D01*
X5144Y7504D01*
X4894Y8760D01*
Y9400D01*
Y10040D01*
X5144Y11296D01*
X5633Y12479D01*
X6345Y13544D01*
X7250Y14449D01*
X8315Y15160D01*
X9498Y15650D01*
X10753Y15900D01*
X12034D01*
X13290Y15650D01*
D02*
G37*
D94*
X207040Y97106D02*
X208296Y96856D01*
X209479Y96367D01*
X210543Y95655D01*
X211449Y94750D01*
X212160Y93685D01*
X212650Y92502D01*
X212900Y91246D01*
Y90606D02*
Y91246D01*
Y89966D02*
Y90606D01*
X212650Y88710D02*
X212900Y89966D01*
X212160Y87527D02*
X212650Y88710D01*
X211449Y86463D02*
X212160Y87527D01*
X210543Y85557D02*
X211449Y86463D01*
X209479Y84846D02*
X210543Y85557D01*
X208296Y84356D02*
X209479Y84846D01*
X207040Y84106D02*
X208296Y84356D01*
X205760Y84106D02*
X207040D01*
X204504Y84356D02*
X205760Y84106D01*
X203321Y84846D02*
X204504Y84356D01*
X202256Y85557D02*
X203321Y84846D01*
X201351Y86463D02*
X202256Y85557D01*
X200640Y87527D02*
X201351Y86463D01*
X200150Y88710D02*
X200640Y87527D01*
X199900Y89966D02*
X200150Y88710D01*
X199900Y89966D02*
Y90606D01*
Y91246D01*
X200150Y92502D01*
X200640Y93685D01*
X201351Y94750D01*
X202256Y95655D01*
X203321Y96367D01*
X204504Y96856D01*
X205760Y97106D01*
X207040D01*
Y15900D02*
X208296Y15650D01*
X209479Y15160D01*
X210543Y14449D01*
X211449Y13544D01*
X212160Y12479D01*
X212650Y11296D01*
X212900Y10040D01*
Y9400D02*
Y10040D01*
Y8760D02*
Y9400D01*
X212650Y7504D02*
X212900Y8760D01*
X212160Y6321D02*
X212650Y7504D01*
X211449Y5257D02*
X212160Y6321D01*
X210543Y4351D02*
X211449Y5257D01*
X209479Y3640D02*
X210543Y4351D01*
X208296Y3150D02*
X209479Y3640D01*
X207040Y2900D02*
X208296Y3150D01*
X205760Y2900D02*
X207040D01*
X205760Y15900D02*
X207040D01*
X204504Y3150D02*
X205760Y2900D01*
X203321Y3640D02*
X204504Y3150D01*
X202256Y4351D02*
X203321Y3640D01*
X201351Y5257D02*
X202256Y4351D01*
X200640Y6321D02*
X201351Y5257D01*
X200150Y7504D02*
X200640Y6321D01*
X199900Y8760D02*
X200150Y7504D01*
X199900Y8760D02*
Y9400D01*
Y10040D01*
X200150Y11296D01*
X200640Y12479D01*
X201351Y13544D01*
X202256Y14449D01*
X203321Y15160D01*
X204504Y15650D01*
X205760Y15900D01*
X12034Y97106D02*
X13290Y96856D01*
X14473Y96367D01*
X15537Y95655D01*
X16443Y94750D01*
X17154Y93685D01*
X17644Y92502D01*
X17894Y91246D01*
Y90606D02*
Y91246D01*
Y89966D02*
Y90606D01*
X17644Y88710D02*
X17894Y89966D01*
X17154Y87527D02*
X17644Y88710D01*
X16443Y86463D02*
X17154Y87527D01*
X15537Y85557D02*
X16443Y86463D01*
X14473Y84846D02*
X15537Y85557D01*
X13290Y84356D02*
X14473Y84846D01*
X12034Y84106D02*
X13290Y84356D01*
X10753Y84106D02*
X12034D01*
X9498Y84356D02*
X10753Y84106D01*
X8315Y84846D02*
X9498Y84356D01*
X7250Y85557D02*
X8315Y84846D01*
X6345Y86463D02*
X7250Y85557D01*
X5633Y87527D02*
X6345Y86463D01*
X5144Y88710D02*
X5633Y87527D01*
X4894Y89966D02*
X5144Y88710D01*
X4894Y89966D02*
Y90606D01*
Y91246D01*
X5144Y92502D01*
X5633Y93685D01*
X6345Y94750D01*
X7250Y95655D01*
X8315Y96367D01*
X9498Y96856D01*
X10753Y97106D01*
X12034D01*
Y15900D02*
X13290Y15650D01*
X14473Y15160D01*
X15537Y14449D01*
X16443Y13544D01*
X17154Y12479D01*
X17644Y11296D01*
X17894Y10040D01*
Y9400D02*
Y10040D01*
Y8760D02*
Y9400D01*
X17644Y7504D02*
X17894Y8760D01*
X17154Y6321D02*
X17644Y7504D01*
X16443Y5257D02*
X17154Y6321D01*
X15537Y4351D02*
X16443Y5257D01*
X14473Y3640D02*
X15537Y4351D01*
X13290Y3150D02*
X14473Y3640D01*
X12034Y2900D02*
X13290Y3150D01*
X10753Y2900D02*
X12034D01*
X9498Y3150D02*
X10753Y2900D01*
X8315Y3640D02*
X9498Y3150D01*
X7250Y4351D02*
X8315Y3640D01*
X6345Y5257D02*
X7250Y4351D01*
X5633Y6321D02*
X6345Y5257D01*
X5144Y7504D02*
X5633Y6321D01*
X4894Y8760D02*
X5144Y7504D01*
X4894Y8760D02*
Y9400D01*
Y10040D01*
X5144Y11296D01*
X5633Y12479D01*
X6345Y13544D01*
X7250Y14449D01*
X8315Y15160D01*
X9498Y15650D01*
X10753Y15900D01*
X12034D01*
X101601Y9902D02*
X101877Y9788D01*
X102089Y9576D01*
X102203Y9300D01*
Y9150D02*
Y9300D01*
Y8722D02*
Y9150D01*
X102036Y7881D02*
X102203Y8722D01*
X101708Y7089D02*
X102036Y7881D01*
X101232Y6377D02*
X101708Y7089D01*
X100625Y5771D02*
X101232Y6377D01*
X99913Y5294D02*
X100625Y5771D01*
X99121Y4966D02*
X99913Y5294D01*
X98280Y4799D02*
X99121Y4966D01*
X87320Y4799D02*
X98280D01*
X86479Y4966D02*
X87320Y4799D01*
X85687Y5294D02*
X86479Y4966D01*
X84975Y5771D02*
X85687Y5294D01*
X84368Y6377D02*
X84975Y5771D01*
X83892Y7089D02*
X84368Y6377D01*
X83564Y7881D02*
X83892Y7089D01*
X83397Y8722D02*
X83564Y7881D01*
X83397Y8722D02*
Y9150D01*
Y9300D01*
X83511Y9576D01*
X83723Y9788D01*
X83999Y9902D01*
X84298D01*
X84574Y9788D01*
X84786Y9576D01*
X84900Y9300D01*
Y9150D02*
Y9300D01*
Y9150D02*
X84914Y8871D01*
X85023Y8324D01*
X85236Y7808D01*
X85547Y7343D01*
X85941Y6949D01*
X86406Y6638D01*
X86922Y6425D01*
X87469Y6316D01*
X87748Y6302D01*
X97852D01*
X98131Y6316D01*
X98678Y6425D01*
X99194Y6638D01*
X99659Y6949D01*
X100053Y7343D01*
X100364Y7808D01*
X100577Y8324D01*
X100686Y8871D01*
X100700Y9150D01*
Y9300D01*
X100814Y9576D01*
X101026Y9788D01*
X101302Y9902D01*
X101601D01*
X98280Y21902D02*
X99121Y21735D01*
X99913Y21407D01*
X100625Y20931D01*
X101232Y20324D01*
X101708Y19612D01*
X102036Y18820D01*
X102203Y17979D01*
Y17550D02*
Y17979D01*
Y17401D02*
Y17550D01*
X102089Y17125D02*
X102203Y17401D01*
X101877Y16913D02*
X102089Y17125D01*
X101601Y16799D02*
X101877Y16913D01*
X101302Y16799D02*
X101601D01*
X101026Y16913D02*
X101302Y16799D01*
X100814Y17125D02*
X101026Y16913D01*
X100700Y17401D02*
X100814Y17125D01*
X100700Y17401D02*
Y17550D01*
X100686Y17830D02*
X100700Y17550D01*
X100577Y18377D02*
X100686Y17830D01*
X100364Y18893D02*
X100577Y18377D01*
X100053Y19358D02*
X100364Y18893D01*
X99659Y19752D02*
X100053Y19358D01*
X99194Y20063D02*
X99659Y19752D01*
X98678Y20276D02*
X99194Y20063D01*
X98131Y20385D02*
X98678Y20276D01*
X97852Y20399D02*
X98131Y20385D01*
X87748Y20399D02*
X97852D01*
X87469Y20385D02*
X87748Y20399D01*
X86922Y20276D02*
X87469Y20385D01*
X86406Y20063D02*
X86922Y20276D01*
X85941Y19752D02*
X86406Y20063D01*
X85547Y19358D02*
X85941Y19752D01*
X85236Y18893D02*
X85547Y19358D01*
X85023Y18377D02*
X85236Y18893D01*
X84914Y17830D02*
X85023Y18377D01*
X84900Y17550D02*
X84914Y17830D01*
X84900Y17401D02*
Y17550D01*
X84786Y17125D02*
X84900Y17401D01*
X84574Y16913D02*
X84786Y17125D01*
X84298Y16799D02*
X84574Y16913D01*
X83999Y16799D02*
X84298D01*
X83723Y16913D02*
X83999Y16799D01*
X83511Y17125D02*
X83723Y16913D01*
X83397Y17401D02*
X83511Y17125D01*
X83397Y17401D02*
Y17550D01*
Y17979D01*
X83564Y18820D01*
X83892Y19612D01*
X84368Y20324D01*
X84975Y20931D01*
X85687Y21407D01*
X86479Y21735D01*
X87320Y21902D01*
X98280D01*
X213394Y100000D02*
X214167Y99846D01*
X3606Y100000D02*
X213394D01*
X2833Y99846D02*
X3606Y100000D01*
X2105Y99545D02*
X2833Y99846D01*
X1450Y99107D02*
X2105Y99545D01*
X893Y98550D02*
X1450Y99107D01*
X455Y97895D02*
X893Y98550D01*
X154Y97167D02*
X455Y97895D01*
X0Y96394D02*
X154Y97167D01*
X0Y96000D02*
Y96394D01*
X-0Y3606D02*
X0Y4000D01*
X-0Y3606D02*
X154Y2833D01*
X455Y2105D01*
X893Y1450D01*
X1450Y893D01*
X2105Y455D01*
X2833Y154D01*
X3606Y-0D01*
X4000D01*
X213000Y0D01*
X213394D01*
X214167Y154D01*
X214895Y455D01*
X215550Y893D01*
X216107Y1450D01*
X216545Y2105D01*
X216846Y2833D01*
X217000Y3606D01*
Y4000D01*
Y96000D02*
Y96394D01*
X216846Y97167D02*
X217000Y96394D01*
X216545Y97895D02*
X216846Y97167D01*
X216107Y98550D02*
X216545Y97895D01*
X215550Y99107D02*
X216107Y98550D01*
X214895Y99545D02*
X215550Y99107D01*
X214167Y99846D02*
X214895Y99545D01*
X217000Y4000D02*
Y96000D01*
X0Y77000D02*
Y96000D01*
Y77000D02*
X21000D01*
Y23000D02*
Y77000D01*
X0Y23000D02*
X21000D01*
X0Y4000D02*
Y23000D01*
D95*
X189500Y37008D02*
D03*
Y62992D02*
D03*
D96*
X187295Y31850D02*
D03*
Y68150D02*
D03*
D97*
X205012Y31850D02*
D03*
Y68150D02*
D03*
D98*
X121300Y13392D02*
D03*
X131300D02*
D03*
X29400Y92500D02*
D03*
X49400D02*
D03*
X59400D02*
D03*
D99*
X39400D02*
D03*
D100*
X123400Y90600D02*
D03*
X50000Y20000D02*
D03*
X91800Y77600D02*
D03*
X80189Y57347D02*
D03*
X97300Y51900D02*
D03*
X159800Y54100D02*
D03*
X137400Y54300D02*
D03*
X140200Y66496D02*
D03*
X166164Y73007D02*
D03*
X112700Y81900D02*
D03*
X108000Y8000D02*
D03*
X76200Y18862D02*
D03*
X66500Y7839D02*
D03*
X34343Y4100D02*
D03*
M02*
