G04*
G04 #@! TF.GenerationSoftware,Altium Limited,Altium Designer,23.0.1 (38)*
G04*
G04 Layer_Physical_Order=1*
G04 Layer_Color=255*
%FSLAX25Y25*%
%MOIN*%
G70*
G04*
G04 #@! TF.SameCoordinates,F61D067F-344E-4115-8181-82DC4058F137*
G04*
G04*
G04 #@! TF.FilePolarity,Positive*
G04*
G01*
G75*
%ADD14R,0.02953X0.03543*%
%ADD15R,0.01575X0.03150*%
%ADD16R,0.03150X0.01575*%
%ADD17R,0.05709X0.05709*%
%ADD18R,0.02756X0.02756*%
%ADD19R,0.02362X0.01968*%
%ADD20R,0.02362X0.00984*%
%ADD21R,0.01968X0.01181*%
%ADD22R,0.02953X0.03543*%
%ADD23R,0.02756X0.05315*%
%ADD24R,0.12992X0.09449*%
%ADD25R,0.02205X0.00984*%
%ADD26R,0.00984X0.02362*%
%ADD27R,0.01575X0.08268*%
%ADD28R,0.00984X0.06693*%
%ADD29R,0.04721X0.02362*%
%ADD30R,0.04921X0.02362*%
%ADD31R,0.04921X0.01181*%
%ADD32R,0.02165X0.02362*%
%ADD33R,0.03543X0.03937*%
%ADD34R,0.01860X0.02203*%
%ADD35R,0.02029X0.01860*%
%ADD36R,0.02203X0.01860*%
%ADD37R,0.01890X0.01575*%
%ADD38R,0.05339X0.04152*%
%ADD39R,0.02500X0.02410*%
%ADD40R,0.02410X0.02410*%
%ADD41R,0.01968X0.01575*%
%ADD42R,0.03543X0.02953*%
%ADD43R,0.02648X0.02624*%
%ADD44R,0.01968X0.02362*%
%ADD45R,0.02423X0.02254*%
%ADD46R,0.02517X0.02254*%
%ADD47R,0.10984X0.06000*%
%ADD48R,0.03000X0.03591*%
%ADD49R,0.03000X0.03591*%
%ADD50R,0.06378X0.08583*%
%ADD51R,0.01860X0.01843*%
%ADD52R,0.02323X0.01772*%
%ADD53R,0.01968X0.01968*%
%ADD54R,0.02254X0.02230*%
%ADD55R,0.07480X0.04331*%
%ADD56R,0.03000X0.03985*%
%ADD72C,0.01575*%
%ADD75R,0.06181X0.06181*%
%ADD76C,0.06181*%
%ADD79C,0.01575*%
%ADD80C,0.01500*%
%ADD81C,0.02000*%
%ADD82C,0.01900*%
%ADD83C,0.02400*%
%ADD84C,0.00571*%
%ADD85C,0.02362*%
%ADD86C,0.01181*%
%ADD87C,0.02756*%
G04:AMPARAMS|DCode=88|XSize=60mil|YSize=90mil|CornerRadius=15mil|HoleSize=0mil|Usage=FLASHONLY|Rotation=90.000|XOffset=0mil|YOffset=0mil|HoleType=Round|Shape=RoundedRectangle|*
%AMROUNDEDRECTD88*
21,1,0.06000,0.06000,0,0,90.0*
21,1,0.03000,0.09000,0,0,90.0*
1,1,0.03000,0.03000,0.01500*
1,1,0.03000,0.03000,-0.01500*
1,1,0.03000,-0.03000,-0.01500*
1,1,0.03000,-0.03000,0.01500*
%
%ADD88ROUNDEDRECTD88*%
%ADD89C,0.10098*%
%ADD90R,0.05394X0.05394*%
%ADD91C,0.05394*%
%ADD92C,0.02000*%
%ADD93C,0.02400*%
G36*
X176540Y85130D02*
Y82429D01*
X158430Y82479D01*
Y91160D01*
X170510D01*
X176540Y85130D01*
D02*
G37*
G36*
X77400Y87700D02*
X80900Y84200D01*
X88500D01*
Y80600D01*
X73900D01*
X71900Y82600D01*
Y94700D01*
X73790Y96800D01*
X77400D01*
Y87700D01*
D02*
G37*
G36*
X130600Y77500D02*
X133500Y74600D01*
Y72900D01*
X127200D01*
X126500Y73600D01*
Y87400D01*
X130600D01*
Y77500D01*
D02*
G37*
G36*
X148413Y78542D02*
Y69819D01*
X148417Y69815D01*
X148413Y69811D01*
X145981D01*
X142525Y73267D01*
Y78577D01*
X148413Y78542D01*
D02*
G37*
G36*
X109700Y68800D02*
X106900D01*
Y74200D01*
X106200Y74900D01*
X103400D01*
X101800Y76500D01*
Y79300D01*
X109700D01*
Y68800D01*
D02*
G37*
G36*
X138870Y73690D02*
X143590Y68970D01*
X146660D01*
Y67970D01*
X142310D01*
X141390Y68890D01*
X136670D01*
X136660Y68880D01*
Y78720D01*
X138870D01*
Y73690D01*
D02*
G37*
G36*
X151308Y90089D02*
X152748Y88649D01*
Y81002D01*
X151466Y79720D01*
Y66012D01*
X151439D01*
Y63784D01*
X144401Y63784D01*
X144376Y63785D01*
X144330Y63807D01*
X144296Y63844D01*
X144280Y63892D01*
X144281Y63917D01*
X144281Y63917D01*
Y64989D01*
Y64997D01*
X144287Y65011D01*
X144298Y65022D01*
X144312Y65028D01*
X144320Y65028D01*
X148348Y65028D01*
X148491Y65085D01*
X148752Y65247D01*
X148969Y65464D01*
X149130Y65725D01*
X149188Y65868D01*
X149188Y65868D01*
X149188Y80718D01*
X149169Y81105D01*
X149018Y81866D01*
X148721Y82581D01*
X148291Y83226D01*
X147743Y83774D01*
X147098Y84204D01*
X146382Y84501D01*
X145622Y84652D01*
X145235Y84671D01*
X145235Y84671D01*
X143897Y86009D01*
X143897Y89645D01*
X144404Y90152D01*
X151308D01*
Y90089D01*
D02*
G37*
G36*
X167585Y74837D02*
X167629Y74837D01*
X167712Y74811D01*
X167784Y74761D01*
X167837Y74692D01*
X167852Y74651D01*
X167852Y74651D01*
X167860Y74629D01*
X167872Y74585D01*
X167880Y74540D01*
X167884Y74494D01*
X167884Y74471D01*
X167884Y74471D01*
X167884Y63320D01*
X167884Y63263D01*
X167843Y63155D01*
X167766Y63068D01*
X167663Y63015D01*
X167606Y63008D01*
X167606Y63008D01*
X164974Y63008D01*
X164936Y63007D01*
X164864Y63035D01*
X164809Y63089D01*
X164779Y63160D01*
X164779Y63198D01*
Y63198D01*
Y74592D01*
Y74641D01*
X164816Y74731D01*
X164885Y74800D01*
X164975Y74837D01*
X165024D01*
X165024Y74837D01*
X167585Y74837D01*
D02*
G37*
G36*
X77300Y77300D02*
Y61600D01*
X73700D01*
Y63900D01*
X72600Y65000D01*
X70375D01*
X70500Y66500D01*
X73700Y69700D01*
Y77600D01*
X77000D01*
X77300Y77300D01*
D02*
G37*
G36*
X164100Y54302D02*
X162106Y52497D01*
X157899Y52497D01*
X153919Y56477D01*
X153919Y61171D01*
X160098D01*
X160098Y61171D01*
X160098Y61171D01*
X160098D01*
X160413Y61518D01*
X160933Y62297D01*
X161291Y63162D01*
X161474Y64080D01*
X161497Y64548D01*
X161497Y70031D01*
X164100D01*
Y54302D01*
D02*
G37*
G36*
X157045Y90963D02*
Y81889D01*
X158071Y80929D01*
X172124Y80929D01*
X172133Y80931D01*
X172622Y80927D01*
X173093Y80797D01*
X173515Y80551D01*
X173688Y80378D01*
X175891Y78175D01*
Y65972D01*
Y65972D01*
X175895Y65894D01*
X175925Y65743D01*
X175984Y65600D01*
X176070Y65471D01*
X176122Y65414D01*
X180747Y60789D01*
X180804Y60763D01*
X180918Y60719D01*
X181036Y60684D01*
X181157Y60657D01*
X181217Y60647D01*
X183987Y60647D01*
X183987Y58456D01*
X173818D01*
X169956Y62318D01*
X169956Y74075D01*
X169956Y74075D01*
X169808Y74414D01*
X169430Y75049D01*
X168952Y75613D01*
X168387Y76090D01*
X167751Y76467D01*
X167061Y76733D01*
X166850Y76776D01*
X163164D01*
X163164Y76776D01*
X162862Y76730D01*
X162276Y76564D01*
X161726Y76301D01*
X161229Y75948D01*
X160798Y75517D01*
X160445Y75020D01*
X160182Y74470D01*
X160015Y73884D01*
X159970Y73582D01*
Y63939D01*
X153498D01*
X153465Y63972D01*
Y90963D01*
X152740Y92940D01*
X157045Y90963D01*
D02*
G37*
G36*
X114400Y53200D02*
X111900D01*
X109304Y55296D01*
Y55800D01*
X117000D01*
X114400Y53200D01*
D02*
G37*
G36*
X145320Y58350D02*
Y52960D01*
X143310D01*
X140810Y55460D01*
Y60300D01*
X140880Y60370D01*
X143290Y60380D01*
X145320Y58350D01*
D02*
G37*
G36*
X167340Y47350D02*
X164570Y44580D01*
X153620D01*
X151930Y46980D01*
Y52850D01*
X152883Y51986D01*
X154446Y50696D01*
X163526D01*
X164740Y51910D01*
Y61020D01*
X164920Y61200D01*
X167340D01*
Y47350D01*
D02*
G37*
G36*
X182000Y37605D02*
Y36300D01*
X167300D01*
X164300Y39300D01*
Y43100D01*
X176505D01*
X182000Y37605D01*
D02*
G37*
G36*
X57600Y36300D02*
X30000D01*
Y64100D01*
X57600D01*
Y36300D01*
D02*
G37*
G36*
X137700Y32100D02*
X134600D01*
Y39600D01*
X128500Y45700D01*
Y49400D01*
X137800D01*
X137700Y32100D01*
D02*
G37*
G36*
X178960Y16050D02*
Y13930D01*
X176260Y11230D01*
X165320D01*
Y19760D01*
X175250D01*
X178960Y16050D01*
D02*
G37*
G36*
X143430Y49970D02*
X146166Y47620D01*
X146166Y42334D01*
X157000Y31500D01*
X164600Y31500D01*
Y23900D01*
X154175Y10000D01*
X128200D01*
Y22000D01*
X139500D01*
X140500Y23000D01*
Y52900D01*
X143430Y49970D01*
D02*
G37*
G36*
X125200Y51563D02*
X125200Y45800D01*
X128300Y42300D01*
Y31500D01*
X125200Y29000D01*
X125200Y10000D01*
X117000D01*
X117000Y21438D01*
X121722Y26160D01*
Y52113D01*
X124650D01*
X125200Y51563D01*
D02*
G37*
G36*
X113290Y8890D02*
X110340Y5940D01*
X107130D01*
X107110Y5920D01*
X105840Y7190D01*
Y10638D01*
X104127Y11290D01*
Y12237D01*
X105140Y13250D01*
X113290D01*
Y8890D01*
D02*
G37*
D14*
X29618Y8100D02*
D03*
X34343D02*
D03*
X87046Y82401D02*
D03*
X91771D02*
D03*
X141986Y27300D02*
D03*
X137261D02*
D03*
X80253Y75899D02*
D03*
X75529D02*
D03*
X123300Y79900D02*
D03*
X128024D02*
D03*
X123300Y29500D02*
D03*
X118576D02*
D03*
D15*
X59550Y26772D02*
D03*
X28054D02*
D03*
X31203D02*
D03*
X34353D02*
D03*
X37502D02*
D03*
X40652D02*
D03*
X43802D02*
D03*
X46951D02*
D03*
X50101D02*
D03*
X53250D02*
D03*
X56400D02*
D03*
X59550Y73228D02*
D03*
X56400D02*
D03*
X53250D02*
D03*
X50101D02*
D03*
X46951D02*
D03*
X43802D02*
D03*
X40652D02*
D03*
X37502D02*
D03*
X34353D02*
D03*
X31203D02*
D03*
X28054D02*
D03*
D16*
X63093Y31102D02*
D03*
Y34252D02*
D03*
Y37402D02*
D03*
Y40551D02*
D03*
Y43701D02*
D03*
Y46850D02*
D03*
Y50000D02*
D03*
Y53150D02*
D03*
Y56299D02*
D03*
Y59449D02*
D03*
Y62598D02*
D03*
Y65748D02*
D03*
Y68898D02*
D03*
X24510D02*
D03*
Y65748D02*
D03*
Y62598D02*
D03*
Y59449D02*
D03*
Y56299D02*
D03*
Y53150D02*
D03*
Y50000D02*
D03*
Y46850D02*
D03*
Y43701D02*
D03*
Y40551D02*
D03*
Y37402D02*
D03*
Y34252D02*
D03*
Y31102D02*
D03*
D17*
X43802Y50000D02*
D03*
Y42224D02*
D03*
X51577D02*
D03*
Y50000D02*
D03*
Y57776D02*
D03*
X43802D02*
D03*
X36026D02*
D03*
Y50000D02*
D03*
Y42224D02*
D03*
D18*
X24313Y73425D02*
D03*
X63290D02*
D03*
Y26575D02*
D03*
X24313D02*
D03*
D19*
X40652Y17968D02*
D03*
Y14031D02*
D03*
X71700Y11776D02*
D03*
Y7839D02*
D03*
Y14925D02*
D03*
Y18862D02*
D03*
X44791Y17937D02*
D03*
Y14000D02*
D03*
D20*
X145463Y62559D02*
D03*
Y64528D02*
D03*
Y66496D02*
D03*
Y68465D02*
D03*
D21*
X90044Y14925D02*
D03*
Y11776D02*
D03*
X95556D02*
D03*
Y14925D02*
D03*
D22*
X123300Y85500D02*
D03*
X129131D02*
D03*
X123300Y37100D02*
D03*
X117469D02*
D03*
D23*
X123300Y71524D02*
D03*
X118300D02*
D03*
X113300D02*
D03*
X108300D02*
D03*
Y49476D02*
D03*
X113300D02*
D03*
X118300D02*
D03*
X123300D02*
D03*
D24*
X115800Y60500D02*
D03*
D25*
X156565Y68465D02*
D03*
Y66496D02*
D03*
Y64528D02*
D03*
D26*
X147313Y71024D02*
D03*
X154400Y60000D02*
D03*
X147313D02*
D03*
D27*
X150148Y68071D02*
D03*
X154715D02*
D03*
D28*
X152431Y62165D02*
D03*
D29*
X185031Y37402D02*
D03*
D30*
Y40551D02*
D03*
Y59449D02*
D03*
Y62598D02*
D03*
D31*
Y45079D02*
D03*
Y49016D02*
D03*
Y50984D02*
D03*
Y54921D02*
D03*
Y56890D02*
D03*
Y52953D02*
D03*
Y47047D02*
D03*
Y43110D02*
D03*
D32*
X59746Y81600D02*
D03*
X56400D02*
D03*
X49884D02*
D03*
X53230D02*
D03*
D33*
X91771Y88451D02*
D03*
X75629D02*
D03*
X91771Y94750D02*
D03*
X75629D02*
D03*
X91671Y63550D02*
D03*
X75529D02*
D03*
X91671Y69849D02*
D03*
X75529D02*
D03*
D34*
X137400Y58703D02*
D03*
Y62059D02*
D03*
D35*
X144333Y53900D02*
D03*
X147313D02*
D03*
D36*
X134422Y77800D02*
D03*
X137778D02*
D03*
Y69800D02*
D03*
X134422D02*
D03*
X150276Y77600D02*
D03*
X147313D02*
D03*
D37*
X132581Y73800D02*
D03*
X137778D02*
D03*
D38*
X168500Y84557D02*
D03*
Y78843D02*
D03*
X161100Y84557D02*
D03*
Y78843D02*
D03*
D39*
X151443Y82600D02*
D03*
X154715D02*
D03*
X151443Y87500D02*
D03*
X154715D02*
D03*
X162842Y60000D02*
D03*
X166114D02*
D03*
D40*
X75728Y22221D02*
D03*
X79000D02*
D03*
Y42621D02*
D03*
X75728D02*
D03*
D41*
X107876Y11776D02*
D03*
Y14925D02*
D03*
D42*
X111525Y11776D02*
D03*
Y16500D02*
D03*
D43*
X108300Y77920D02*
D03*
Y81880D02*
D03*
X103100D02*
D03*
Y77920D02*
D03*
D44*
X113300Y77400D02*
D03*
X117237D02*
D03*
X119363Y43600D02*
D03*
X123300D02*
D03*
X132431Y65900D02*
D03*
X136369D02*
D03*
X85334Y52000D02*
D03*
X89271D02*
D03*
X72649Y57400D02*
D03*
X76586D02*
D03*
D45*
X166087Y68900D02*
D03*
X162713D02*
D03*
D46*
X166040Y64300D02*
D03*
X162760D02*
D03*
D47*
X159100Y28451D02*
D03*
Y47549D02*
D03*
D48*
X141986Y34000D02*
D03*
X136155D02*
D03*
D49*
X141986Y41400D02*
D03*
X136261D02*
D03*
X141986Y47600D02*
D03*
X136261D02*
D03*
D50*
X151893Y15500D02*
D03*
X168507D02*
D03*
D51*
X175500Y53723D02*
D03*
Y56890D02*
D03*
Y41912D02*
D03*
Y45079D02*
D03*
D52*
X80956Y52000D02*
D03*
X72649D02*
D03*
D53*
X44195Y8700D02*
D03*
X40652D02*
D03*
X49260Y13991D02*
D03*
X52803D02*
D03*
D54*
X72200Y30838D02*
D03*
Y34405D02*
D03*
D55*
X79000Y27500D02*
D03*
Y37343D02*
D03*
D56*
X28512Y13700D02*
D03*
X34343D02*
D03*
D72*
X189500Y37008D02*
D03*
Y62992D02*
D03*
D75*
X121300Y13392D02*
D03*
D76*
X131300D02*
D03*
D79*
X117200Y81600D02*
X117237Y81563D01*
Y77400D02*
Y81563D01*
X44195Y4100D02*
Y8700D01*
X40652D02*
Y14031D01*
Y17968D02*
Y26772D01*
X52803Y4100D02*
Y13991D01*
X44342Y4157D02*
X44400Y4100D01*
X44791Y14000D02*
X44796Y13996D01*
X49255D01*
X49260Y13991D01*
X128024Y73862D02*
Y79900D01*
Y80195D02*
X129131Y81302D01*
X128024Y79900D02*
Y80195D01*
X151400Y80800D02*
Y82557D01*
X150590Y79990D02*
X151400Y80800D01*
X117200Y81600D02*
Y82000D01*
X128100Y73800D02*
X132581D01*
X145800Y87500D02*
X151443D01*
X150590Y77743D02*
Y79990D01*
X150276Y77600D02*
X150447D01*
X150590Y77743D01*
X150212Y68135D02*
Y77536D01*
X43791Y22703D02*
X44791Y21703D01*
X43791Y22703D02*
Y26772D01*
X44791Y17937D02*
Y21703D01*
D80*
X58483Y92500D02*
X59400D01*
X56065Y90082D02*
X58483Y92500D01*
X56067Y81933D02*
Y82696D01*
X56065Y82699D02*
Y90082D01*
Y82699D02*
X56067Y82696D01*
Y81933D02*
X56400Y81600D01*
X53565Y82699D02*
Y89335D01*
X53563Y82696D02*
X53565Y82699D01*
X53563Y81933D02*
Y82696D01*
X50400Y92500D02*
X53565Y89335D01*
X53230Y81600D02*
X53563Y81933D01*
X49400Y92500D02*
X50400D01*
X56065Y78669D02*
Y80501D01*
X56075Y74341D02*
Y78659D01*
Y74341D02*
X56400Y74016D01*
X53565Y77634D02*
Y80501D01*
Y77634D02*
X53575Y77623D01*
X53563Y80503D02*
X53565Y80501D01*
X53563Y80503D02*
Y81267D01*
X53250Y74016D02*
X53575Y74341D01*
X56067Y81267D02*
X56400Y81600D01*
X53575Y74341D02*
Y77623D01*
X56065Y80501D02*
X56067Y80503D01*
X53230Y81600D02*
X53563Y81267D01*
X53250Y73228D02*
Y74016D01*
X56065Y78669D02*
X56075Y78659D01*
X56400Y73228D02*
Y74016D01*
X56067Y80503D02*
Y81267D01*
X63290Y73435D02*
Y78590D01*
X31196Y19000D02*
Y26768D01*
X50053Y20053D02*
Y26734D01*
X50091Y26772D01*
X50000Y20000D02*
X50053Y20053D01*
X91771Y82401D02*
Y88451D01*
Y78229D02*
X91800Y78200D01*
X91771Y88451D02*
Y94750D01*
Y78229D02*
Y82401D01*
X91800Y77600D02*
Y78200D01*
X75529Y65900D02*
Y69849D01*
X63083Y65748D02*
X75377D01*
X75529Y65900D01*
X80162Y57374D02*
X80189Y57347D01*
X147300Y72600D02*
Y77587D01*
X108928Y45072D02*
X110400Y43600D01*
X119363D01*
X108300Y49453D02*
X108928Y48825D01*
Y45072D02*
Y48825D01*
X123300Y29500D02*
Y37100D01*
X123300Y37100D01*
Y43600D01*
X123300Y43600D01*
X76586Y57400D02*
X76612Y57374D01*
X75529Y69849D02*
Y75899D01*
X108300Y71500D02*
Y77920D01*
Y71500D02*
X108300Y71500D01*
X108300Y77920D02*
X108300Y77920D01*
X28054Y18900D02*
Y26772D01*
X24300Y18900D02*
Y26572D01*
D81*
X59746Y81600D02*
X66100D01*
X43100D02*
X49884D01*
X39400Y85300D02*
X43100Y81600D01*
X129131Y81302D02*
Y85500D01*
X113300Y57976D02*
X115524Y60200D01*
X115800D01*
X113300Y71500D02*
Y77400D01*
X75500Y82401D02*
Y88322D01*
X75629Y88451D02*
Y94750D01*
X75500Y82401D02*
X87046D01*
X71339Y42661D02*
X75689D01*
X91671Y56971D02*
Y63550D01*
X130500Y27300D02*
X137261D01*
X141986Y47600D02*
Y50014D01*
Y41400D02*
Y47600D01*
X63279Y19900D02*
Y26575D01*
X141986Y27300D02*
Y33705D01*
X168500Y84557D02*
X168521Y84579D01*
X161100Y84557D02*
X168500D01*
X141986Y34000D02*
Y41400D01*
X136261D02*
Y47600D01*
X129600D02*
X136261D01*
X136208Y41347D02*
X136261Y41400D01*
X136208Y34053D02*
Y41347D01*
X175279Y84579D02*
X175300Y84600D01*
X168521Y84579D02*
X175279D01*
X129500Y65900D02*
X132431D01*
X129500Y69800D02*
X134422D01*
X175200Y37500D02*
X175249Y37451D01*
X184982D02*
X185031Y37402D01*
X166012Y41912D02*
X175500D01*
X175477Y49977D02*
Y53700D01*
X175400Y49900D02*
X175477Y49977D01*
Y53700D02*
X175500Y53723D01*
X136155Y34000D02*
X136208Y34053D01*
X91671Y63550D02*
Y69849D01*
X80254Y75900D02*
X84600D01*
X24400Y8000D02*
X29518D01*
X24340Y13700D02*
X28512D01*
X39400Y85300D02*
Y92500D01*
X24303Y73425D02*
Y78900D01*
D82*
X123300Y79900D02*
Y79900D01*
Y85500D01*
Y71524D02*
Y79900D01*
Y79900D01*
X121320Y13392D02*
Y18800D01*
X123300Y20780D01*
X34343Y13700D02*
Y26772D01*
Y8100D02*
Y13700D01*
X123300Y85500D02*
X123350Y85550D01*
Y90550D01*
X123400Y90600D01*
X174696Y64041D02*
Y73471D01*
X179288Y59449D02*
X185031D01*
X174696Y64041D02*
X179288Y59449D01*
X154479Y87736D02*
Y89949D01*
X154715Y82600D02*
Y87500D01*
X154479Y87736D02*
X154715Y87500D01*
X152352Y92076D02*
X154479Y89949D01*
X137276Y92076D02*
X152352D01*
X134422Y89222D02*
X137276Y92076D01*
X154715Y68071D02*
Y82600D01*
X168500Y78843D02*
X169626Y77716D01*
X170450D02*
X174696Y73471D01*
X161100Y78843D02*
X168500D01*
X169626Y77716D02*
X170450D01*
X76612Y57374D02*
X80162D01*
X89271Y51984D02*
Y52000D01*
X89305Y51950D02*
X97250D01*
X89271Y51984D02*
X89305Y51950D01*
X97250D02*
X97300Y51900D01*
X123300Y20780D02*
Y29500D01*
X159100Y47549D02*
X161150Y49599D01*
X163899D01*
X166114Y51814D01*
Y60000D01*
X166087Y72930D02*
X166164Y73007D01*
X166087Y68900D02*
Y72930D01*
X134422Y77800D02*
Y89222D01*
X155015Y80585D02*
Y82345D01*
Y80585D02*
X156900Y78700D01*
X154715Y82600D02*
X154760D01*
X155015Y82345D01*
X156900Y78700D02*
X160957D01*
X161100Y78843D01*
X193200Y42600D02*
Y56800D01*
X185031Y59449D02*
X190551D01*
X193200Y56800D01*
X191151Y40551D02*
X193200Y42600D01*
X185031Y40551D02*
X191151D01*
X166064Y64324D02*
Y68876D01*
X166040Y64300D02*
X166064Y64324D01*
Y68876D02*
X166087Y68900D01*
X162801Y60041D02*
Y64259D01*
X162760Y64300D02*
X162801Y64259D01*
X162736Y64324D02*
X162760Y64300D01*
X162713Y68900D02*
X162736Y68876D01*
Y64324D02*
Y68876D01*
X123300Y43600D02*
Y49453D01*
X34343Y4143D02*
Y8100D01*
X66500Y7839D02*
X71700D01*
Y18862D02*
X76200D01*
D83*
X134420Y16600D02*
X151893D01*
X131256Y13436D02*
X134420Y16600D01*
X151893D02*
Y25136D01*
Y15500D02*
Y16600D01*
X137400Y54300D02*
X141686Y50014D01*
X137400Y54300D02*
Y58703D01*
X146386Y29600D02*
X156357D01*
X156408Y29651D01*
X158900D01*
X142581Y33404D02*
X146386Y29600D01*
X151893Y25136D02*
X156357Y29600D01*
X168507Y15500D02*
X177700D01*
X141986Y33705D02*
X142286Y33404D01*
X141986Y33705D02*
Y34000D01*
X142286Y33404D02*
X142581D01*
D84*
X61124Y11776D02*
X71700D01*
X53240Y19660D02*
X61124Y11776D01*
X53240Y19660D02*
Y26772D01*
X61875Y14925D02*
X71700D01*
X56390Y20410D02*
X61875Y14925D01*
X56390Y20410D02*
Y26772D01*
X71700Y11776D02*
X90044D01*
X71700Y14925D02*
X90044D01*
X63290Y78590D02*
X63300Y78600D01*
X151443Y82600D02*
Y87500D01*
X107876Y14925D02*
Y25676D01*
X24500Y62600D02*
X28200D01*
X24351Y65651D02*
X24500D01*
X31500Y57676D02*
X36116D01*
X31500Y49900D02*
X36233D01*
X35916Y42124D02*
X36233D01*
X36116Y57676D02*
X39791Y54000D01*
X36016Y57776D02*
X36116Y57676D01*
X36233D01*
X34343Y40551D02*
X35916Y42124D01*
X31500D02*
X35916D01*
X63083Y62598D02*
X69702D01*
X72649Y59651D01*
Y52000D02*
Y59651D01*
X24500Y65748D02*
X28200D01*
X24500Y68898D02*
X28200D01*
X24551Y50000D02*
X28200D01*
X24551Y46850D02*
X28200D01*
X24500Y59449D02*
X28200D01*
X24500Y56299D02*
X28200D01*
X24500Y53150D02*
X28200D01*
X24602Y37402D02*
X28200D01*
X24552Y34252D02*
X28200D01*
X24500Y43701D02*
X28200D01*
X24551Y40551D02*
X28200D01*
X24500Y31102D02*
X28200D01*
X51567Y57776D02*
X56300D01*
X51567Y50000D02*
X56300D01*
X152431Y51726D02*
X156608Y47549D01*
X152431Y51726D02*
Y62165D01*
X156608Y47549D02*
X159100D01*
X161150Y49599D01*
X142998Y68472D02*
X145455D01*
X142870Y68600D02*
X142998Y68472D01*
X145455D02*
X145463Y68465D01*
X140200Y66496D02*
X145463D01*
X136853D02*
X140200D01*
X141630Y69800D02*
X142830Y68600D01*
X142870D01*
X137778Y69800D02*
X141630D01*
X103100Y81880D02*
Y87500D01*
X39800Y46100D02*
X39891D01*
X43791Y50000D01*
X40000Y53791D02*
X43791Y50000D01*
X40000Y53791D02*
Y54000D01*
X43791Y50000D02*
X47791Y54000D01*
X47900D01*
X43791Y50000D02*
X47691Y46100D01*
X47700D01*
Y46091D02*
Y46100D01*
Y46091D02*
X51567Y42224D01*
X47900Y54109D02*
X51567Y57776D01*
X47900Y54000D02*
Y54109D01*
X39791Y54000D02*
X40000D01*
X35916Y42124D02*
X39800Y46009D01*
Y46100D01*
X43791Y37470D02*
Y42224D01*
X51567D02*
X56300D01*
X43791Y57776D02*
Y62700D01*
X71300Y42700D02*
X71339Y42661D01*
X109100Y37200D02*
X117369D01*
X110600Y29500D02*
X118576D01*
X111378Y16353D02*
X111525Y16500D01*
X111500Y16525D02*
Y21700D01*
X80956Y52000D02*
X85334D01*
X162871Y57171D02*
Y59971D01*
X159800Y54100D02*
X162871Y57171D01*
X162842Y60000D02*
X162871Y59971D01*
X142000Y58100D02*
X144333Y55767D01*
X161150Y49599D02*
X163899D01*
X144333Y53900D02*
Y55767D01*
X136369Y66012D02*
X136853Y66496D01*
X136369Y65900D02*
Y66012D01*
X108320Y81900D02*
X112700D01*
X137778Y73800D02*
Y77800D01*
Y69800D02*
Y73800D01*
X147313Y53900D02*
Y60000D01*
X154400D02*
X162760D01*
X150148Y68071D02*
X150212Y68135D01*
Y77536D02*
X150276Y77600D01*
X150148Y64815D02*
Y68071D01*
X149861Y64528D02*
X150148Y64815D01*
X145463Y64528D02*
X149861D01*
X140859Y62059D02*
X141359Y62559D01*
X137400Y62059D02*
X140859D01*
X141359Y62559D02*
X145463D01*
X147306Y71031D02*
Y72594D01*
X147300Y72600D02*
X147306Y72594D01*
X103100Y77920D02*
X108300D01*
X107938Y8062D02*
Y11714D01*
Y8062D02*
X108000Y8000D01*
X107876Y11776D02*
X107938Y11714D01*
X95556Y11776D02*
X107876D01*
X111525D01*
X80253Y75899D02*
X80254Y75900D01*
X117369Y37200D02*
X117469Y37100D01*
X95556Y14925D02*
X107876D01*
X29518Y8000D02*
X29618Y8100D01*
X63279Y73425D02*
X63290Y73435D01*
X75689Y42661D02*
X75728Y42621D01*
X79000Y37343D02*
Y42621D01*
Y22221D02*
Y27500D01*
X72124Y34328D02*
X72795Y35000D01*
X75083D01*
X77425Y37343D01*
X72200Y30838D02*
X72815Y30223D01*
X74703D01*
X77425Y27500D01*
X79000D01*
X77425Y37343D02*
X79000D01*
X63083Y34252D02*
X63159Y34328D01*
X72124D01*
X63215Y30970D02*
X72068D01*
X63083Y31102D02*
X63215Y30970D01*
X72068D02*
X72200Y30838D01*
X71300Y22221D02*
X75728D01*
X31193Y26772D02*
X31196Y26768D01*
X28412Y13800D02*
X28512Y13700D01*
X111500Y16525D02*
X111525Y16500D01*
D85*
X175249Y37451D02*
X184982D01*
D86*
X175500Y45079D02*
X185031D01*
X175500Y56890D02*
X185031D01*
D87*
X113300Y49453D02*
Y57976D01*
D88*
X187295Y31850D02*
D03*
Y68150D02*
D03*
D89*
X205012Y31850D02*
D03*
Y68150D02*
D03*
D90*
X29400Y92500D02*
D03*
D91*
X39400D02*
D03*
X49400D02*
D03*
X59400D02*
D03*
D92*
X85000Y44200D02*
D03*
X101800Y47700D02*
D03*
X92700Y40600D02*
D03*
X102400Y95000D02*
D03*
X130000Y56800D02*
D03*
X150000Y5000D02*
D03*
X175000Y95000D02*
D03*
X190000D02*
D03*
Y84400D02*
D03*
X135000Y95000D02*
D03*
X190000Y5000D02*
D03*
X155000Y95000D02*
D03*
X190000Y15300D02*
D03*
X80000Y4000D02*
D03*
X170000Y5000D02*
D03*
X66100Y81600D02*
D03*
X52803Y4100D02*
D03*
X44195D02*
D03*
X80000Y18862D02*
D03*
X84000Y57347D02*
D03*
X123200Y95000D02*
D03*
X108000Y4000D02*
D03*
X66400D02*
D03*
X30400Y4100D02*
D03*
X31500Y42124D02*
D03*
Y49900D02*
D03*
Y57676D02*
D03*
X43791Y37470D02*
D03*
X28200Y34252D02*
D03*
Y37402D02*
D03*
X43791Y62700D02*
D03*
X56300Y42224D02*
D03*
Y50000D02*
D03*
Y57776D02*
D03*
X47700Y46100D02*
D03*
X47900Y54000D02*
D03*
X39800Y46100D02*
D03*
X40000Y54000D02*
D03*
X80189Y57347D02*
D03*
X71300Y42700D02*
D03*
X91671Y56900D02*
D03*
X84600Y75900D02*
D03*
X109100Y37200D02*
D03*
X110600Y29500D02*
D03*
X111500Y21700D02*
D03*
X130500Y27300D02*
D03*
X63279Y19900D02*
D03*
X128024Y73862D02*
D03*
X129500Y69800D02*
D03*
Y65900D02*
D03*
X129600Y47600D02*
D03*
X108000Y8000D02*
D03*
X115650Y63000D02*
D03*
Y58000D02*
D03*
X119800D02*
D03*
X111500D02*
D03*
Y63000D02*
D03*
X119800Y62900D02*
D03*
X107900Y25700D02*
D03*
X76200Y18862D02*
D03*
X66500Y7839D02*
D03*
X34343Y4100D02*
D03*
X24400Y8000D02*
D03*
X24340Y13700D02*
D03*
X63300Y79100D02*
D03*
X71300Y22221D02*
D03*
X28200Y53150D02*
D03*
Y46850D02*
D03*
Y31102D02*
D03*
X24303Y78900D02*
D03*
X28200Y68898D02*
D03*
Y65748D02*
D03*
Y62600D02*
D03*
Y59449D02*
D03*
Y56299D02*
D03*
Y50000D02*
D03*
Y43701D02*
D03*
Y40551D02*
D03*
X24300Y18900D02*
D03*
X28054D02*
D03*
X31200Y19000D02*
D03*
D93*
X175200Y37500D02*
D03*
X123400Y90600D02*
D03*
X50000Y20000D02*
D03*
X103100Y87500D02*
D03*
X91800Y77600D02*
D03*
X75500Y82401D02*
D03*
X97300Y51900D02*
D03*
X159800Y54100D02*
D03*
X142000Y58100D02*
D03*
X137400Y54300D02*
D03*
X140200Y66496D02*
D03*
X166164Y73007D02*
D03*
X177700Y15500D02*
D03*
X117200Y81900D02*
D03*
X145800Y87500D02*
D03*
X175300Y84600D02*
D03*
X166000Y41900D02*
D03*
X175400Y49900D02*
D03*
X112700Y81900D02*
D03*
M02*
