G04*
G04 #@! TF.GenerationSoftware,Altium Limited,Altium Designer,23.0.1 (38)*
G04*
G04 Layer_Color=128*
%FSLAX25Y25*%
%MOIN*%
G70*
G04*
G04 #@! TF.SameCoordinates,F61D067F-344E-4115-8181-82DC4058F137*
G04*
G04*
G04 #@! TF.FilePolarity,Positive*
G04*
G01*
G75*
%ADD106C,0.00500*%
D106*
X187925Y37008D02*
X191075D01*
X189500Y35433D02*
Y38583D01*
X187925Y62992D02*
X191075D01*
X189500Y61417D02*
Y64567D01*
X185795Y31850D02*
X188795D01*
X187295Y30350D02*
Y33350D01*
X185795Y68150D02*
X188795D01*
X187295Y66650D02*
Y69650D01*
X201646Y31850D02*
X208378D01*
X205012Y28484D02*
Y35217D01*
X201646Y68150D02*
X208378D01*
X205012Y64784D02*
Y71516D01*
X119292Y13392D02*
X123308D01*
X121300Y11384D02*
Y15400D01*
X129292Y13392D02*
X133308D01*
X131300Y11384D02*
Y15400D01*
X27392Y92500D02*
X31408D01*
X29400Y90492D02*
Y94508D01*
X37392Y92500D02*
X41408D01*
X39400Y90492D02*
Y94508D01*
X47392Y92500D02*
X51408D01*
X49400Y90492D02*
Y94508D01*
X57392Y92500D02*
X61408D01*
X59400Y90492D02*
Y94508D01*
X84500Y44200D02*
X85500D01*
X85000Y43700D02*
Y44700D01*
X101300Y47700D02*
X102300D01*
X101800Y47200D02*
Y48200D01*
X92200Y40600D02*
X93200D01*
X92700Y40100D02*
Y41100D01*
X101900Y95000D02*
X102900D01*
X102400Y94500D02*
Y95500D01*
X129500Y56800D02*
X130500D01*
X130000Y56300D02*
Y57300D01*
X149500Y5000D02*
X150500D01*
X150000Y4500D02*
Y5500D01*
X174500Y95000D02*
X175500D01*
X175000Y94500D02*
Y95500D01*
X189500Y95000D02*
X190500D01*
X190000Y94500D02*
Y95500D01*
X189500Y84400D02*
X190500D01*
X190000Y83900D02*
Y84900D01*
X134500Y95000D02*
X135500D01*
X135000Y94500D02*
Y95500D01*
X189500Y5000D02*
X190500D01*
X190000Y4500D02*
Y5500D01*
X154500Y95000D02*
X155500D01*
X155000Y94500D02*
Y95500D01*
X189500Y15300D02*
X190500D01*
X190000Y14800D02*
Y15800D01*
X79500Y4000D02*
X80500D01*
X80000Y3500D02*
Y4500D01*
X169500Y5000D02*
X170500D01*
X170000Y4500D02*
Y5500D01*
X65600Y81600D02*
X66600D01*
X66100Y81100D02*
Y82100D01*
X52303Y4100D02*
X53303D01*
X52803Y3600D02*
Y4600D01*
X43695Y4100D02*
X44695D01*
X44195Y3600D02*
Y4600D01*
X174700Y37500D02*
X175700D01*
X175200Y37000D02*
Y38000D01*
X122900Y90600D02*
X123900D01*
X123400Y90100D02*
Y91100D01*
X79500Y18862D02*
X80500D01*
X80000Y18362D02*
Y19362D01*
X83500Y57347D02*
X84500D01*
X84000Y56847D02*
Y57847D01*
X122700Y95000D02*
X123700D01*
X123200Y94500D02*
Y95500D01*
X49500Y20000D02*
X50500D01*
X50000Y19500D02*
Y20500D01*
X107500Y4000D02*
X108500D01*
X108000Y3500D02*
Y4500D01*
X65900Y4000D02*
X66900D01*
X66400Y3500D02*
Y4500D01*
X29900Y4100D02*
X30900D01*
X30400Y3600D02*
Y4600D01*
X31000Y42124D02*
X32000D01*
X31500Y41624D02*
Y42624D01*
X31000Y49900D02*
X32000D01*
X31500Y49400D02*
Y50400D01*
X31000Y57676D02*
X32000D01*
X31500Y57176D02*
Y58176D01*
X43291Y37470D02*
X44291D01*
X43791Y36970D02*
Y37970D01*
X102600Y87500D02*
X103600D01*
X103100Y87000D02*
Y88000D01*
X27700Y34252D02*
X28700D01*
X28200Y33752D02*
Y34752D01*
X27700Y37402D02*
X28700D01*
X28200Y36902D02*
Y37902D01*
X43291Y62700D02*
X44291D01*
X43791Y62200D02*
Y63200D01*
X55800Y42224D02*
X56800D01*
X56300Y41724D02*
Y42724D01*
X55800Y50000D02*
X56800D01*
X56300Y49500D02*
Y50500D01*
X55800Y57776D02*
X56800D01*
X56300Y57276D02*
Y58276D01*
X47200Y46100D02*
X48200D01*
X47700Y45600D02*
Y46600D01*
X47400Y54000D02*
X48400D01*
X47900Y53500D02*
Y54500D01*
X91300Y77600D02*
X92300D01*
X91800Y77100D02*
Y78100D01*
X75000Y82401D02*
X76000D01*
X75500Y81901D02*
Y82901D01*
X39300Y46100D02*
X40300D01*
X39800Y45600D02*
Y46600D01*
X39500Y54000D02*
X40500D01*
X40000Y53500D02*
Y54500D01*
X79689Y57347D02*
X80689D01*
X80189Y56847D02*
Y57847D01*
X70800Y42700D02*
X71800D01*
X71300Y42200D02*
Y43200D01*
X91171Y56900D02*
X92171D01*
X91671Y56400D02*
Y57400D01*
X84100Y75900D02*
X85100D01*
X84600Y75400D02*
Y76400D01*
X96800Y51900D02*
X97800D01*
X97300Y51400D02*
Y52400D01*
X108600Y37200D02*
X109600D01*
X109100Y36700D02*
Y37700D01*
X110100Y29500D02*
X111100D01*
X110600Y29000D02*
Y30000D01*
X111000Y21700D02*
X112000D01*
X111500Y21200D02*
Y22200D01*
X130000Y27300D02*
X131000D01*
X130500Y26800D02*
Y27800D01*
X159300Y54100D02*
X160300D01*
X159800Y53600D02*
Y54600D01*
X141500Y58100D02*
X142500D01*
X142000Y57600D02*
Y58600D01*
X136900Y54300D02*
X137900D01*
X137400Y53800D02*
Y54800D01*
X62779Y19900D02*
X63779D01*
X63279Y19400D02*
Y20400D01*
X139700Y66496D02*
X140700D01*
X140200Y65996D02*
Y66996D01*
X165664Y73007D02*
X166664D01*
X166164Y72507D02*
Y73507D01*
X177200Y15500D02*
X178200D01*
X177700Y15000D02*
Y16000D01*
X116700Y81900D02*
X117700D01*
X117200Y81400D02*
Y82400D01*
X127524Y73862D02*
X128524D01*
X128024Y73362D02*
Y74362D01*
X145300Y87500D02*
X146300D01*
X145800Y87000D02*
Y88000D01*
X174800Y84600D02*
X175800D01*
X175300Y84100D02*
Y85100D01*
X129000Y69800D02*
X130000D01*
X129500Y69300D02*
Y70300D01*
X165500Y41900D02*
X166500D01*
X166000Y41400D02*
Y42400D01*
X174900Y49900D02*
X175900D01*
X175400Y49400D02*
Y50400D01*
X112200Y81900D02*
X113200D01*
X112700Y81400D02*
Y82400D01*
X129000Y65900D02*
X130000D01*
X129500Y65400D02*
Y66400D01*
X129100Y47600D02*
X130100D01*
X129600Y47100D02*
Y48100D01*
X107500Y8000D02*
X108500D01*
X108000Y7500D02*
Y8500D01*
X115150Y63000D02*
X116150D01*
X115650Y62500D02*
Y63500D01*
X115150Y58000D02*
X116150D01*
X115650Y57500D02*
Y58500D01*
X119300Y58000D02*
X120300D01*
X119800Y57500D02*
Y58500D01*
X111000Y58000D02*
X112000D01*
X111500Y57500D02*
Y58500D01*
X111000Y63000D02*
X112000D01*
X111500Y62500D02*
Y63500D01*
X119300Y62900D02*
X120300D01*
X119800Y62400D02*
Y63400D01*
X107400Y25700D02*
X108400D01*
X107900Y25200D02*
Y26200D01*
X75700Y18862D02*
X76700D01*
X76200Y18362D02*
Y19362D01*
X66000Y7839D02*
X67000D01*
X66500Y7339D02*
Y8339D01*
X33843Y4100D02*
X34843D01*
X34343Y3600D02*
Y4600D01*
X23900Y8000D02*
X24900D01*
X24400Y7500D02*
Y8500D01*
X23840Y13700D02*
X24840D01*
X24340Y13200D02*
Y14200D01*
X62800Y79100D02*
X63800D01*
X63300Y78600D02*
Y79600D01*
X70800Y22221D02*
X71800D01*
X71300Y21721D02*
Y22721D01*
X27700Y53150D02*
X28700D01*
X28200Y52650D02*
Y53650D01*
X27700Y46850D02*
X28700D01*
X28200Y46350D02*
Y47350D01*
X27700Y31102D02*
X28700D01*
X28200Y30602D02*
Y31602D01*
X23803Y78900D02*
X24803D01*
X24303Y78400D02*
Y79400D01*
X27700Y68898D02*
X28700D01*
X28200Y68398D02*
Y69398D01*
X27700Y65748D02*
X28700D01*
X28200Y65248D02*
Y66248D01*
X27700Y62600D02*
X28700D01*
X28200Y62100D02*
Y63100D01*
X27700Y59449D02*
X28700D01*
X28200Y58949D02*
Y59949D01*
X27700Y56299D02*
X28700D01*
X28200Y55799D02*
Y56799D01*
X27700Y50000D02*
X28700D01*
X28200Y49500D02*
Y50500D01*
X27700Y43701D02*
X28700D01*
X28200Y43201D02*
Y44201D01*
X27700Y40551D02*
X28700D01*
X28200Y40051D02*
Y41051D01*
X23800Y18900D02*
X24800D01*
X24300Y18400D02*
Y19400D01*
X27554Y18900D02*
X28554D01*
X28054Y18400D02*
Y19400D01*
X30700Y19000D02*
X31700D01*
X31200Y18500D02*
Y19500D01*
M02*
