G04*
G04 #@! TF.GenerationSoftware,Altium Limited,Altium Designer,23.0.1 (38)*
G04*
G04 Layer_Color=2752767*
%FSLAX25Y25*%
%MOIN*%
G70*
G04*
G04 #@! TF.SameCoordinates,F61D067F-344E-4115-8181-82DC4058F137*
G04*
G04*
G04 #@! TF.FilePolarity,Positive*
G04*
G01*
G75*
%ADD105C,0.00667*%
%ADD106C,0.00500*%
D105*
X191500Y37008D02*
G03*
X191500Y37008I-2000J0D01*
G01*
Y62992D02*
G03*
X191500Y62992I-2000J0D01*
G01*
D106*
X185295Y29850D02*
X186295Y31850D01*
X185295Y33850D01*
X187295Y32850D01*
X189295Y33850D01*
X188295Y31850D01*
X189295Y29850D01*
X187295Y30850D01*
X185295Y29850D01*
Y66150D02*
X186295Y68150D01*
X185295Y70150D01*
X187295Y69150D01*
X189295Y70150D01*
X188295Y68150D01*
X189295Y66150D01*
X187295Y67150D01*
X185295Y66150D01*
X203012Y29850D02*
Y33850D01*
X207012D01*
Y29850D01*
X203012D01*
Y66150D02*
Y70150D01*
X207012D01*
Y66150D01*
X203012D01*
X121300Y11392D02*
X119300Y15392D01*
X123300D01*
X121300Y11392D01*
X131300D02*
X129300Y15392D01*
X133300D01*
X131300Y11392D01*
X29400Y90500D02*
X27400Y94500D01*
X31400D01*
X29400Y90500D01*
X39400D02*
X37400Y94500D01*
X41400D01*
X39400Y90500D01*
X49400D02*
X47400Y94500D01*
X51400D01*
X49400Y90500D01*
X59400D02*
X57400Y94500D01*
X61400D01*
X59400Y90500D01*
X83000Y42200D02*
X84000D01*
X85000Y43200D01*
X86000Y42200D01*
X87000D01*
Y43200D01*
X86000Y44200D01*
X87000Y45200D01*
Y46200D01*
X86000D01*
X85000Y45200D01*
X84000Y46200D01*
X83000D01*
Y45200D01*
X84000Y44200D01*
X83000Y43200D01*
Y42200D01*
X99800Y45700D02*
X100800D01*
X101800Y46700D01*
X102800Y45700D01*
X103800D01*
Y46700D01*
X102800Y47700D01*
X103800Y48700D01*
Y49700D01*
X102800D01*
X101800Y48700D01*
X100800Y49700D01*
X99800D01*
Y48700D01*
X100800Y47700D01*
X99800Y46700D01*
Y45700D01*
X90700Y38600D02*
X91700D01*
X92700Y39600D01*
X93700Y38600D01*
X94700D01*
Y39600D01*
X93700Y40600D01*
X94700Y41600D01*
Y42600D01*
X93700D01*
X92700Y41600D01*
X91700Y42600D01*
X90700D01*
Y41600D01*
X91700Y40600D01*
X90700Y39600D01*
Y38600D01*
X100400Y93000D02*
X101400D01*
X102400Y94000D01*
X103400Y93000D01*
X104400D01*
Y94000D01*
X103400Y95000D01*
X104400Y96000D01*
Y97000D01*
X103400D01*
X102400Y96000D01*
X101400Y97000D01*
X100400D01*
Y96000D01*
X101400Y95000D01*
X100400Y94000D01*
Y93000D01*
X128000Y54800D02*
X129000D01*
X130000Y55800D01*
X131000Y54800D01*
X132000D01*
Y55800D01*
X131000Y56800D01*
X132000Y57800D01*
Y58800D01*
X131000D01*
X130000Y57800D01*
X129000Y58800D01*
X128000D01*
Y57800D01*
X129000Y56800D01*
X128000Y55800D01*
Y54800D01*
X148000Y3000D02*
X149000D01*
X150000Y4000D01*
X151000Y3000D01*
X152000D01*
Y4000D01*
X151000Y5000D01*
X152000Y6000D01*
Y7000D01*
X151000D01*
X150000Y6000D01*
X149000Y7000D01*
X148000D01*
Y6000D01*
X149000Y5000D01*
X148000Y4000D01*
Y3000D01*
X173000Y93000D02*
X174000D01*
X175000Y94000D01*
X176000Y93000D01*
X177000D01*
Y94000D01*
X176000Y95000D01*
X177000Y96000D01*
Y97000D01*
X176000D01*
X175000Y96000D01*
X174000Y97000D01*
X173000D01*
Y96000D01*
X174000Y95000D01*
X173000Y94000D01*
Y93000D01*
X188000D02*
X189000D01*
X190000Y94000D01*
X191000Y93000D01*
X192000D01*
Y94000D01*
X191000Y95000D01*
X192000Y96000D01*
Y97000D01*
X191000D01*
X190000Y96000D01*
X189000Y97000D01*
X188000D01*
Y96000D01*
X189000Y95000D01*
X188000Y94000D01*
Y93000D01*
Y82400D02*
X189000D01*
X190000Y83400D01*
X191000Y82400D01*
X192000D01*
Y83400D01*
X191000Y84400D01*
X192000Y85400D01*
Y86400D01*
X191000D01*
X190000Y85400D01*
X189000Y86400D01*
X188000D01*
Y85400D01*
X189000Y84400D01*
X188000Y83400D01*
Y82400D01*
X133000Y93000D02*
X134000D01*
X135000Y94000D01*
X136000Y93000D01*
X137000D01*
Y94000D01*
X136000Y95000D01*
X137000Y96000D01*
Y97000D01*
X136000D01*
X135000Y96000D01*
X134000Y97000D01*
X133000D01*
Y96000D01*
X134000Y95000D01*
X133000Y94000D01*
Y93000D01*
X188000Y3000D02*
X189000D01*
X190000Y4000D01*
X191000Y3000D01*
X192000D01*
Y4000D01*
X191000Y5000D01*
X192000Y6000D01*
Y7000D01*
X191000D01*
X190000Y6000D01*
X189000Y7000D01*
X188000D01*
Y6000D01*
X189000Y5000D01*
X188000Y4000D01*
Y3000D01*
X153000Y93000D02*
X154000D01*
X155000Y94000D01*
X156000Y93000D01*
X157000D01*
Y94000D01*
X156000Y95000D01*
X157000Y96000D01*
Y97000D01*
X156000D01*
X155000Y96000D01*
X154000Y97000D01*
X153000D01*
Y96000D01*
X154000Y95000D01*
X153000Y94000D01*
Y93000D01*
X188000Y13300D02*
X189000D01*
X190000Y14300D01*
X191000Y13300D01*
X192000D01*
Y14300D01*
X191000Y15300D01*
X192000Y16300D01*
Y17300D01*
X191000D01*
X190000Y16300D01*
X189000Y17300D01*
X188000D01*
Y16300D01*
X189000Y15300D01*
X188000Y14300D01*
Y13300D01*
X78000Y2000D02*
X79000D01*
X80000Y3000D01*
X81000Y2000D01*
X82000D01*
Y3000D01*
X81000Y4000D01*
X82000Y5000D01*
Y6000D01*
X81000D01*
X80000Y5000D01*
X79000Y6000D01*
X78000D01*
Y5000D01*
X79000Y4000D01*
X78000Y3000D01*
Y2000D01*
X168000Y3000D02*
X169000D01*
X170000Y4000D01*
X171000Y3000D01*
X172000D01*
Y4000D01*
X171000Y5000D01*
X172000Y6000D01*
Y7000D01*
X171000D01*
X170000Y6000D01*
X169000Y7000D01*
X168000D01*
Y6000D01*
X169000Y5000D01*
X168000Y4000D01*
Y3000D01*
X64100Y79600D02*
X65100D01*
X66100Y80600D01*
X67100Y79600D01*
X68100D01*
Y80600D01*
X67100Y81600D01*
X68100Y82600D01*
Y83600D01*
X67100D01*
X66100Y82600D01*
X65100Y83600D01*
X64100D01*
Y82600D01*
X65100Y81600D01*
X64100Y80600D01*
Y79600D01*
X50803Y2100D02*
X51803D01*
X52803Y3100D01*
X53803Y2100D01*
X54803D01*
Y3100D01*
X53803Y4100D01*
X54803Y5100D01*
Y6100D01*
X53803D01*
X52803Y5100D01*
X51803Y6100D01*
X50803D01*
Y5100D01*
X51803Y4100D01*
X50803Y3100D01*
Y2100D01*
X42195D02*
X43195D01*
X44195Y3100D01*
X45195Y2100D01*
X46195D01*
Y3100D01*
X45195Y4100D01*
X46195Y5100D01*
Y6100D01*
X45195D01*
X44195Y5100D01*
X43195Y6100D01*
X42195D01*
Y5100D01*
X43195Y4100D01*
X42195Y3100D01*
Y2100D01*
X173200Y35500D02*
X174200D01*
X175200Y36500D01*
X176200Y35500D01*
X177200D01*
Y36500D01*
X176200Y37500D01*
X177200Y38500D01*
Y39500D01*
X176200D01*
X175200Y38500D01*
X174200Y39500D01*
X173200D01*
Y38500D01*
X174200Y37500D01*
X173200Y36500D01*
Y35500D01*
X121400Y88600D02*
X122400D01*
X123400Y89600D01*
X124400Y88600D01*
X125400D01*
Y89600D01*
X124400Y90600D01*
X125400Y91600D01*
Y92600D01*
X124400D01*
X123400Y91600D01*
X122400Y92600D01*
X121400D01*
Y91600D01*
X122400Y90600D01*
X121400Y89600D01*
Y88600D01*
X78000Y16862D02*
X79000D01*
X80000Y17862D01*
X81000Y16862D01*
X82000D01*
Y17862D01*
X81000Y18862D01*
X82000Y19862D01*
Y20862D01*
X81000D01*
X80000Y19862D01*
X79000Y20862D01*
X78000D01*
Y19862D01*
X79000Y18862D01*
X78000Y17862D01*
Y16862D01*
X82000Y55347D02*
X83000D01*
X84000Y56347D01*
X85000Y55347D01*
X86000D01*
Y56347D01*
X85000Y57347D01*
X86000Y58347D01*
Y59347D01*
X85000D01*
X84000Y58347D01*
X83000Y59347D01*
X82000D01*
Y58347D01*
X83000Y57347D01*
X82000Y56347D01*
Y55347D01*
X121200Y93000D02*
X122200D01*
X123200Y94000D01*
X124200Y93000D01*
X125200D01*
Y94000D01*
X124200Y95000D01*
X125200Y96000D01*
Y97000D01*
X124200D01*
X123200Y96000D01*
X122200Y97000D01*
X121200D01*
Y96000D01*
X122200Y95000D01*
X121200Y94000D01*
Y93000D01*
X48000Y18000D02*
X49000D01*
X50000Y19000D01*
X51000Y18000D01*
X52000D01*
Y19000D01*
X51000Y20000D01*
X52000Y21000D01*
Y22000D01*
X51000D01*
X50000Y21000D01*
X49000Y22000D01*
X48000D01*
Y21000D01*
X49000Y20000D01*
X48000Y19000D01*
Y18000D01*
X106000Y2000D02*
X107000D01*
X108000Y3000D01*
X109000Y2000D01*
X110000D01*
Y3000D01*
X109000Y4000D01*
X110000Y5000D01*
Y6000D01*
X109000D01*
X108000Y5000D01*
X107000Y6000D01*
X106000D01*
Y5000D01*
X107000Y4000D01*
X106000Y3000D01*
Y2000D01*
X64400D02*
X65400D01*
X66400Y3000D01*
X67400Y2000D01*
X68400D01*
Y3000D01*
X67400Y4000D01*
X68400Y5000D01*
Y6000D01*
X67400D01*
X66400Y5000D01*
X65400Y6000D01*
X64400D01*
Y5000D01*
X65400Y4000D01*
X64400Y3000D01*
Y2000D01*
X28400Y2100D02*
X29400D01*
X30400Y3100D01*
X31400Y2100D01*
X32400D01*
Y3100D01*
X31400Y4100D01*
X32400Y5100D01*
Y6100D01*
X31400D01*
X30400Y5100D01*
X29400Y6100D01*
X28400D01*
Y5100D01*
X29400Y4100D01*
X28400Y3100D01*
Y2100D01*
X29500Y40124D02*
X30500D01*
X31500Y41124D01*
X32500Y40124D01*
X33500D01*
Y41124D01*
X32500Y42124D01*
X33500Y43124D01*
Y44124D01*
X32500D01*
X31500Y43124D01*
X30500Y44124D01*
X29500D01*
Y43124D01*
X30500Y42124D01*
X29500Y41124D01*
Y40124D01*
Y47900D02*
X30500D01*
X31500Y48900D01*
X32500Y47900D01*
X33500D01*
Y48900D01*
X32500Y49900D01*
X33500Y50900D01*
Y51900D01*
X32500D01*
X31500Y50900D01*
X30500Y51900D01*
X29500D01*
Y50900D01*
X30500Y49900D01*
X29500Y48900D01*
Y47900D01*
Y55676D02*
X30500D01*
X31500Y56676D01*
X32500Y55676D01*
X33500D01*
Y56676D01*
X32500Y57676D01*
X33500Y58676D01*
Y59676D01*
X32500D01*
X31500Y58676D01*
X30500Y59676D01*
X29500D01*
Y58676D01*
X30500Y57676D01*
X29500Y56676D01*
Y55676D01*
X41791Y35470D02*
X42791D01*
X43791Y36470D01*
X44791Y35470D01*
X45791D01*
Y36470D01*
X44791Y37470D01*
X45791Y38470D01*
Y39470D01*
X44791D01*
X43791Y38470D01*
X42791Y39470D01*
X41791D01*
Y38470D01*
X42791Y37470D01*
X41791Y36470D01*
Y35470D01*
X101100Y85500D02*
X102100D01*
X103100Y86500D01*
X104100Y85500D01*
X105100D01*
Y86500D01*
X104100Y87500D01*
X105100Y88500D01*
Y89500D01*
X104100D01*
X103100Y88500D01*
X102100Y89500D01*
X101100D01*
Y88500D01*
X102100Y87500D01*
X101100Y86500D01*
Y85500D01*
X26200Y32252D02*
X27200D01*
X28200Y33252D01*
X29200Y32252D01*
X30200D01*
Y33252D01*
X29200Y34252D01*
X30200Y35252D01*
Y36252D01*
X29200D01*
X28200Y35252D01*
X27200Y36252D01*
X26200D01*
Y35252D01*
X27200Y34252D01*
X26200Y33252D01*
Y32252D01*
Y35402D02*
X27200D01*
X28200Y36402D01*
X29200Y35402D01*
X30200D01*
Y36402D01*
X29200Y37402D01*
X30200Y38402D01*
Y39402D01*
X29200D01*
X28200Y38402D01*
X27200Y39402D01*
X26200D01*
Y38402D01*
X27200Y37402D01*
X26200Y36402D01*
Y35402D01*
X41791Y60700D02*
X42791D01*
X43791Y61700D01*
X44791Y60700D01*
X45791D01*
Y61700D01*
X44791Y62700D01*
X45791Y63700D01*
Y64700D01*
X44791D01*
X43791Y63700D01*
X42791Y64700D01*
X41791D01*
Y63700D01*
X42791Y62700D01*
X41791Y61700D01*
Y60700D01*
X54300Y40224D02*
X55300D01*
X56300Y41224D01*
X57300Y40224D01*
X58300D01*
Y41224D01*
X57300Y42224D01*
X58300Y43224D01*
Y44224D01*
X57300D01*
X56300Y43224D01*
X55300Y44224D01*
X54300D01*
Y43224D01*
X55300Y42224D01*
X54300Y41224D01*
Y40224D01*
Y48000D02*
X55300D01*
X56300Y49000D01*
X57300Y48000D01*
X58300D01*
Y49000D01*
X57300Y50000D01*
X58300Y51000D01*
Y52000D01*
X57300D01*
X56300Y51000D01*
X55300Y52000D01*
X54300D01*
Y51000D01*
X55300Y50000D01*
X54300Y49000D01*
Y48000D01*
Y55776D02*
X55300D01*
X56300Y56776D01*
X57300Y55776D01*
X58300D01*
Y56776D01*
X57300Y57776D01*
X58300Y58776D01*
Y59776D01*
X57300D01*
X56300Y58776D01*
X55300Y59776D01*
X54300D01*
Y58776D01*
X55300Y57776D01*
X54300Y56776D01*
Y55776D01*
X45700Y44100D02*
X46700D01*
X47700Y45100D01*
X48700Y44100D01*
X49700D01*
Y45100D01*
X48700Y46100D01*
X49700Y47100D01*
Y48100D01*
X48700D01*
X47700Y47100D01*
X46700Y48100D01*
X45700D01*
Y47100D01*
X46700Y46100D01*
X45700Y45100D01*
Y44100D01*
X45900Y52000D02*
X46900D01*
X47900Y53000D01*
X48900Y52000D01*
X49900D01*
Y53000D01*
X48900Y54000D01*
X49900Y55000D01*
Y56000D01*
X48900D01*
X47900Y55000D01*
X46900Y56000D01*
X45900D01*
Y55000D01*
X46900Y54000D01*
X45900Y53000D01*
Y52000D01*
X89800Y75600D02*
X90800D01*
X91800Y76600D01*
X92800Y75600D01*
X93800D01*
Y76600D01*
X92800Y77600D01*
X93800Y78600D01*
Y79600D01*
X92800D01*
X91800Y78600D01*
X90800Y79600D01*
X89800D01*
Y78600D01*
X90800Y77600D01*
X89800Y76600D01*
Y75600D01*
X73500Y80401D02*
X74500D01*
X75500Y81401D01*
X76500Y80401D01*
X77500D01*
Y81401D01*
X76500Y82401D01*
X77500Y83401D01*
Y84401D01*
X76500D01*
X75500Y83401D01*
X74500Y84401D01*
X73500D01*
Y83401D01*
X74500Y82401D01*
X73500Y81401D01*
Y80401D01*
X37800Y44100D02*
X38800D01*
X39800Y45100D01*
X40800Y44100D01*
X41800D01*
Y45100D01*
X40800Y46100D01*
X41800Y47100D01*
Y48100D01*
X40800D01*
X39800Y47100D01*
X38800Y48100D01*
X37800D01*
Y47100D01*
X38800Y46100D01*
X37800Y45100D01*
Y44100D01*
X38000Y52000D02*
X39000D01*
X40000Y53000D01*
X41000Y52000D01*
X42000D01*
Y53000D01*
X41000Y54000D01*
X42000Y55000D01*
Y56000D01*
X41000D01*
X40000Y55000D01*
X39000Y56000D01*
X38000D01*
Y55000D01*
X39000Y54000D01*
X38000Y53000D01*
Y52000D01*
X78189Y55347D02*
X79189D01*
X80189Y56347D01*
X81189Y55347D01*
X82189D01*
Y56347D01*
X81189Y57347D01*
X82189Y58347D01*
Y59347D01*
X81189D01*
X80189Y58347D01*
X79189Y59347D01*
X78189D01*
Y58347D01*
X79189Y57347D01*
X78189Y56347D01*
Y55347D01*
X69300Y40700D02*
X70300D01*
X71300Y41700D01*
X72300Y40700D01*
X73300D01*
Y41700D01*
X72300Y42700D01*
X73300Y43700D01*
Y44700D01*
X72300D01*
X71300Y43700D01*
X70300Y44700D01*
X69300D01*
Y43700D01*
X70300Y42700D01*
X69300Y41700D01*
Y40700D01*
X89671Y54900D02*
X90671D01*
X91671Y55900D01*
X92671Y54900D01*
X93671D01*
Y55900D01*
X92671Y56900D01*
X93671Y57900D01*
Y58900D01*
X92671D01*
X91671Y57900D01*
X90671Y58900D01*
X89671D01*
Y57900D01*
X90671Y56900D01*
X89671Y55900D01*
Y54900D01*
X82600Y73900D02*
X83600D01*
X84600Y74900D01*
X85600Y73900D01*
X86600D01*
Y74900D01*
X85600Y75900D01*
X86600Y76900D01*
Y77900D01*
X85600D01*
X84600Y76900D01*
X83600Y77900D01*
X82600D01*
Y76900D01*
X83600Y75900D01*
X82600Y74900D01*
Y73900D01*
X95300Y49900D02*
X96300D01*
X97300Y50900D01*
X98300Y49900D01*
X99300D01*
Y50900D01*
X98300Y51900D01*
X99300Y52900D01*
Y53900D01*
X98300D01*
X97300Y52900D01*
X96300Y53900D01*
X95300D01*
Y52900D01*
X96300Y51900D01*
X95300Y50900D01*
Y49900D01*
X107100Y35200D02*
X108100D01*
X109100Y36200D01*
X110100Y35200D01*
X111100D01*
Y36200D01*
X110100Y37200D01*
X111100Y38200D01*
Y39200D01*
X110100D01*
X109100Y38200D01*
X108100Y39200D01*
X107100D01*
Y38200D01*
X108100Y37200D01*
X107100Y36200D01*
Y35200D01*
X108600Y27500D02*
X109600D01*
X110600Y28500D01*
X111600Y27500D01*
X112600D01*
Y28500D01*
X111600Y29500D01*
X112600Y30500D01*
Y31500D01*
X111600D01*
X110600Y30500D01*
X109600Y31500D01*
X108600D01*
Y30500D01*
X109600Y29500D01*
X108600Y28500D01*
Y27500D01*
X109500Y19700D02*
X110500D01*
X111500Y20700D01*
X112500Y19700D01*
X113500D01*
Y20700D01*
X112500Y21700D01*
X113500Y22700D01*
Y23700D01*
X112500D01*
X111500Y22700D01*
X110500Y23700D01*
X109500D01*
Y22700D01*
X110500Y21700D01*
X109500Y20700D01*
Y19700D01*
X128500Y25300D02*
X129500D01*
X130500Y26300D01*
X131500Y25300D01*
X132500D01*
Y26300D01*
X131500Y27300D01*
X132500Y28300D01*
Y29300D01*
X131500D01*
X130500Y28300D01*
X129500Y29300D01*
X128500D01*
Y28300D01*
X129500Y27300D01*
X128500Y26300D01*
Y25300D01*
X157800Y52100D02*
X158800D01*
X159800Y53100D01*
X160800Y52100D01*
X161800D01*
Y53100D01*
X160800Y54100D01*
X161800Y55100D01*
Y56100D01*
X160800D01*
X159800Y55100D01*
X158800Y56100D01*
X157800D01*
Y55100D01*
X158800Y54100D01*
X157800Y53100D01*
Y52100D01*
X140000Y56100D02*
X141000D01*
X142000Y57100D01*
X143000Y56100D01*
X144000D01*
Y57100D01*
X143000Y58100D01*
X144000Y59100D01*
Y60100D01*
X143000D01*
X142000Y59100D01*
X141000Y60100D01*
X140000D01*
Y59100D01*
X141000Y58100D01*
X140000Y57100D01*
Y56100D01*
X135400Y52300D02*
X136400D01*
X137400Y53300D01*
X138400Y52300D01*
X139400D01*
Y53300D01*
X138400Y54300D01*
X139400Y55300D01*
Y56300D01*
X138400D01*
X137400Y55300D01*
X136400Y56300D01*
X135400D01*
Y55300D01*
X136400Y54300D01*
X135400Y53300D01*
Y52300D01*
X61279Y17900D02*
X62279D01*
X63279Y18900D01*
X64280Y17900D01*
X65280D01*
Y18900D01*
X64280Y19900D01*
X65280Y20900D01*
Y21900D01*
X64280D01*
X63279Y20900D01*
X62279Y21900D01*
X61279D01*
Y20900D01*
X62279Y19900D01*
X61279Y18900D01*
Y17900D01*
X138200Y64496D02*
X139200D01*
X140200Y65496D01*
X141200Y64496D01*
X142200D01*
Y65496D01*
X141200Y66496D01*
X142200Y67496D01*
Y68496D01*
X141200D01*
X140200Y67496D01*
X139200Y68496D01*
X138200D01*
Y67496D01*
X139200Y66496D01*
X138200Y65496D01*
Y64496D01*
X164164Y71007D02*
X165164D01*
X166164Y72007D01*
X167164Y71007D01*
X168164D01*
Y72007D01*
X167164Y73007D01*
X168164Y74007D01*
Y75007D01*
X167164D01*
X166164Y74007D01*
X165164Y75007D01*
X164164D01*
Y74007D01*
X165164Y73007D01*
X164164Y72007D01*
Y71007D01*
X175700Y13500D02*
X176700D01*
X177700Y14500D01*
X178700Y13500D01*
X179700D01*
Y14500D01*
X178700Y15500D01*
X179700Y16500D01*
Y17500D01*
X178700D01*
X177700Y16500D01*
X176700Y17500D01*
X175700D01*
Y16500D01*
X176700Y15500D01*
X175700Y14500D01*
Y13500D01*
X115200Y79900D02*
X116200D01*
X117200Y80900D01*
X118200Y79900D01*
X119200D01*
Y80900D01*
X118200Y81900D01*
X119200Y82900D01*
Y83900D01*
X118200D01*
X117200Y82900D01*
X116200Y83900D01*
X115200D01*
Y82900D01*
X116200Y81900D01*
X115200Y80900D01*
Y79900D01*
X126024Y71862D02*
X127024D01*
X128024Y72862D01*
X129024Y71862D01*
X130024D01*
Y72862D01*
X129024Y73862D01*
X130024Y74862D01*
Y75862D01*
X129024D01*
X128024Y74862D01*
X127024Y75862D01*
X126024D01*
Y74862D01*
X127024Y73862D01*
X126024Y72862D01*
Y71862D01*
X143800Y85500D02*
X144800D01*
X145800Y86500D01*
X146800Y85500D01*
X147800D01*
Y86500D01*
X146800Y87500D01*
X147800Y88500D01*
Y89500D01*
X146800D01*
X145800Y88500D01*
X144800Y89500D01*
X143800D01*
Y88500D01*
X144800Y87500D01*
X143800Y86500D01*
Y85500D01*
X173300Y82600D02*
X174300D01*
X175300Y83600D01*
X176300Y82600D01*
X177300D01*
Y83600D01*
X176300Y84600D01*
X177300Y85600D01*
Y86600D01*
X176300D01*
X175300Y85600D01*
X174300Y86600D01*
X173300D01*
Y85600D01*
X174300Y84600D01*
X173300Y83600D01*
Y82600D01*
X127500Y67800D02*
X128500D01*
X129500Y68800D01*
X130500Y67800D01*
X131500D01*
Y68800D01*
X130500Y69800D01*
X131500Y70800D01*
Y71800D01*
X130500D01*
X129500Y70800D01*
X128500Y71800D01*
X127500D01*
Y70800D01*
X128500Y69800D01*
X127500Y68800D01*
Y67800D01*
X164000Y39900D02*
X165000D01*
X166000Y40900D01*
X167000Y39900D01*
X168000D01*
Y40900D01*
X167000Y41900D01*
X168000Y42900D01*
Y43900D01*
X167000D01*
X166000Y42900D01*
X165000Y43900D01*
X164000D01*
Y42900D01*
X165000Y41900D01*
X164000Y40900D01*
Y39900D01*
X173400Y47900D02*
X174400D01*
X175400Y48900D01*
X176400Y47900D01*
X177400D01*
Y48900D01*
X176400Y49900D01*
X177400Y50900D01*
Y51900D01*
X176400D01*
X175400Y50900D01*
X174400Y51900D01*
X173400D01*
Y50900D01*
X174400Y49900D01*
X173400Y48900D01*
Y47900D01*
X110700Y79900D02*
X111700D01*
X112700Y80900D01*
X113700Y79900D01*
X114700D01*
Y80900D01*
X113700Y81900D01*
X114700Y82900D01*
Y83900D01*
X113700D01*
X112700Y82900D01*
X111700Y83900D01*
X110700D01*
Y82900D01*
X111700Y81900D01*
X110700Y80900D01*
Y79900D01*
X127500Y63900D02*
X128500D01*
X129500Y64900D01*
X130500Y63900D01*
X131500D01*
Y64900D01*
X130500Y65900D01*
X131500Y66900D01*
Y67900D01*
X130500D01*
X129500Y66900D01*
X128500Y67900D01*
X127500D01*
Y66900D01*
X128500Y65900D01*
X127500Y64900D01*
Y63900D01*
X127600Y45600D02*
X128600D01*
X129600Y46600D01*
X130600Y45600D01*
X131600D01*
Y46600D01*
X130600Y47600D01*
X131600Y48600D01*
Y49600D01*
X130600D01*
X129600Y48600D01*
X128600Y49600D01*
X127600D01*
Y48600D01*
X128600Y47600D01*
X127600Y46600D01*
Y45600D01*
X106000Y6000D02*
X107000D01*
X108000Y7000D01*
X109000Y6000D01*
X110000D01*
Y7000D01*
X109000Y8000D01*
X110000Y9000D01*
Y10000D01*
X109000D01*
X108000Y9000D01*
X107000Y10000D01*
X106000D01*
Y9000D01*
X107000Y8000D01*
X106000Y7000D01*
Y6000D01*
X113650Y61000D02*
X114650D01*
X115650Y62000D01*
X116650Y61000D01*
X117650D01*
Y62000D01*
X116650Y63000D01*
X117650Y64000D01*
Y65000D01*
X116650D01*
X115650Y64000D01*
X114650Y65000D01*
X113650D01*
Y64000D01*
X114650Y63000D01*
X113650Y62000D01*
Y61000D01*
Y56000D02*
X114650D01*
X115650Y57000D01*
X116650Y56000D01*
X117650D01*
Y57000D01*
X116650Y58000D01*
X117650Y59000D01*
Y60000D01*
X116650D01*
X115650Y59000D01*
X114650Y60000D01*
X113650D01*
Y59000D01*
X114650Y58000D01*
X113650Y57000D01*
Y56000D01*
X117800D02*
X118800D01*
X119800Y57000D01*
X120800Y56000D01*
X121800D01*
Y57000D01*
X120800Y58000D01*
X121800Y59000D01*
Y60000D01*
X120800D01*
X119800Y59000D01*
X118800Y60000D01*
X117800D01*
Y59000D01*
X118800Y58000D01*
X117800Y57000D01*
Y56000D01*
X109500D02*
X110500D01*
X111500Y57000D01*
X112500Y56000D01*
X113500D01*
Y57000D01*
X112500Y58000D01*
X113500Y59000D01*
Y60000D01*
X112500D01*
X111500Y59000D01*
X110500Y60000D01*
X109500D01*
Y59000D01*
X110500Y58000D01*
X109500Y57000D01*
Y56000D01*
Y61000D02*
X110500D01*
X111500Y62000D01*
X112500Y61000D01*
X113500D01*
Y62000D01*
X112500Y63000D01*
X113500Y64000D01*
Y65000D01*
X112500D01*
X111500Y64000D01*
X110500Y65000D01*
X109500D01*
Y64000D01*
X110500Y63000D01*
X109500Y62000D01*
Y61000D01*
X117800Y60900D02*
X118800D01*
X119800Y61900D01*
X120800Y60900D01*
X121800D01*
Y61900D01*
X120800Y62900D01*
X121800Y63900D01*
Y64900D01*
X120800D01*
X119800Y63900D01*
X118800Y64900D01*
X117800D01*
Y63900D01*
X118800Y62900D01*
X117800Y61900D01*
Y60900D01*
X105900Y23700D02*
X106900D01*
X107900Y24700D01*
X108900Y23700D01*
X109900D01*
Y24700D01*
X108900Y25700D01*
X109900Y26700D01*
Y27700D01*
X108900D01*
X107900Y26700D01*
X106900Y27700D01*
X105900D01*
Y26700D01*
X106900Y25700D01*
X105900Y24700D01*
Y23700D01*
X74200Y16862D02*
X75200D01*
X76200Y17862D01*
X77200Y16862D01*
X78200D01*
Y17862D01*
X77200Y18862D01*
X78200Y19862D01*
Y20862D01*
X77200D01*
X76200Y19862D01*
X75200Y20862D01*
X74200D01*
Y19862D01*
X75200Y18862D01*
X74200Y17862D01*
Y16862D01*
X64500Y5839D02*
X65500D01*
X66500Y6839D01*
X67500Y5839D01*
X68500D01*
Y6839D01*
X67500Y7839D01*
X68500Y8839D01*
Y9839D01*
X67500D01*
X66500Y8839D01*
X65500Y9839D01*
X64500D01*
Y8839D01*
X65500Y7839D01*
X64500Y6839D01*
Y5839D01*
X32342Y2100D02*
X33342D01*
X34343Y3100D01*
X35342Y2100D01*
X36342D01*
Y3100D01*
X35342Y4100D01*
X36342Y5100D01*
Y6100D01*
X35342D01*
X34343Y5100D01*
X33342Y6100D01*
X32342D01*
Y5100D01*
X33342Y4100D01*
X32342Y3100D01*
Y2100D01*
X22400Y6000D02*
X23400D01*
X24400Y7000D01*
X25400Y6000D01*
X26400D01*
Y7000D01*
X25400Y8000D01*
X26400Y9000D01*
Y10000D01*
X25400D01*
X24400Y9000D01*
X23400Y10000D01*
X22400D01*
Y9000D01*
X23400Y8000D01*
X22400Y7000D01*
Y6000D01*
X22340Y11700D02*
X23340D01*
X24340Y12700D01*
X25340Y11700D01*
X26340D01*
Y12700D01*
X25340Y13700D01*
X26340Y14700D01*
Y15700D01*
X25340D01*
X24340Y14700D01*
X23340Y15700D01*
X22340D01*
Y14700D01*
X23340Y13700D01*
X22340Y12700D01*
Y11700D01*
X61300Y77100D02*
X62300D01*
X63300Y78100D01*
X64300Y77100D01*
X65300D01*
Y78100D01*
X64300Y79100D01*
X65300Y80100D01*
Y81100D01*
X64300D01*
X63300Y80100D01*
X62300Y81100D01*
X61300D01*
Y80100D01*
X62300Y79100D01*
X61300Y78100D01*
Y77100D01*
X69300Y20221D02*
X70300D01*
X71300Y21221D01*
X72300Y20221D01*
X73300D01*
Y21221D01*
X72300Y22221D01*
X73300Y23221D01*
Y24221D01*
X72300D01*
X71300Y23221D01*
X70300Y24221D01*
X69300D01*
Y23221D01*
X70300Y22221D01*
X69300Y21221D01*
Y20221D01*
X26200Y51150D02*
X27200D01*
X28200Y52150D01*
X29200Y51150D01*
X30200D01*
Y52150D01*
X29200Y53150D01*
X30200Y54150D01*
Y55150D01*
X29200D01*
X28200Y54150D01*
X27200Y55150D01*
X26200D01*
Y54150D01*
X27200Y53150D01*
X26200Y52150D01*
Y51150D01*
Y44850D02*
X27200D01*
X28200Y45850D01*
X29200Y44850D01*
X30200D01*
Y45850D01*
X29200Y46850D01*
X30200Y47850D01*
Y48850D01*
X29200D01*
X28200Y47850D01*
X27200Y48850D01*
X26200D01*
Y47850D01*
X27200Y46850D01*
X26200Y45850D01*
Y44850D01*
Y29102D02*
X27200D01*
X28200Y30102D01*
X29200Y29102D01*
X30200D01*
Y30102D01*
X29200Y31102D01*
X30200Y32102D01*
Y33102D01*
X29200D01*
X28200Y32102D01*
X27200Y33102D01*
X26200D01*
Y32102D01*
X27200Y31102D01*
X26200Y30102D01*
Y29102D01*
X22303Y76900D02*
X23303D01*
X24303Y77900D01*
X25303Y76900D01*
X26303D01*
Y77900D01*
X25303Y78900D01*
X26303Y79900D01*
Y80900D01*
X25303D01*
X24303Y79900D01*
X23303Y80900D01*
X22303D01*
Y79900D01*
X23303Y78900D01*
X22303Y77900D01*
Y76900D01*
X26200Y66898D02*
X27200D01*
X28200Y67898D01*
X29200Y66898D01*
X30200D01*
Y67898D01*
X29200Y68898D01*
X30200Y69898D01*
Y70898D01*
X29200D01*
X28200Y69898D01*
X27200Y70898D01*
X26200D01*
Y69898D01*
X27200Y68898D01*
X26200Y67898D01*
Y66898D01*
Y63748D02*
X27200D01*
X28200Y64748D01*
X29200Y63748D01*
X30200D01*
Y64748D01*
X29200Y65748D01*
X30200Y66748D01*
Y67748D01*
X29200D01*
X28200Y66748D01*
X27200Y67748D01*
X26200D01*
Y66748D01*
X27200Y65748D01*
X26200Y64748D01*
Y63748D01*
Y60600D02*
X27200D01*
X28200Y61600D01*
X29200Y60600D01*
X30200D01*
Y61600D01*
X29200Y62600D01*
X30200Y63600D01*
Y64600D01*
X29200D01*
X28200Y63600D01*
X27200Y64600D01*
X26200D01*
Y63600D01*
X27200Y62600D01*
X26200Y61600D01*
Y60600D01*
Y57449D02*
X27200D01*
X28200Y58449D01*
X29200Y57449D01*
X30200D01*
Y58449D01*
X29200Y59449D01*
X30200Y60449D01*
Y61449D01*
X29200D01*
X28200Y60449D01*
X27200Y61449D01*
X26200D01*
Y60449D01*
X27200Y59449D01*
X26200Y58449D01*
Y57449D01*
Y54299D02*
X27200D01*
X28200Y55299D01*
X29200Y54299D01*
X30200D01*
Y55299D01*
X29200Y56299D01*
X30200Y57299D01*
Y58299D01*
X29200D01*
X28200Y57299D01*
X27200Y58299D01*
X26200D01*
Y57299D01*
X27200Y56299D01*
X26200Y55299D01*
Y54299D01*
Y48000D02*
X27200D01*
X28200Y49000D01*
X29200Y48000D01*
X30200D01*
Y49000D01*
X29200Y50000D01*
X30200Y51000D01*
Y52000D01*
X29200D01*
X28200Y51000D01*
X27200Y52000D01*
X26200D01*
Y51000D01*
X27200Y50000D01*
X26200Y49000D01*
Y48000D01*
Y41701D02*
X27200D01*
X28200Y42701D01*
X29200Y41701D01*
X30200D01*
Y42701D01*
X29200Y43701D01*
X30200Y44701D01*
Y45701D01*
X29200D01*
X28200Y44701D01*
X27200Y45701D01*
X26200D01*
Y44701D01*
X27200Y43701D01*
X26200Y42701D01*
Y41701D01*
Y38551D02*
X27200D01*
X28200Y39551D01*
X29200Y38551D01*
X30200D01*
Y39551D01*
X29200Y40551D01*
X30200Y41551D01*
Y42551D01*
X29200D01*
X28200Y41551D01*
X27200Y42551D01*
X26200D01*
Y41551D01*
X27200Y40551D01*
X26200Y39551D01*
Y38551D01*
X22300Y16900D02*
X23300D01*
X24300Y17900D01*
X25300Y16900D01*
X26300D01*
Y17900D01*
X25300Y18900D01*
X26300Y19900D01*
Y20900D01*
X25300D01*
X24300Y19900D01*
X23300Y20900D01*
X22300D01*
Y19900D01*
X23300Y18900D01*
X22300Y17900D01*
Y16900D01*
X26054D02*
X27054D01*
X28054Y17900D01*
X29054Y16900D01*
X30054D01*
Y17900D01*
X29054Y18900D01*
X30054Y19900D01*
Y20900D01*
X29054D01*
X28054Y19900D01*
X27054Y20900D01*
X26054D01*
Y19900D01*
X27054Y18900D01*
X26054Y17900D01*
Y16900D01*
X29200Y17000D02*
X30200D01*
X31200Y18000D01*
X32200Y17000D01*
X33200D01*
Y18000D01*
X32200Y19000D01*
X33200Y20000D01*
Y21000D01*
X32200D01*
X31200Y20000D01*
X30200Y21000D01*
X29200D01*
Y20000D01*
X30200Y19000D01*
X29200Y18000D01*
Y17000D01*
M02*
