M48
;Layer_Color=9474304
;FILE_FORMAT=2:5
INCH,LZ
;TYPE=PLATED
T1F00S00C0.01000
T3F00S00C0.04016
T4F00S00C0.06732
;TYPE=NON_PLATED
T5F00S00C0.03150
%
T01
X00244Y0008
X002434Y00137
X00243Y00189
X0028054
X00312Y0019
X00282Y0031102
Y0034252
Y0037402
Y0040551
Y0043701
Y004685
Y005
Y005315
X00315Y00499
Y0042124
X00398Y00461
X00477
X00479Y0054
X004
X0043791Y003747
X005Y002
X0052803Y00041
X0044195
X0034343
X00304
X00664Y0004
X00665Y0007839
X0063279Y00199
X00713Y0022221
X00762Y0018862
X008
Y0004
X0108
Y0008
X01115Y00217
X01079Y00257
X01106Y00295
X01091Y00372
X01018Y00477
X00973Y00519
X00927Y00406
X0085Y00442
X00713Y00427
X00563Y0042224
Y005
X01296Y00476
X01374Y00543
X01598Y00541
X0166Y00419
X01752Y00375
X01754Y00499
X01777Y00155
X019Y00153
Y0005
X017
X015
X01305Y00273
X013Y00568
X01295Y00659
Y00698
X0128024Y0073862
X01172Y00819
X01127
X01031Y00875
X01024Y0095
X01232
X01234Y00906
X0135Y0095
X01458Y00875
X0155Y0095
X0175
X01753Y00846
X019Y00844
Y0095
X0166164Y0073007
X01402Y0066496
X0142Y00581
X01198Y0058
X011565
X01115
Y0063
X011565
X01198Y00629
X0091671Y00569
X0084Y0057347
X0080189
X00846Y00759
X00918Y00776
X00755Y0082401
X00661Y00816
X00633Y00791
X00563Y0057776
X0043791Y00627
X00282Y00626
Y0065748
Y0068898
Y0059449
Y0056299
X00315Y0057676
X0024303Y00789
T03
X01213Y0013392
X01313
X00594Y00925
X00494
X00394
X00294
T04
X0205012Y003185
Y006815
T05
X01895Y0037008
Y0062992
M30
